<?xml version="1.0" encoding="utf-8"?>
<!-- Generator: Adobe Illustrator 23.0.2, SVG Export Plug-In . SVG Version: 6.00 Build 0)  -->
<svg version="1.1" id="레이어_1" xmlns="http://www.w3.org/2000/svg" xmlns:xlink="http://www.w3.org/1999/xlink" x="0px"
	 y="0px" viewBox="0 0 365.9 176.9" style="enable-background:new 0 0 365.9 176.9;" xml:space="preserve">
<style type="text/css">
	.st0{fill:#FFFFFF;}
	.st1{fill:#C9191E;}
	.st2{fill:#221714;}
</style>
<g>
	<path class="st0" d="M65,147l-0.8-0.5C64.2,146.7,64.4,146.9,65,147z"/>
	<path class="st0" d="M95.9,44.1c0.1,0,0.1-0.1,0.2-0.1C95.9,44.1,95.9,44.1,95.9,44.1z"/>
	<polygon class="st1" points="93.8,108 93.3,108.1 93,109 93.6,108.6 	"/>
	<polygon class="st1" points="93.8,115.6 93.1,115.5 92.7,116.5 93.7,116.6 	"/>
	<polygon class="st1" points="93.2,119.8 93.6,120.1 94.1,119.7 93.7,119.2 	"/>
	<polygon class="st1" points="44.8,136.8 44.5,138.4 45.4,137.6 45,136.6 	"/>
	<g>
		<path class="st1" d="M65.8,72.8c0.6,0,2.3-1.1,2.4-1.2c0.2-0.6,1.3-2.1,1.2-2.3C69.2,69.2,69,69,68.9,69c-0.2,0-0.5,0.3-0.7,0.3
			c-0.2,0-0.1-0.1-0.3-0.1c-0.2,0-0.3,0.2-0.4,0.2c-0.2,0-0.8-0.4-1-0.4c-0.6,0-2.2,2.7-2.2,3C64.3,72.5,65.6,72.9,65.8,72.8z"/>
		<path class="st1" d="M110.7,70.8c-0.1-1.8-0.1-3.8-0.1-5.8c0-1,0-2,0-3l0-0.8c0-0.5,0-0.9-0.1-1.3c-0.1-0.9-0.2-1.7-0.3-2.5
			c-1-6.8-5-11.1-7.7-11.6l0.4-0.1c-1.6-0.4-2.5-0.5-3.4-1c-0.5-0.1-1-0.2-1.6-0.3c-0.3,0-0.6-0.1-0.9-0.1c-0.2,0-0.3,0-0.5,0
			c-0.1,0-0.2,0.1-0.4,0.1c-0.1-0.2-0.3-0.3-0.2-0.3c-2.1,1.5-6.1,0.2-7.7,0.8L88,44.1l-4.1,0.2l1.5,0.2c-0.5,2.5-3.1-1.6-6.1,0
			c-2.8-0.3-5.7,5.2-8.6,4c-1.4,1.2,1.2-1.9-0.9-1c-0.1-1.3,1-0.8,0.4-1.8c-2,0.6-3.3-1.3-5.9-0.5l-0.1-1c-3.3,1.9-6.2-1.3-8.4,0.4
			c-3.4,0.8-2.3-3-5.8-1l-1.4-1.4c-1.5-0.2-1.1,1.5-2.6,1.1c0,0.3,0,0.5,0.1,0.5c-0.3,0.6,0.3,0.9-0.2,1.2c-0.2,0.1-1.1,2-0.3,2.5
			c-0.7,1.1-1.9,7.5-1.9,9.5c0,0.2,0.1,1,0.5,3.8c-0.2,2.1-0.2,3.7,0.4,6.3l1.5-0.5c2.2-0.1,7.4-6.7,10.9-6.8c1.7-0.1,1.7,1,2.6,2.8
			l0,1.3c-1.3,0.9-2.9,1.2-4.1,2c0-0.2,0.1-0.4,0-0.6c-1.2,0.7-3.6,2.3-3.9,2.3c-0.3,0-0.6,0-0.8,0c-0.3,0-0.4,0.3-0.6,0.3
			c-0.3,0-0.6,0-1,0c-0.4,0-0.7,0.5-0.7,0.7C45.6,70,40.4,76.2,37,80.2c3.2,0.7,4.8,0.5,7.9,0.4c0.3,0,2.4-0.5,2.6-0.6
			c0.3,0,4.1,1.8,4.7,2.5c0,0,0.1-0.1,0.4-0.1c0.1,0.1,0.1,0.4,0.1,0.6c1.6,1.1,4.7,3,4.9,5.9l0,0.8c-1.5,0.9-0.5,2.5-2.2,2.5
			c-1.6,0.1-2.1-0.6-2.6-0.7c-0.8-1.4-2.2-1.3-3.5-1.4c-0.6-2-5.7-5.5-7.6-5.6c-1-0.5-3.8-2.3-5.1-3.8c-4.9,4.6-4.3,4.7-10.1,12.8
			c-2,1.2-5.8,3.4-7.3,4.9c-1.1-0.7,0.2-2.5-0.3-3.1c1.1-0.9,1.5-1.2,2.3-2.4c-0.1-0.1-0.2-0.4-0.3-0.4c0.7-0.3,0.9-0.7,1.1-0.9
			c2.4-1.2,4.9-3.8,6.2-6.2c0.8-1.4,3.7-5,5-6.2c3-3.2,6.1-7.2,8.7-8.9c0-1.3-1.2-2-1.9-2.3c0-2.5-0.2-4.2-0.5-6.6
			c-0.3-0.2-0.5-1.6-0.7-1.8c0.2-1.7,0.5-2.8,0.6-4.7c0.3-3.8,0.8-9.7,0.2-12.3c0.1-0.2,0.6-0.8,1.3-1.4c-2.6,0.4-5.4,1.3-8.7-0.2
			c-1.1,1.7-3.6,0.7-4.4,2c-0.1-0.7-5-0.1-2.2-1.7c0.2-0.1,0.7-0.1,0.6,0.2l0.3-1c-2.9-1.9-5.2,1-8,0.8c0.8,0.3,1.9,0.2,1.2,0.9
			c0,0-0.6,0-1.3-0.1c-0.2,0-0.8,0-1.3,0c-0.4,0-0.7,0.1-0.7,0.1l0.9-0.9c0,0-1.8,0-3.5,0.4c-0.9,0.3-1.7,0.6-2.3,1
			c-0.6,0.4-1,0.6-1,0.6l1.2,0.3c-0.8,0.4-1.5,0.7-2.1,1c-0.6,0.3-1.2,0.7-1.7,1.1c-0.6,0.4-1.1,1-1.5,1.8c-0.4,0.8-0.9,1.8-1.1,3.1
			c-0.3,2.4,2.4-2.9,0.9,1.3c-0.7,1.1-1.2,2.6-1.7,4.3c-0.2,0.8-0.3,1.8-0.5,2.7l-0.2,1.4l-0.1,1.2c-0.3,2.3-0.5,4.7-0.7,7
			c0.9-0.4,0.8,0.8,1,2l-0.8,0.1c1,4.7-1.6,1.7-0.8,6.4l-0.5-0.4l1.5,1.2c1.5,4.2-1.5,2.3,0.5,7c-0.1-1.9,1.6-0.9,1.3,1.4l-0.7-0.6
			c0.1,1.3,0.4,1.7,0.3,2.5c-0.4-0.8-1-0.4-0.9,1.5l-0.9-1.3l1.3,3.5c-0.8,2.7,0.2,7-0.8,8.2c0,0-0.5,5.8,0.6,7.2
			c-0.7-1.2-1,2.1-1.8,1.1c0.8,1.5,1.4,6,0.6,7.8L3,116.1c-0.4,3.3-0.1,6.2,0.1,8.9c0.1,1.4,0.3,2.7,0.3,4.1v1.2
			c0,0.6,0,1.3,0.1,1.9c0.1,1.3,0.1,2.6,0.3,4c0.3-0.4,0.7,0.8,1.1,1.8c0.5,1,1,1.7,1.2,0.8c2.2,4.1,4.6,7.3,7.2,8.9
			c2.6,1.6,5.4,1.4,5.7-0.9c2-0.2,2.4,1.1,3.5,1.3l-0.5,0.3c3.8-0.4,4.9-0.4,7.8-0.3c1.4-0.5,1.6-2.6,4.2-2.1
			c-0.8,0.9,0.2,0.7,1.2,0.7c-0.6,0.1-0.8,0.4,0.5,1c0.2-0.3,0.5-0.4,0.7-0.6c0,0.1,0.1,0.1,0,0.2c1.6-0.3,1.3-0.6,0.6-0.7
			c0-0.1,0-0.3-0.3-0.5c1.7,1.1,4.6-0.1,4.8,1.4c4.8-0.4,8.2-1.9,12.2-2.4c0.5,0.8-0.5,1.4-1.6,1.7l2.8-0.3c0,1.1-1.6,0.6-2.5,0.9
			c3.4,1.8,6.9-1.8,10.9-0.1l0.8-0.9l0.2,0.2c0-0.5,0.9-1.1,1.4-1.2c0.6,1,0,2.2,1.9,2.1c1.5,0.9,4.4-0.4,6.4-1
			c-1.1-0.2-0.7-0.7-0.3-1c1,0,1.5,0.9,2.3,0.5l0.1,1c0.1-0.9,2.6-1.1,2.9-1.6c0.6,0.9-1.5,0.8-1.8,1.5c3.9-0.1,1.9-0.1,5.9-0.2
			c2.1-1-0.4-1.2,0.6-2.4c1.8-0.2,3.6-1.1,5.7-0.4l-0.7-1.1c3.5-0.9,5.5-0.8,7.9,0.4c2.6-0.8,4.2-2.7,5.1-4.6
			c1.7-1.9,2.9-4.9,2.9-8.2v-2.1c1.2-2.5,2.7-7.4,4.5-15.4l0.3,0.3c0.7-7,0.8-11.4-0.6-16.2c1.7-0.8,0.2-5.8,0.7-7.4l0.1,0.1
			c-1.3-4.2,1.1-8.8-0.1-12.9c0.1,0.2,0.6,0.2,0.6,1.2C110.1,75.1,109.7,71.1,110.7,70.8z M10.1,57.1c0-0.5,1.8-1.3,1.9-1.5
			c1.4,0,6,3.6,6,5c0.4,0.5,0.6,1.3,1.1,1.2c0-0.6-0.1-1.4-0.1-1.9c-0.1-1.5-0.3-1.5,1.5-4.2c0-0.6,0-1.1,0.3-1.5
			c0.2-0.3,6-2.4,6.7-2.4c2.2-0.1,6.2,4.5,6.3,5.9c0.1,1.5-0.6,0.4-1.5,2.4c-1.2,2.7-0.3,5-0.9,5.5c0.5,0.1,1,0,1.6,0.6
			c-0.2,0.6,0.6,1.4,0.4,2.9c-0.8,0.4-7.2,3.5-8.3,3.5c-0.2,0-0.5-0.4-0.8-0.4c0.1,0,0.2-0.4,0.4-0.7c-0.2-0.2-0.5,0-0.9,0
			c-1.5,0.1-0.5-0.4-2.1-2.6c-0.2,0-0.9,1.5-0.9,2.1c0,0.3,0.3,0.4,0.7,0.8l0,1.1c-0.5-0.2-1-0.5-1.4-0.6c-0.1,0.1,0.1,0.4,0.2,0.8
			c-0.5-0.1-1-1.1-1.6-1C16,72.6,10.2,59.2,10.1,57.1z M91.6,61.1c0.2,0,0.6,0,0.9,0c0.1-0.1,0.2-0.2,0.1-0.2
			c1.3,0.4,1.9,1.5,2.8,2.2c0.8,1,0,2.7,0.8,4.3c0.1-0.1,0.6,0.1,0.8,0.1c0.2-0.1,0.1-0.2,0.3-0.2c0.2-0.1,0.1,0.1,0.3,0.1
			c0.4-0.1,0.8-0.4,1-0.4c0.4-0.1,0.8-0.7,1-1.1c0.2,0,0.3,0.2,0.5,0.2c0.2,0,0.3-0.2,0.5-0.2s0.2,0.1,0.3,0.1
			c1.1,0.3,3.1-0.5,3.5,1.2c0.2,0.6-0.7,0.4-0.4,1.3c-0.6,0.2-1.4,1-2.3,1.4c-1.5,0.2-3.7,0.9-5.2,1.1c-0.4,0.2-1.8-0.1-1.8-0.3
			c0-0.9-1.5-0.9-1.7-1.3c-0.2-0.5-0.3-2.1-0.9-3.2l-0.1,0.2L91.5,65C91.8,64.3,90.6,61.3,91.6,61.1z M71.9,69.3l0,0.6l-0.3,0.1
			l-0.1-0.8L71.9,69.3z M61,69.1c0,0.1,0.1,0.2,0.1,0.3c0.6-0.3,0.3-0.8,0.3-1.3c0.5-0.3,2.3-2.1,2.6-2.4c0.8-0.5,1.7-0.9,1.6-1.2
			c0.2,0,0.5-0.3,0.6-0.3c0.2,0,0.2,0.2,0.4,0.3c0.3-0.3,0.3-0.5,0.6-0.5c0.6,0,2,0.3,2.9,0.7c0.7,0.5-0.4,1.3,0.5,1.5
			c0,0-0.2,0-0.3,0c-0.5,0-0.2,0.2-0.4,0.5c0.2,0.1,0.3,0.1,0.4,0.2c0,0.1-0.1,0.2-0.1,0.2c-0.3-0.1-0.4,0-0.6,0
			c-0.2,0-0.8,0.3-1.2,0.5l-0.2-0.2L68,67.7l0,0.2c0,0,0.2-0.1,0.3,0l0.2-0.2l0.3,0c-0.1,0.2-0.4,0.5-0.7,0.5c-0.2,0,0-0.1-0.2-0.1
			c-0.3,0-1.1,0.6-1.1,0.8c0.1,0.1,0.2,0.1,0.3,0.1c0.9,0,2.6-1.6,2.6-1.6c0.2,0,0.3,0.3,0.4,0.4c0,0,0.6,0.8,1,1
			c0,0.3,0.1,0.9,0.1,1.3c0.1-0.1,0.2-0.1,0.3-0.1c-0.1,0.2-0.1,0.3,0,0.4c0.2-0.1,0.4-0.5,0.5-1c0,0.1,0.1,0.1,0.1,0.3
			c0,0.6-1.1,1.4-0.9,2.5c-0.9,0.9-1,2-1.9,2.4c-0.2,0.1-0.5,0.2-0.7,0.3c0-0.1-0.2-0.3-0.4-0.3C68,75.9,65.6,76,65.5,76
			c-0.2,0-0.1-0.2-0.3-0.2C65,75.9,65,76,64.9,76c-0.6,0-1.7-0.3-2.1-0.8c-0.1,0-0.1,0.1-0.2,0.1c-0.5,0-2.2-1.9-2.2-2.2
			c-0.1-0.4-0.2-1.6-0.2-1.8C60,70.7,60.4,70.2,61,69.1z M61.4,107.4c0.2,0.2-0.4,4.4-0.4,4.9c0,0.3,0,1.5-0.1,2.5
			c0,0.2,0.1,0.7-0.3,0.9c-0.2,0.2,0,1.6,0,1.8c-0.8,0.2,0.3,1.2,0.3,1.7c0.1,3.1,0,3.9,0.6,7.2c-0.7,0.2-1.3,1.1-1.8,1.3
			c-0.1-0.2-0.3-0.4-0.6-0.4c-0.2,0-1.3,0.4-1.6,0.4c-0.2,0-0.5-0.1-0.7-0.1c-0.5,0-2.1,1.3-2.2,1.4c1.4,0.3,6.6,1.7,7,4.1
			c0.1,0.9-0.8,1.6-0.3,2.4c-0.2,0.2-0.6,0.9-1.1,1c0.3,0.3,0.4,0.7,0.4,1c0.1,2.6-3.4,4-5.3,4.9c-1,0-2.4-0.4-3.5-0.2
			c-0.1-0.2-0.5-0.4-0.8-0.4c-0.3,0-0.1,0.2-0.4,0.2c-0.3,0-0.5-0.3-0.7-0.4c-0.2,0-6.3-1-6.4-3.4c0-1,1.5-4.3,1.8-4.8
			c3.8-2.1,8-6.2,12.4-9.5c0-1.3-0.2-3.4-0.4-4.5c-0.1-0.3-0.3-3.1-0.3-3.3l0-1c-1.6,0.4-3.2,1.1-3.6,1.1c-1.5,0.2-1.4,0.2-2.5,0.2
			c-0.2,0.1-0.4,0.3-0.6,0.7c-0.4,1.4-0.1,1.2,0.5,2c-0.1,1.1-0.2,2.9-0.2,3.3c0.2,0.2,0.3,0.4,0.5,0.5c-0.5,0.3-1,1.1-1.6,1.2
			c-0.2,0-0.3-0.2-0.5-0.2c-0.3,0.1,0,0.2-0.3,0.3c-0.2,0-0.3-0.2-0.6-0.2c-0.2,0-0.9-0.2-1.2-0.2c-1.7-2.4-3.8-3.1-5.2-4.7
			c-3.3,3.8-4,6.1-7.6,8.1c-0.3,0-0.8,0.2-1,0.3c-0.2,0-0.3-0.2-0.5-0.3c0.3,0.1,0.8-0.2,1.2-0.5c-0.5-0.3-1-0.5-1.5-0.8l0.4,0
			c-0.1-0.2-0.3-0.3-0.6-0.4c0.4-0.4,0.6-0.7,1-1.1c-0.2-0.3-0.4-1.3-0.6-1.6c0.8-0.5,1,0,0.9-0.8c0.9,0.2,6.1-8.7,6.9-10
			c-1.6-0.5-4.6,1.1-5.8,0.3c-1-0.6-0.7-1-1.3-0.9c-0.2-0.1,0.1-1.8-0.2-2.1c0-0.1,0.3-0.1,0.3-0.2c0-0.1-0.1-0.3-0.1-0.4
			c0.7-0.2,2.3-0.4,2.5-0.4s4.1-1,5.7-1.8c3-1.8,2.7-1.8,4.7-2c1-0.1,1.5,0.8,2.5,1.4l-0.4,0.4c0.9,0.1,1.3,0.8,1.9,0.8
			c0,0.1-0.1,0.4-0.1,0.6c-0.7,0.1-1.2,1.2-1.1,1.2c-0.2,0.1-0.4,0-0.4,0c-0.4,0.3-1.4,1.1-1.7,1.5c-1.6,1.9-2.6,4.4-4.1,6.5
			c0.2,0.2,0.6,0.4,0.7,0.3c0.1-0.1,0.8-0.6,1.1-0.6l3.7,0.5c1-0.9,2-2,2.5-2.5c-0.2-1,0.5-1.7,1.2-2.6c0.1-0.1,0.9,0,1,0
			c1.4-0.5,2.9-1.4,4-2.5c0.1-1.1,0.2-2.3,0.3-3.6c0.1-0.2-0.2-0.5,0.1-1.1c0-0.1-0.3-0.8-0.4-0.8c0.3-1.2,0.6-3.5,0.6-3.7
			c0-0.5,0.7-2.9,0.7-3.1c0-0.2,0.5-1.7,1.1-1.8c0.1-0.1,0-0.3,0-0.5l0.8,0c0.3,0,0.4,0.1,0.6,0.1c3,0.3,2.3,3.1,2.4,3.1
			c0.2,0,0.3,1,0.5,1C62.6,102,61.9,103.9,61.4,107.4z M62.8,91.4c-0.1,0-0.3-0.1-0.5-0.1c-0.1,0-0.1-0.1-0.2-0.2
			c0.1,0,0.2-0.1,0.3-0.2c0,0-0.1-0.2-0.2-0.2c-0.2,0-1.2,0.4-1.4,0.4c-0.1,0-0.3-0.1-0.6-0.2c0-0.7,0.5-1.4,1.7-1.2
			c-0.1-0.2-0.5-0.3-0.5-0.4c0-0.2,0.9-0.9,0.9-1c0.2,0,0.2,0.1,0.4,0.1c0.2,0,0-0.1,0.2-0.1c0.2,0,0.3,0.2,0.5,0.2
			c0.8,0,4.2-3.1,4.4-3.3c4.3-4.9,3.3-3.5,5.4-6c2.1-2.6,4-3.1,4.6-4.2c-0.1-0.4-0.7-6.4-0.7-8L77,64.1l0.5-4.6
			c-0.2-0.5-0.5-1.6-0.5-1.9c0-0.3,0.2-1.1,0.6-1.1c1.8,0,3.7,1.4,3.8,3.3c0.1,1.6-1.2,2.7-1.2,3.7c-0.2,0.8-0.1,1.9-0.2,2.7
			l0.1,1.5c0.1,0,0.2,0.3,0.3,0.3c-0.1,0.2,0.1,0.8-0.2,1c0.1,1.3-0.2,2,0.1,3c0,0.1-0.2,0.2-0.3,0.2c0,0.1,0.2,0.1,0.3,0.2
			l-0.3,0.2c0.2,0.2,0.4,0.5,0.2,0.8c0.1,0.1-0.1,0.1,0.2,0.1c0.2,0,0.3-0.1,0.3-0.1c0,0.1,0.1,0.2,0.1,0.4c0,0-0.3,0.6-0.1,1.4
			l0,0.9c-0.1,0.2-0.3,0.4-0.5,0.4c-0.1,0,0,0.2,0.1,0.3l-0.2,0.2c-0.4-0.1-0.8-0.5-1.7-0.5c-0.2,0-0.6,0.1-1.3,0.4
			c-2.5,2.4-4.2,4.3-5.5,6.7c0.1,0,0.1,0,0.3,0c0.8,0,0.7-0.7,1.7-0.7c0.2,0,0.3,0.3,0.4,0.3c0.2,0,0.2-0.1,0.3-0.1
			c0.1,0,0.3-0.1,0.5-0.1c0.4,0,0.8,0.5,0.8,0.5l0.4,0c0.6,0,1-3,0.9-3.4c-0.1-0.3,0.6-0.8,0.9-0.7c0.1,0,0.2,0.2,0.4,0.1
			c0.1,0,0.2-0.3,0.7-0.2c0.1,0,0.7,0.4,1.2,1c0.1,0.3,0.1,0.8,0.2,1.2c-0.6,0.3-2.4,3.8-2.3,4c0,0.3,0.4,0.2,0.4,0.2
			c0.2,0,0.8-0.2,1.1-0.2c0.1,0,0.4,0.2,0.6,0.2c0.2,0,1.1-0.2,1.2-0.1c0.4,0,0.6,0.6,0.8,0.6c0.1,0,0.2-0.1,0.4-0.1
			c0.8,0,3.3,2.1,2.6,2.5c0.4,0.3,0.8,0.5,1,0.9c-0.3,1.3-2,0.6-2.9,0.6c0,0-0.2-0.1-0.2-0.4c-0.2,0-2.5-0.7-2.9-0.7
			c-0.1,0-0.4,0.1-0.6,0.1c-0.1-0.5-0.4-0.4-0.7-0.5c-0.2,0-0.5-0.1-0.8-0.2c0.3-0.2,0.6,0,1-0.6c-0.6-0.6-1-0.6-1.3-1.3
			c-0.4,0-0.4,0.4-0.5,0.5c-0.3,0.3-0.9,0.9-1,1.3l-1.4,1.2c0.2-0.4,1.6-1.8,1.8-2.3c0,0-0.1,0-0.2-0.2c-1.2,1.4-2.2,2.8-3.2,3.7
			c-0.2,0.1-0.5,0.3-0.7,0.3c-0.2,0-0.7-0.1-1-0.2c-0.1-0.3,0.3-0.6-0.2-0.9l0-0.3c0.1,0,0.3-0.1,0.5-0.1c0-0.1,0-0.2,0-0.4
			c0-0.2,0.1-0.4-0.3-0.6c0.1-0.4,0.5-0.5,0.7-0.5c0.2,0,0.6,0.1,0.8,0.1c1,0,2.2-2.8,2.2-2.8c0,0-0.1,0-0.1-0.2l-0.2,0.2
			c-0.1-0.1-0.2-0.3-0.4-0.3c-0.1,0-0.3,0.1-0.5,0.1c-0.1,0-1.1-0.5-1.6-0.5c-0.6-0.1-0.9-0.6-0.9-0.6
			C70.3,84.3,65.9,91.4,62.8,91.4z M76.1,118.5c-0.6,0.7-7.1,7.5-7.5,7.5c-0.2,0-0.3-0.4-0.7-0.4c-0.3,0-0.4,0.3-0.6,0.5l-0.2-0.3
			c-0.1,0.2-0.2,0.3-0.2,0.4c-0.9-1.1-1.2-0.5-1.3-1.6c-0.2-5,3.5-4.7,5.8-7.8c-0.6,0.1-0.4,0.3-1.1,0.2c1.4-1.1,3.5-2.1,3.5-3.9
			c-0.4,0-0.7-0.5-0.9-0.5c-0.2,0-3.4,0.6-3.7,0.4c-1.9-0.9-2.4-1.7-2.8-3.3c0.2-0.6,1.2-1.3,1.3-1.3c0.3,0,0.1,0.1,0.5,0.1
			c0.1-0.1,1.8-1.3,2.1-1.3c0.4,0,0.1,0.1,0.4,0.1l4.2-1.7c0.3,0,0.1,0.1,0.4,0.1c1.5-0.1,2.5-2.8,3.6-2.8c1.4-0.1,4.7,2,4.8,3.5
			c0,0.4-4.2,6.2-5.7,9.1c0.2,0.2,0,0.3,0.4,0.3c0.3,0,0-0.3,0.4-0.3c0.3,0,0.7,0.4,1,0.4c0.4,0.1,0.5,0.5,0.7,0.6
			c1.5,0.3,4.3,1.6,4.9,1.8c0.1,1.4,0.2,1.4,0.2,2.2c0,0.4-1,2.7-1.9,2.7l-1.7,0.1C80.8,121.9,76.5,119,76.1,118.5z M97.2,135.2
			c-0.7,0.2-0.7,1-0.9,1.1c-3.9,0.9-5.1,1.9-8.1,1.9c-0.3,0-0.2-0.1-0.4-0.1c-0.3,0-0.1,0.2-0.4,0.2c-0.3,0-2.2-0.4-2.4-0.4
			c-0.3,0-0.1,0.3-0.4,0.3c-0.2,0-1-0.5-1.2-0.5c-0.2,0-0.3,0.3-0.7,0.4c-0.3,0-1.4-0.4-1.7-0.4c-0.2,0-0.3,0.1-0.4,0.4
			c-0.2-0.2-0.4-0.3-0.6-0.5c-1.5-0.3-1.7-1.6-1.7-2.6c0-0.2,1.5-2.4,1.6-2.7c0.6-0.1,1-0.6,1.3-0.8l0.3,0.2c1.8-2.1,9-8.4,9-8.8
			c0.2-0.3,0.1-1.2,0.1-1.2c-0.2-0.7,0-1.3-0.1-2.1c-0.5-2-0.6-2.7-0.7-4.5c0.4-2.4-0.2-6.8-0.1-8.6c0-0.3,0.2-1.3,0.2-2.4
			c0.3-0.2,1.2-1.2,0.1-1.6c0.1-0.7,0.6-2.7,0.8-3.7c0-0.3-0.6-1.2-0.6-1.5c0-0.3,0.5-1,1.6-1c0.3,0,1.4,0.2,1.8,0.3
			c0.3,0,1.5,1.2,2.8,1.7c0.5,2,0.7,1-0.4,3.4l-0.3,1.4c-0.2,0-0.5-0.5-0.6-0.5c-0.4,0.4,0.4,1.5,0.4,2.1c-0.1,0-0.3-0.2-0.4-0.2
			c-0.5,1.2,0.2,1.3,0.2,1.6l0,0.8c-0.1,0.1-0.5,0.1-0.6,0.1c-0.2,0.5-0.2,1-0.2,1.6c-0.4,0.4-0.6,1-1.2,1.3
			c0.1,1.5-0.6,3.5-0.7,4.7c0.5,0.2,1.2,0.1,0.5,0.7l0.7,0.1c-0.2-1.5,0.2-3,0.2-4.4c0.3,0.5,0.5,0.2,1-0.3c0,0.9,0.2,1.2-0.6,1.5
			c0,0.3,0.1,0.3,0.3,0.4c-0.2,0.3-0.4,0.4-0.5,0.8c0.1,1.2,0.3,3.7,0.7,4.8c-0.2,0-1-0.5-1,0.3c0,0.4,0.3,1.3,0.9,1.3
			c-0.2,0.1-0.8,0.4-0.8,0.8c0,1.1,1.1,1.9,1.5,2.3c0.2,0.9,0.5,1.3,0.1,2.1c-0.3,0.1-0.5,0.5-0.7,0.8c-0.2-0.2-0.5-0.4-0.8-0.3
			c-0.2,0-0.5,0.3-0.5,0.4c-0.2-0.1-0.1-0.1-0.4,0c-0.3,0-1.2,0.4-1.4,0.4c-0.3,0-0.4-0.2-0.6-0.2c-1.5,0.8-3.2,3.1-4.5,4.3
			c-0.1,0.2-0.3,0.4-0.5,0.6c-0.3,0.1-1.1,0.8-1,1.3c0.1,0.1-0.1,0.2,0.2,0.3c0.2,0,0.4-0.4,0.7-0.4c0.3,0,0.4,0.3,0.7,0.2
			c0.6,0,3.7-0.2,4-0.6c0.1,0.2,0.6,0.1,0.8,0.1c0.3,0,0.2-0.2,0.5-0.2c1,0,3.2,0.3,4,0.6c0.2,0.6,0.4,1.5,0.8,2.1l-0.4,0.2
			c0.1,0.1,0.4,0.1,0.6,0.3C97.2,134.7,97.1,135,97.2,135.2z M94.9,107.9l0-0.5l0.2,0l0,0.5L94.9,107.9z M95,109.2l-1,0.9l0-0.6
			l1-0.9L95,109.2z M95.3,119.6l0.2,1l-0.4,0.5l-0.4-0.8L95.3,119.6z M100.2,79c-0.4,0-3.7,3.1-3.9,3.4c0.1,0.1,0,0.1,0.2,0.1
			c0.4,0,1.5-0.6,2.3-0.6c0.2,0,0.2,0.1,0.2,0.1l0.2-0.2c0,0.1,0.1,0.3,0.3,0.3c0.2,0,0.7-0.3,0.9-0.3c0.1,0,0.5,0.3,0.8,0.3
			c0.2,0,0.1-0.1,0.4-0.1c0.2,0,2.2,1.2,2.9,1.6c0,0.4,0.2,1.2,0.2,1.4c0,0.2-0.2,1.2-0.3,1.3c-0.3,0.1-1,0-1.4,0.1
			c-0.2,0.1-0.6,0.4-0.8,0.4c-0.2,0-0.5-0.2-0.7-0.1c-0.2,0-0.5,0.2-0.7,0.2c-0.2,0-1.2-0.2-1.4-0.2s-1.7,0.6-1.9,0.6
			C96,87.4,95,87,94.8,86.7c-0.1-0.3-0.3-0.3-0.6-0.5c-0.8,0.1-1.8-2.6-1.8-2.9c0-0.6,2.5-2.7,2.9-2.7c0.2,0,0.2,0,0.4,0.1
			c0.3-0.7,1.4-1.8,2.1-2.2c0.8-0.5,1.3-1.7,2.3-2.6c-0.2-0.2-1.3-0.1-1.8-0.1c-2.5,0.1-3.7,1-4.5,1.1c-0.2,0-0.1-0.1-0.3-0.1
			c-0.2,0-0.8,0.4-1,0.4c-0.2,0,0-0.1-0.2-0.1s-0.1,0.1-0.1,0.2c-4.2,1.3-5.7,1.1-8.8,1.6c-0.2-0.3-1.6-0.9-1.6-1.1
			c0-0.2,0.1-0.8,0.1-0.8c0.1,0.2,0.2,0.2,0.5,0.3c-0.1-0.2-0.3-0.4-0.3-0.7c0-0.2,0.1-0.2,0.1-0.3c0.1,0,0.1,0.1,0.3,0.1
			c0.2,0,0.3-0.2,0.2-0.3c0.1,0,0.2,0.2,0.4,0.2c0.2,0,0.2-0.1,0.4-0.2c0.1,0.2,0.2,0.3,0.4,0.3l4.4-0.2c1.1,0,9.9-2.8,12.8-2.9
			c0.2,0,0.5,0.2,0.7,0.1c0.2,0,0.2-0.2,0.2-0.2l0.2,0.2c0.2-0.1,0.6-0.3,0.8-0.3c0.2,0,0.3,0.2,0.5,0.2c0.2,0,0.1-0.2,0.3-0.2
			c0.2,0,0.3,0.2,0.5,0.3c0.2,0.1,0.6,0,0.9,0.2c0.8,0.4,1,1.9,1.1,2.4c-0.7,0.4-1.5,1-2.3,1.5c-0.7,0.4-1.4,0.5-2,0.8
			c-0.4,0.1-1.6,1-1.8,1C100.1,79.2,100.4,79,100.2,79z"/>
		<path class="st1" d="M21.6,66.9c0.8-0.2,0.7-0.8,1.5-0.9c0.6-2.5,2.1-2.6,2.1-4.8c0-0.3-1.6-2.2-2.6-2.2c-0.4,0-2.1,1-2,1.7
			c0.7,0.5,0.2,3.3-0.2,4.2C21.1,65,21.3,66.5,21.6,66.9z"/>
		<path class="st1" d="M51.7,131.1c-0.2,0-3.9,2.4-3.9,3.1c0,1.1,2.2,1.7,3,1.7c0.3,0,0.4,0.1,0.7,0.1c0.3,0,0-0.2,0.3-0.2
			c0.3,0,0.7,0.4,0.8,0.3c0.6,0.2,0.9,0.3,1.2,0.2l0.5,0c0.4-0.6,0.6-1.2,0.6-1.5c0-0.3-0.8-1.4-0.8-2.1
			C53.7,132.5,52,131.1,51.7,131.1z"/>
	</g>
	<polygon class="st1" points="52.7,130.9 52.9,130.1 51.9,130.9 51.9,131.1 	"/>
	<g>
		<path class="st2" d="M192.1,101.6c0.3,0,0.4-0.1,0.6-0.2c0,0,0,0,0,0c-0.1,0.2-0.3,0-0.2-0.2c-0.1-0.1-0.2-0.1-0.3-0.2
			C192.2,101.1,192.2,101.3,192.1,101.6z"/>
		<path class="st2" d="M190.9,100.7c-0.8,0.4-1.9,0.5-2.4,1.2h-0.2c-1,0.3-1.8,0.8-2.4,1.4c0,0.2-0.1,0.2-0.2,0.2
			c-0.9,1-2.6,1.3-3.8,2c0,0.1-0.1,0.1-0.1,0.1c0.2-0.1,0.4-0.2,0.6-0.2c0-0.1,0-0.2,0.2-0.2v0.2c0,0.1,0.1,0.2,0.1,0.4
			c0.3-0.2,0.7-0.3,1.3-0.3h0.2c0.5,0.7,1.5-0.1,1.9-0.2h0.2c0.7-0.2,0.3-0.4,0.2-1V104c0.3-0.6,1.6-1.1,2.2-0.7c0,0.3-1,0.7-0.2,1
			c-0.1-1.5,2.7-3.6,3.5-3.3c0,0-0.1-0.1-0.1-0.2c-0.2-0.1-0.3,0.1-0.5,0.1v-0.1c-0.1,0-0.1-0.1-0.2-0.2c0,0-0.1,0-0.1,0.1H190.9z"
			/>
		<path class="st2" d="M225.4,137.9c0,0.1-0.1,0.2-0.3,0.2H225c-0.1,0.1-0.6,0-0.6,0.3c-0.2,0,0.1-0.1,0-0.3h0.1
			c-0.1-0.3,0.3-0.1,0.2-0.3v-0.4v-0.2c-0.1-0.2-0.3-0.2-0.3-0.4c-0.2-0.2-0.4-0.3-0.5-0.6c-0.2-0.1-0.5,0.1-0.3,0.2v0.1
			c0,0.2,0.3,0.1,0.3,0.3c0,0.2,0.2,0.2,0.2,0.4c0.2,0.2,0.1,0.8-0.2,0.8c0,0.1,0,0.2-0.2,0.2c0,0.1-0.1,0.2-0.2,0.2
			c-0.3,0.2-0.4,0.6-0.8,0.6c-0.3,0.1-0.6,0.2-0.8,0.4h-0.1c-0.5,0.3-1.2,0.8-1.7,0.8c0,0.4,0.3,0.1,0.6,0.1c0.1,0,0.1-0.1,0.2-0.1
			c0-0.1,0.2-0.1,0.3-0.1c0,0.2-0.3,0.2-0.4,0.3h-0.1c-0.2,0.1-0.3,0.2-0.5,0.2h-0.1c-0.3,0.3-0.6,0.5-0.9,0.8
			c-0.2-0.1-0.4-0.1-0.5-0.2h-0.1c-0.3,0.2-0.6,0.3-1,0.4c0,0.1-0.1,0.2-0.2,0.2c-0.1,0.2-0.3-0.1-0.4,0.1c0,0.1,0,0.2-0.2,0.2
			c0,0.1-0.2,0.1-0.3,0.1c-0.1,0-0.1,0.1-0.2,0.1c0,0.1-0.1,0.2-0.3,0.2h-0.1c-0.6,0.3-1,0.4-1.7,0.7c-0.5,0.2-0.9,0.5-1.4,0.6
			c-0.2,0.1-0.5,0.3-0.8,0.2c0-0.2,0.2-0.1,0.2-0.2h0.1v-0.1c0.1-0.1,0.3-0.3,0.1-0.5c-0.2,0.1-0.4,0.3-0.7,0.4
			c0,0.2,0.3,0.5,0.1,0.6c-0.2,0-0.1,0.3-0.4,0.3c-0.4,0.1-0.7,0.3-1.1,0.4h-0.2c-0.6,0.1-1.6,1.1-2.1,0.6h0.1v-0.1
			c0.2-0.1,0.2-0.6-0.1-0.3v0.1c-0.2,0.4-0.5,0.2-0.8,0.1v-0.3h-0.1c-0.2,0.1-0.5,0.1-0.5,0.4v0.1c-0.1,0.2-0.4-0.1-0.7,0H206
			c-0.3,0.3-1.1,0.4-1.7,0.7v0.1v0.2c-0.1,0-0.2,0.1-0.3,0.2c-0.1,0-0.2,0.1-0.3,0.1v0.1c-0.1,0.2-0.6,0.2-0.7-0.1
			c-0.2,0-0.4,0.2-0.2,0.4v0.2c0.2,0,0.1,0.2,0.3,0.2c0-0.1,0-0.2,0.2-0.2c0.2,0,0.1-0.2,0.3-0.2c-0.1,0.1-0.1,0.2-0.2,0.3
			c0,0.1,0.2,0.1,0.2,0.1v0.2c-0.1,0-0.1,0-0.2,0.1h-0.1c0,0.1-0.1,0.1-0.2,0.1c-0.4-0.2-1.3,0.6-1.7,0h0.1v-0.2
			c-0.3,0-0.6,0-0.6,0.3c-0.4,0.1-0.5-0.1-0.9-0.1H200c-0.1,0.2-0.2,0.5-0.4,0.2h-0.2c-0.1,0.1-0.5,0.4-0.7,0.2
			c-0.1,0-0.1,0.1-0.2,0.1c-0.1,0.1-0.2,0.2-0.4,0.2c-0.2,0.1-0.3,0-0.3,0.2c-0.2,0.2-0.7,0.2-1.1,0.3c-0.2,0.1-0.3,0.3-0.6,0.2
			c0,0.1-0.2,0.1-0.3,0.1c-0.5,0.3-1.2,0.4-1.8,0.6c-0.2,0.2-0.3,0.4-0.8,0.3c-0.1,0.3-0.5-0.1-0.2-0.2c0.2-0.4,0.1-1,0.7-1
			c0.2-0.1,0.4-0.2,0.3-0.6v-0.2c-0.2-0.1,0.1-0.4,0.1-0.6v-0.4v-0.1c-0.1,0-0.2-0.1-0.2-0.3h0.1c0-0.2,0.2-0.2,0.1-0.4
			c0-0.2,0-0.4,0.2-0.4c0.1-0.1,0.3-0.1,0.4-0.2c0.1-0.3-0.1-0.5-0.1-0.8c-0.1-0.1-0.4-0.4-0.2-0.5v-0.3c0-0.2,0.1-0.2,0.1-0.3
			c-0.1-0.4,0.4-0.4,0.5-0.7v-0.1c-0.1,0-0.1-0.3-0.2-0.3c-0.1-0.2,0.1-0.2,0.1-0.4c-0.1-0.1-0.2-0.1-0.2-0.2V142
			c0-0.2-0.1-0.6,0.1-0.7c0-0.1,0-0.2,0.1-0.2V141v-0.5c0-0.3,0.2-0.3,0.3-0.4c-0.1-0.4,0.1-0.7,0.2-1c-0.1-0.2-0.6-0.9-0.2-1.2
			v-0.1c0.1-0.2-0.2-0.3,0-0.4v-0.3c0-0.1,0.1-0.1,0.2-0.1v-0.2c0-0.1,0-0.3,0.1-0.3v-0.1c0-0.2-0.1-0.6,0.1-0.6
			c0.1-0.4-0.4-0.7-0.3-1.3c0.1,0,0.1-0.1,0.3-0.1c0.1,0,0.1-0.2,0.1-0.3V134c-0.1-0.1-0.4-0.3-0.2-0.4v-0.1c0-0.1-0.1-0.5,0.1-0.5
			c0.1-0.2,0-0.5,0.2-0.7c0.1-0.1-0.1-0.4,0.1-0.4v-0.1c0-0.2-0.1-0.6,0.1-0.7v-0.1c0-0.2-0.1-0.4-0.3-0.5c0-0.2,0.1-0.3,0.3-0.3
			c-0.1-0.3,0.2-0.2,0.1-0.4c0-0.4,0-0.8-0.1-1c-0.1,0-0.2-0.1-0.2-0.3c-0.1-0.1-0.3-0.1-0.2-0.4c0-0.3-0.3-0.4-0.2-0.8
			c0.2-0.1,0.4-0.2,0.6-0.3v-0.3c-0.1,0-0.1-0.2-0.1-0.3v-0.2c0.1-0.3,0.2-0.6,0.2-0.9c-0.1,0-0.1-0.2-0.1-0.3
			c0-0.2-0.1-0.3-0.1-0.6c0.3,0.1,0.3-0.2,0.3-0.4c-0.1,0-0.1-0.3-0.2-0.3c-0.1-0.2-0.1-0.8,0.1-0.9c0.1-0.4-0.1-0.5-0.1-0.8
			c-0.1-0.2,0.2-0.2,0.2-0.3h0.1v-0.1V121c-0.2-0.2-0.5-0.4-0.6-0.7c0-0.2,0-0.5,0.2-0.4c0-0.1,0.1-0.2,0.2-0.2
			c0-0.1-0.1-0.4,0.1-0.4v-0.2c-0.1,0.1-0.1-0.5,0-0.4v-0.2c0.1-0.2-0.2-0.4,0-0.5v-0.2c0.1-0.3-0.3-0.4-0.1-0.6v-0.1
			c0-0.2-0.1-0.2-0.1-0.3c0.1-0.4,0.1-0.5,0-0.9c-0.2-0.2,0-0.6,0.2-0.6c0-0.1,0-0.1,0.1-0.2v-0.5c0-0.4-0.1-0.5,0-0.8v-0.2
			c-0.2,0-0.2-0.5-0.1-0.6V113c0-0.2-0.2-0.2-0.3-0.3v-0.3c-0.1-0.1,0-0.4,0.1-0.5v-0.1c0-0.2-0.1-0.2-0.1-0.3v-0.1
			c-0.2,0,0-0.3-0.1-0.4c-0.1-0.2-0.2-0.2-0.2-0.4c-0.1,0-0.1-0.4,0-0.4V110c-0.1-0.1-0.1-0.1-0.1-0.3c-0.2,0,0-0.3-0.1-0.4
			c-0.3,0-0.2-0.3-0.3-0.4c-0.1,0-0.2-0.1-0.2-0.2c-0.2,0,0-0.4-0.1-0.6c0.4,0.1,0.3-0.2,0.6-0.2c0-0.1,0.4-0.1,0.4,0h0.2
			c0,0,0.1,0.1,0.2,0.1c0,0,0.1,0.1,0.1,0.1v0h0.1c0.2,0.1,0.4,0.2,0.6,0.2c-0.1-0.2-0.3-0.3-0.5-0.4c0-0.3-0.2-0.7-0.1-1
			c-0.6,0-0.3-1.1-0.9-1.1c0-0.3-0.1-0.8,0-1.2c-0.4-0.1-0.5-0.3-0.6-0.6c0-0.1,0-0.1,0-0.2c-0.1,0.1-0.2,0.2-0.3,0.2
			c-0.4,0-0.6,0.2-0.7,0.5c-0.4,0-0.8,0-1,0.2c-0.8,0.2-1.6,0.5-1.9,1.2c-0.7,0.7-1.6,1.1-2.4,1.7c-0.4,0-0.6,0.2-0.7,0.5
			c-1.1,0.3-1.8,0.9-2.6,1.4c-0.3,0-0.4,0.1-0.5,0.2c-0.8-0.1-1,0.3-1.2,0.7c-0.1,0-0.3,0-0.2,0.2c-0.7,0.2-1.3,0.5-1.8,0.8
			c0,0.2,0,0.3-0.2,0.4v0.2c0.1,0,0.1,0.1,0.1,0.2c-0.2,0-0.4,0-0.3,0.3c0,0.1,0,0.3-0.1,0.3c0.1,0,0.3,0.3,0.1,0.3
			c0,0.3-0.2,0.5-0.2,0.8c0.2,0.1,0.3,0.6,0.1,0.8c-0.2,0.3-0.3,0.6-0.1,1c-0.2,0.2-0.4,0.5-0.5,0.9c-0.1,0.2,0.1,0.6-0.1,0.6
			c0,0.1,0,0.2-0.1,0.2v0.1c0.1,0,0.1,0.1,0.3,0.1c0.2,0,0.3,0.1,0.3,0.2c0.1,0.5,0,0.9-0.2,1.2v0.1c0.2,0.3,0.2,0.8,0.5,1
			c-0.1,0.1-0.4,0.1-0.3,0.4c-0.2,0.1-0.3,0.3-0.2,0.7c0.3,0.2,0.2,0.4,0.1,0.7c0.1,0.1,0.2,0.2,0.3,0.3v0.2c0,0.1,0.1,0.4-0.1,0.4
			v0.4c0.2,0.1,0,0.5-0.2,0.5c0,0.3,0.1,0.5,0.2,0.7v0.3c0,0.1-0.1,0.2-0.2,0.2c-0.1,0.3,0.2,0.4,0,0.6c-0.1,0.2,0.1,0.2,0.1,0.4
			v0.1v0.2c0.1,0.1,0.1,0.3,0.2,0.5h0.2c0.1-0.4,0.3,0.3,0.1,0.3v0.1c-0.1,0.2-0.1,0.4-0.3,0.4v0.1c0,0.1-0.2,0.1-0.2,0.2
			c0,0.2,0.2,0.2,0.2,0.3c0.1,0,0.1,0,0.1,0.1c0.1,0,0.1,0.5,0,0.4c0,0.1,0,0.3-0.1,0.3c0,0.1,0,0.1-0.1,0.1c0,0.2-0.2,0.1-0.2,0.4
			c0,0.1,0.1,0.1,0.1,0.2c0.1,0.1,0.4,0,0.3,0.3c0.3,0.1,0.1,0.4-0.1,0.4v0.1c-0.1,0.3-0.2,0-0.4,0.2v0.1c0,0.1,0.1,0.4-0.1,0.4v0.1
			c0.1,0.4-0.4,0.4-0.2,0.8c0,0.1,0.1,0.1,0.1,0.2c0,0.3-0.1,0.5-0.2,0.8c-0.1,0.1-0.2,0.3-0.3,0.3v0.2c0.2,0,0.1,0.4,0,0.4h-0.1
			v0.2c0.1,0,0.2,0.1,0.2,0.2c-0.1,0.4-0.2,0.6-0.3,0.9c-0.4,0.3-0.4,0.7-0.4,1.2c0,0.1,0.1,0.2,0.1,0.3v0.2c-0.2,0.2-0.2,0-0.4,0
			c0,0.4-0.2,0.4-0.2,0.8c0,0.1,0,0.3-0.1,0.3v0.1c-0.2,0.1,0,0.6-0.2,0.7v0.2c0.1,0.2-0.2,0.2-0.2,0.2v0.1c0,0.1-0.1,0.2-0.2,0.2
			v-0.1h-0.1c-0.1,0.1-0.5-0.1-0.5,0.1c0,0.1,0.2,0.3,0,0.3c-0.1,0.2-0.3,0.3-0.4,0.2c-0.1,0-0.1-0.1-0.2-0.1c0,0.1,0,0.2-0.1,0.2
			c0,0.2-0.1,0.4-0.3,0.4c0,0.1,0,0.1-0.1,0.1c-0.1,0.1-0.2,0.4-0.4,0.5v0.1c-0.2,0.2-0.4,0.4-0.7,0.2c-0.1,0.2-0.2,0.3-0.3,0.5
			c0,0.3-0.2,0.3-0.4,0.2c0,0.2-0.4,0-0.4,0.2v0.1c-0.1,0.1-0.1,0.2-0.2,0.3c-0.1-0.2-0.4-0.2-0.6-0.1c0,0.1,0,0.2-0.1,0.2
			c0.1,0.2-0.1,0.2-0.1,0.4c-0.2,0.3-0.4,0.6-0.9,0.7H172c0,0.1-0.1,0.2-0.2,0.3c0,0.1,0,0.1-0.1,0.2c-0.1,0.4-0.4-0.1-0.7,0.1
			c0,0.1,0,0.3-0.1,0.3c0,0.1,0,0.1-0.1,0.1c-0.1,0.2-0.3,0.3-0.5,0.4c-0.2,0.2-0.6,0.2-0.7,0.5c-0.2,0.1-0.7,0.4-0.8,0.3
			c-0.1,0.1-0.2,0.1-0.4,0.1c0,0.2-0.2,0.2-0.4,0.2H168c0,0.2-0.3,0-0.4,0.1c-0.1,0-0.1,0.1-0.2,0H167c-0.7,0.8-2.1,1-3.2,1.2
			c-0.1,0-0.2,0-0.2-0.1c-0.1,0-0.2,0.1-0.2,0.2c0,0.1,0,0.1,0.1,0.1c0.1,0,0.2,0,0.3-0.1h0.1c0-0.1,0.2-0.1,0.2,0
			c0,0.1,0,0.2-0.1,0.2v0.2c0,0.1-0.1,0.2-0.2,0.2c-0.1,0.3,0.4,0.2,0.2,0.4c-0.5,0.1-0.4-0.3-0.8-0.3c-0.1,0-0.2,0.1-0.3,0.1
			c-0.2,0-0.3,0.2-0.4,0.1c-0.2,0-0.2,0.1-0.3,0.1h-0.1c-0.4-0.4-1.1-0.5-1.6-0.1c0.1,0,0.1,0,0.1,0.1v0.1c0.3,0.1,0.6-0.2,0.8,0
			c0.2,0,0.3,0,0.4,0.1c0.2,0.2,0.2-0.1,0.5,0h0.1c0.4,0.3-0.4,0.4-0.8,0.3c-0.1,0.1-0.2,0.1-0.3,0c-0.5-0.1-0.6,0.3-0.8,0
			c0.1,0.2-0.1,0.6-0.2,0.3H160c-0.5,0.4-1.6,0.3-1.9,0.1v0.1c0.3,0.3-0.3,0.4-0.7,0.3c0-0.2,0.2-0.3,0-0.4v-0.1
			c-0.1,0-0.1-0.2-0.1-0.3c-0.7-0.1-0.9,0.2-1.1,0.7h0.1c0.2-0.2,0.3-0.1,0.6,0c0.2,0,0.4,0,0.3,0.2c-0.1,0.1-0.2,0.1-0.4,0.1
			c-0.2,0-0.3,0.1-0.6,0.1c-0.4-0.1-1.2,0.5-1.7,0.4h-0.1c-0.1,0.1-0.2,0.1-0.4,0.1H154c-0.4,0.2-1.2,0-1.8,0.1h-0.1
			c-0.2,0.2-0.6,0-0.8,0c-0.1,0-0.1,0.1-0.2,0c-0.1,0-0.4,0.2-0.5,0h-0.3c-0.2,0-0.6,0.1-0.7-0.1h-0.2c-0.8,0.4-1.7-0.3-2.4,0.2
			c0.3-0.1,0.5,0.1,0.8,0.1c0.1,0,0.3,0,0.3,0.1c0.1,0,0.2,0.1,0.2,0.1c0.3,0,0.5,0,0.7,0.2c0.2,0.1,0.6-0.1,0.7,0.1h0.1
			c0.1,0.2,0.6,0,0.6,0.2h0.1c0.2,0,0.3,0,0.3,0.2h0.1c0.1,0,0.2,0.1,0.2,0.3h-0.2h-0.4c-0.2,0.3-0.6-0.1-0.7,0.3
			c0.1,0.3,0.4-0.1,0.4,0.2c-0.4,0.3-1.8,0.7-2.5,0.4c0,0.1-0.1,0.1,0,0.2v0.3c0.2,0,0.4-0.4,0.6-0.1c0.2,0,0.4,0,0.5,0.1
			c0.3,0,0.2,0.3,0.6,0.2c0-0.1,0.4,0.1,0.6-0.1c0.2,0.1,0.2,0.3,0.4,0.4c0.1-0.1,0.1,0.1,0.4,0c0-0.2,0.3-0.2,0.5-0.2
			c0.1,0,0.2,0,0.2,0.1h0.3c0.2,0.1,0.3,0.2,0.4,0.4c0,0.2,0.2,0.1,0.3,0.2h0.1c0-0.1,0.1-0.1,0.3-0.1c0-0.2,0.3-0.1,0.4-0.2h0.2
			c0.2,0,0.2-0.1,0.3-0.1h0.1c0.1-0.1,0.9-0.1,0.9,0.2h0.2c0.1-0.3,0.3,0,0.4-0.2h0.2c0.3,0,0.4,0.2,0.5,0.4c0-0.1,0.2-0.1,0.2,0
			h0.1c0.4,0,0.7,0,0.9,0.2c0.2,0.2,0.3-0.1,0.6,0c0.1,0.1,0.4,0,0.4,0.2h0.1c0-0.1,0.2-0.1,0.3-0.1h0.1c0.3,0.1,0.2-0.1,0.5-0.1
			c0.1,0,0.1-0.1,0.2-0.1c0-0.1,0.6-0.1,0.6,0h0.1c0.1,0.1,0.5,0,0.5,0.3c0.1,0,0.2,0.1,0.3,0.1h0.2c0.1-0.1,0.7-0.1,0.7,0
			c0.4,0,0,0.1-0.1,0.2v0.1c0.2-0.1,0.5-0.1,0.8-0.1c0.1-0.1,0.2-0.1,0.4-0.1h0.2c0-0.2,0.3,0,0.4-0.1c0.1-0.1,0.2-0.1,0.3,0
			c0.6-0.4,1.4,0.1,2.1-0.1c0.5,0.1,0.8-0.1,1.2,0.1c0.3-0.2,0.6,0.1,0.9,0.2h0.2c0.1,0,0.5-0.1,0.5,0.1c0.4,0.2,0.6,0,0.9,0.1
			c0-0.2,0.3,0,0.3,0.1h0.1c-0.1-0.1,0.4-0.1,0.3,0c0.3,0,0.2-0.2,0.5-0.1h0.1c-0.1-0.1,0.4-0.1,0.3,0c0.3,0,0.3-0.1,0.6,0
			c0-0.1,0.3-0.3,0.3-0.1c0.4,0.2,0.6-0.5,0.7,0c0.1,0,0.2,0.1,0.3,0.1c0.3-0.1,0.6-0.1,1,0.1c0.1,0.1,0.3,0.2,0.4,0.3
			c0.3-0.3,0.9,0.1,1.3-0.2c0.1,0.5,0.6,0,0.8,0.4h0.2h0.1c0.3,0,0.4,0.1,0.4,0.3c-0.1,0-0.1,0.1-0.2,0.1c-0.1,0-0.1,0.1-0.2,0.1
			c-0.2,0.1-0.6,0.1-1,0.2h-0.1c-0.9,0.1-1,0.5-1.9,0.8h-0.3c-0.5,0.1-0.7,0.2-1.3,0.1v0.1c0,0.2-0.2,0.2-0.4,0.2h-0.1
			c-0.1,0.1-0.3,0.1-0.4,0.2h-0.1c-0.1,0.1-0.2,0.2-0.4,0.2c-1.1-0.3-2.6,0.6-3.6,0.2h-0.1c-0.5,0.3-1,0.2-1.5,0
			c-1.2,0.4-2.8,0.4-3.9,0.3H162h-0.4h-0.1c-0.8-0.1-1.7,0-2.3,0.2h-0.1c-0.9,0.1-1.7,0.3-2.7-0.2h-0.1c-0.8,0.2-1.4,0-2.2-0.1H154
			c-0.3,0.2-1.1-0.2-1.3-0.1h-0.1c-0.3-0.2-0.9-0.2-1.4-0.2c-0.3-0.1-0.5,0.1-0.8-0.2c-0.1-0.1-0.4-0.1-0.5-0.2h-0.2
			c-1.9-0.5-3.9-1.4-5.4-2.5v-0.1c-0.4-0.2-0.8-0.4-0.9-0.8v-0.1c-0.3-0.2-0.6-0.4-0.8-0.8c0.1-0.3-0.2-0.3,0-0.4
			c0-0.1,0.1-0.1,0.1-0.2c-0.2,0-0.3,0-0.3-0.2v-0.1c-0.1-0.1-0.2-0.3-0.2-0.5c-0.1-0.2,0-0.5,0.1-0.8c0.4-0.6,1-0.6,1.5-0.9
			c0,0.1,0,0.2,0.1,0.3c0-0.2,0.2-0.2,0.4-0.3h0.1v-0.2c-0.5-0.1-0.7,0.1-1.3-0.1H143c-0.1,0.2-0.4,0.1-0.6,0.2h-0.1
			c-0.3,0.3-0.6,0.6-0.8,1v0.1c0,0.1,0.1,0.1,0.1,0.2c-0.3,0.5-0.1,1.1-0.1,1.8c0.1,0.1,0.2,0.1,0.2,0.3c0.2,0,0.1,0.3,0.2,0.4
			c0,0.2,0.2,0.3,0.2,0.5c0.1,0.1,0.3,0.2,0.3,0.3c0.3,0,0.3,0.2,0.3,0.4c0,0.1,0.1,0.1,0.1,0.2c0.3,0.4,0.8,0.3,1,0.9
			c-0.5-0.1-0.9-0.2-1.3-0.4h-0.1c-0.1,0-0.3,0-0.3-0.1h-0.1c-0.2,0-0.3,0-0.3-0.1c-0.1,0-0.3,0-0.3-0.1c-0.2,0-0.3,0-0.3-0.2h-0.1
			c-1-0.5-2-0.9-2.7-1.7c-0.1,0-0.2,0-0.2-0.1c-0.4-0.3-0.7-0.7-1-1.1c-0.1-0.3-0.3-0.4-0.3-0.7v-0.1c-0.1-0.3-0.2-0.6-0.1-0.9
			c0-0.1,0-0.3,0.1-0.3c0-0.1,0-0.2,0.1-0.2c0-0.1,0-0.2,0.1-0.2v-0.1c0-0.2,0.2-0.2,0.2-0.3c-0.2-0.1-0.2,0.2-0.3,0.2v0.1
			c-0.1,0.1-0.1,0.3-0.2,0.4c0,0.1,0,0.2-0.1,0.2v0.1c0,0.1,0,0.3-0.1,0.3c0,0.6,0.2,1,0.2,1.4v0.1c0.2,0.2,0.2,0.5,0.4,0.7
			c0.2,0.1,0.3,0.2,0.4,0.4c0,0.2,0.4,0.1,0.3,0.4c0.1,0.1,0.2,0.2,0.3,0.3c0.1,0,0.1,0,0.1,0.1c0.1,0.1,0.3,0.2,0.3,0.4
			c0.1,0,0.1,0.1,0.2,0.2c0.1,0.1,0.4,0.2,0.4,0.3h0.1c0.1,0.1,0.3,0.1,0.3,0.2c0.2-0.1,0.1,0.2,0.4,0.2c0.1,0.1,0.3,0.1,0.4,0.2
			h0.1c0.1,0.1,0.4,0,0.4,0.3c0.1,0,0.2,0,0.3,0.1c0.2,0,0.3,0.1,0.3,0.2h0.1c0.2,0,0.5-0.1,0.5,0.2c0.1,0,0.4-0.1,0.4,0.1
			c0.1,0,0.3,0,0.3,0.1h0.2c0.3,0.2,0.8,0.2,1.1,0.3c0.1,0,0.2,0,0.2,0.1c0.2,0.1,0.5,0.1,0.6,0.3c0.1,0,0.2,0.1,0.3,0.1v0.1
			c0.1,0,0.2,0,0.2,0.1c0.2,0,0.4,0,0.5,0.2h0.1c0.1-0.2,0.4,0.1,0.5,0.2h0.1c0-0.2,0.2,0.1,0.3,0.2c0.1,0,0.3,0,0.3,0.1
			c0.4,0,0.7,0.1,0.8,0.3c0,0,0,0.1,0.1,0.1c0.7-0.1,0.8,0.4,1.2,0.3h0.2c0.2,0.1,0.6,0,0.7,0.3h0.2c0.2,0,0.4,0,0.4,0.1
			c0.4,0.1,0.6,0,0.8,0.2c0.1,0,0.3,0,0.3,0.1h0.1c0.2,0.1,0.5,0.1,0.7,0.2c0.3-0.1,0.5,0.1,0.8,0.1c0.3,0.3,0.5,0.1,1,0.2
			c-0.2,0.3,0.1,0.3,0.3,0.5c-1.2,0-2.8-0.2-4.4-0.5h-0.1c-0.3,0-0.6,0-0.8-0.2h-0.1c-0.2-0.1-0.4-0.1-0.6-0.2h-0.1
			c-0.4-0.2-0.9-0.2-1.3-0.2c-0.1,0.2,0.2,0.2,0.2,0.3h0.2c0.1,0,0.2,0.1,0.2,0.2c-0.4,0.2-1,0-1.2-0.2h-0.2c-1.1-0.3-2.1-0.4-3-1
			h-0.1c-0.4-0.1-0.6-0.1-0.8,0.2c-0.1-0.2-0.5-0.1-0.7-0.3c-0.1,0-0.3,0-0.3-0.1c-1.8-0.4-3.6-1.4-4.9-2c0.2,0.2,0.5,0.4,0.7,0.6
			h0.1c0.2,0.1,0.4,0.1,0.4,0.3c0.2,0,0.4,0.1,0.5,0.2c0.2,0,0.3,0.1,0.3,0.2h0.1c0.1,0.1,0.3,0.1,0.4,0.2c0.3,0.1,0.5-0.1,0.7,0.2
			h0.2c0.1,0.1,0.5-0.1,0.5,0.1c0.1,0,0.2,0.1,0.2,0.2c0.3,0,0.5,0.1,0.7,0.3c0.2,0,0.4,0,0.4,0.1c0.1,0,0.1,0.1,0.3,0.1
			c0.2,0,0.4,0.1,0.4,0.2h0.2c0.2,0,0.3,0.1,0.3,0.2c0.1,0,0.2,0,0.3,0.1c0.1,0,0.4-0.1,0.4,0.1c0.1,0,0.2,0,0.2,0.1
			c0.1,0,0.1,0.1,0.3,0.1c0.2,0,0.3,0.3,0.7,0.2c0.2,0.1,0.4,0.1,0.5,0.3c0.2-0.1,0.2,0.2,0.3,0.2c0.3-0.1,0.4-0.1,0.7,0.1
			c0.1,0.1,0.3,0,0.3,0.2h0.1c0.1,0.2,0.4,0.1,0.5,0.2c0.8-0.1,1.1,0.5,1.7,0.6c0.2,0.1,0.4,0,0.5,0.2c0.3-0.2,0.5,0.2,0.9,0.2
			c0.1,0.1,0.3,0,0.3,0.2c0,0.1,0.1,0.2,0.2,0.2h0.2c0.1,0,0.4-0.1,0.4,0.1c0.2,0,0.3,0,0.4,0.1c0.3,0.1,0.6,0.1,0.9,0.2
			c0.1,0,0.2,0,0.3,0.1c0.2,0,0.2,0.1,0.5,0.1c0.1,0,0.3,0,0.3,0.1h0.1c0.1,0.1,0.4,0.1,0.5,0.2c0.2,0.1,0.2,0.2,0.4,0.2
			c0.1-0.2,0.4,0,0.4,0.1c0.5,0.1,0.6,0.1,0.8,0.2c0.1,0.1,0.4-0.1,0.4,0.1c0.3-0.1,0.4,0,0.6,0.1c0.3,0,0.5,0,0.7,0.2h0.6
			c0.3-0.1,0.3,0.1,0.5,0.1c0.3,0,0.5,0,0.6,0.2h0.4c0.2,0.1,0.6,0.1,0.8,0.2c0.1-0.2,0.3,0.1,0.4,0.2h0.4c-0.1-0.1,0.4-0.1,0.3,0
			h0.1c0.1,0.1,0.2,0.1,0.4,0.1c0.2-0.2,0.3,0.2,0.8,0.1c0-0.1,0.1-0.1,0.3-0.1c0.1,0,1-0.1,0.8,0.3h0.2c0.1,0,0.3,0.1,0.3,0.2
			c0.6,0.1,1.1,0,1.7,0.1h0.3c0.3-0.1,0.5,0.1,0.8,0.1c0-0.2,0.3,0,0.4-0.1h0.7h0.1h0.5c0.4-0.1,0.9,0.1,1.4,0
			c0.1-0.2,0.5,0,0.7-0.1h0.2c0-0.2,0.3,0,0.4-0.1h0.2c0.1-0.2,0.5,0,0.7-0.1h0.2h0.2c0-0.1,0.2-0.1,0.3-0.1c0-0.1,0.2-0.1,0.4-0.1
			h0.2c0.2-0.1,0.5-0.1,0.7-0.2h0.5c0.4-0.1,0.8-0.2,1.2-0.2c0-0.1,0.2-0.1,0.3-0.1c0.4-0.1,0.5-0.1,0.9-0.1
			c0.1-0.1,0.3-0.2,0.5-0.2h0.1c0-0.1,0.1-0.1,0.2-0.1c0-0.1,0.2-0.1,0.3-0.1c0-0.1,0.2-0.1,0.3-0.1c0.1-0.1,0.2-0.1,0.4-0.1
			c0.1-0.1,0.3-0.1,0.5-0.2h0.2c0-0.1,0.1-0.1,0.2-0.2c0-0.1,0.2-0.1,0.3-0.1c0.2-0.2,0.5-0.2,0.8-0.2c0-0.1,0.2-0.1,0.3-0.1
			c0.2-0.1,0.4-0.2,0.7-0.3c0-0.2,0.4,0,0.4-0.2h0.2c0-0.1,0.2-0.1,0.3-0.1c0.1-0.1,0.2-0.2,0.3-0.3c0.5,0.1,0.5-0.4,1-0.3
			c0.1-0.1,0.2-0.2,0.3-0.2h0.2c0-0.1,0.1-0.2,0.3-0.2c0-0.1,0.1-0.1,0.2-0.1c0.3-0.2,0.8-0.4,1.2-0.5c0.1-0.1,0.4-0.1,0.5-0.2
			c0.2-0.2,0.4-0.2,0.7-0.3c0.2,0,0.2-0.2,0.4-0.2c0-0.2,0.3-0.1,0.3-0.2c0-0.1,0.1-0.2,0.3-0.2h0.1c0-0.2,0.3-0.1,0.3-0.2h0.1
			c0.1-0.1,0.2-0.2,0.4-0.2c0.1,0,0.1-0.1,0.2-0.1h0.2c0,0,0-0.1,0.1-0.1c0-0.1,0.1-0.1,0.2-0.1c0-0.1,0.2-0.1,0.3-0.1
			c0.1,0,0.1-0.1,0.2-0.1c0.1-0.3,0.5-0.3,0.8-0.4c0.1-0.1,0.2-0.2,0.3-0.2c0.1-0.1,0.2-0.3,0.5-0.2c0-0.1,0.1-0.1,0.2-0.1
			c0.1-0.2,0.4-0.2,0.6-0.3c0.1,0,0.2,0,0.2-0.1c0-0.1,0.1-0.1,0.2-0.1c0.2-0.1,0.4-0.2,0.5-0.3h0.1c0-0.2,0.4,0,0.5-0.2
			c0.1-0.1,0.2-0.1,0.3-0.2c0.3,0,0.2-0.3,0.5-0.3c0.1-0.1,0.1-0.3,0.3-0.2c0.1,0,0.1-0.1,0.2-0.1c0.2-0.1,0.4-0.2,0.6-0.3
			c0.1,0,0.1-0.1,0.2-0.2h0.2c0-0.1,0.2-0.1,0.3-0.1c0.1-0.1,0.2-0.2,0.4-0.2c0.1-0.1,0.1-0.3,0.3-0.2c0.2-0.2,0.6-0.2,0.8-0.3
			c0.1-0.2,0.4-0.2,0.6-0.3h0.1c0.1-0.2,0.2-0.2,0.4-0.3c0.1,0,0.2-0.1,0.3-0.1c0.1-0.2,0.2-0.3,0.5-0.3c0-0.1,0.1-0.1,0.2-0.1
			c0.1-0.1,0.2-0.2,0.4-0.2c0-0.1,0.1-0.1,0.2-0.1c0-0.2,0.3-0.1,0.4-0.2h0.1c0.4-0.2,0.7-0.5,1.2-0.6h0.2c0.1-0.1,0.3-0.1,0.4-0.3
			h0.2c0-0.1,0.1-0.1,0.2-0.1c0.1-0.1,0.1-0.3,0.3-0.3c0.1,0,0.1-0.1,0.2-0.2v-0.1c0-0.1-0.1-0.1-0.2-0.1c-0.2,0-0.1,0.2-0.3,0.2
			h-0.1c-0.4,0.2-0.8,0.5-1.2,0.6v0.1c-0.2,0.1-0.5,0.2-0.8,0.2c-0.1,0-0.1,0.1-0.2,0.1c-0.2,0.1-0.3,0.3-0.6,0.3h-0.1
			c-0.4,0.2-0.7,0.5-1.3,0.6c0,0.1-0.1,0.1-0.2,0.1c0,0.1-0.1,0.2-0.3,0.2H200c-0.1,0.2-0.4,0.1-0.5,0.2h-0.1
			c-0.2,0.3-0.6,0.4-0.9,0.5c-0.2,0.1-0.4,0.3-0.8,0.3c-0.1,0.1-0.3,0.1-0.4,0.3h-0.1c-0.1,0.1-0.2,0.2-0.4,0.2h-0.1
			c-0.7,0.4-1.6,0.6-2.3,1.2c-0.1,0-0.1,0.1-0.3,0.1c0,0.1-0.2,0.1-0.2,0.2h-0.1c-0.2,0.2-0.6,0.3-0.8,0.4h-0.1
			c-0.2,0.2-0.5,0.4-0.8,0.5c-0.1,0-0.1,0.1-0.2,0.1c-0.1,0.1-0.2,0.2-0.3,0.2h-0.1c-0.5,0.4-1.2,0.6-1.9,0.9
			c-0.1,0-0.2,0.1-0.3,0.1c-0.2-0.2,0.2-0.4,0.4-0.4h0.1c0.3-0.1,0.4-0.4,0.7-0.4h0.2c0-0.1,0.2-0.1,0.2-0.2
			c0.4-0.2,0.8-0.5,1.3-0.5c0.1-0.2,0.3-0.4,0.6-0.5c0.4-0.2,0.9-0.3,1.2-0.5c0.3-0.5,1.2-0.5,1.7-0.8c0.1,0,0.1-0.1,0.2-0.1
			c0-0.2,0.2-0.2,0.3-0.3h0.1c0-0.2,0.2-0.1,0.3-0.2c0.9-0.3,1.7-0.9,2.8-1.3c0.2-0.1,0.4-0.2,0.6-0.2c0.1-0.1,0.3-0.1,0.4-0.2
			c0.1,0,0.1-0.1,0.2-0.2c0.1-0.1,0.2-0.2,0.4-0.2c0-0.1,0.1-0.1,0.2-0.1c0.7-0.5,1.6-0.8,2.4-1.2c0-0.1,0.1-0.1,0.2-0.1
			c0.3-0.1,0.4-0.3,0.7-0.4c0.1-0.2,0.4-0.1,0.6-0.3c-0.1-0.3,0.2-0.1,0.4-0.2c0-0.1,0.1-0.1,0.2-0.1c0.1-0.2,0.2-0.2,0.4-0.2
			c0-0.2,0.4,0,0.5-0.1c0-0.2,0.4-0.1,0.5-0.2c0-0.1,0-0.1,0.1-0.1c0.2-0.1,0.2-0.3,0.5-0.3c0-0.1,0.1-0.1,0.2-0.1
			c0-0.2,0.2-0.2,0.4-0.2c0.2-0.1,0.4-0.2,0.7-0.2c0.2-0.3,0.4-0.2,0.8-0.3c0.2-0.1,0.4-0.2,0.7-0.3c0.3-0.2,0.7-0.3,1-0.5v-0.1
			c-0.1-0.1-0.3,0.1-0.2-0.3c-0.4-0.1-0.1,0.4-0.4,0.4c-0.2,0-0.1-0.3-0.3-0.2c0,0.3-0.4,0.1-0.5,0.3h-0.1c0,0.2-0.2,0.1-0.2,0.2
			c0.1,0.1,0.3-0.2,0.4,0c-0.6,0.4-0.9,0.6-1.7,0.8c0.3-0.2,0.4-0.4,0.4-0.8h0.1c0.1,0,0.1-0.1,0.2-0.1c0.1-0.2,0.2-0.2,0.4-0.2h0.1
			c0.3-0.2,0.9-0.2,1.1-0.5h0.1c0.1-0.1,0.3-0.2,0.4-0.3c0.1,0,0.2-0.1,0.3-0.1c0-0.2,0.3-0.1,0.3-0.2c0.3-0.1,0.4-0.4,0.8-0.3
			c0.1-0.2,0.4-0.2,0.6-0.4c1.1-0.6,2.4-0.8,3.3-1.6c0-0.1,0.1-0.1,0.2-0.1c0-0.1,0.1-0.2,0.2-0.2c0.2-0.1,0.4-0.2,0.6-0.2
			c0.3-0.2,0.7-0.4,1.1-0.6c0.4-0.1,0.6-0.4,0.8-0.6c0.3-0.2,0.7-0.2,0.9-0.5c0.2-0.1,0.3-0.2,0.6-0.1c0.1,0,0.1-0.1,0.2-0.1
			c0-0.1,0-0.2,0.1-0.2c0-0.3,0.2-0.1,0.3-0.1c0.1,0,0.2-0.1,0.2-0.2c0-0.1,0.3-0.3,0.1-0.4c0,0.1-0.1,0.1-0.2,0.2h-0.1
			c-0.2,0.2-0.5,0.3-0.8,0.4c-0.2,0-0.1,0.2-0.3,0.2c-0.1,0.1-0.2,0.2-0.3,0.2c-0.1,0-0.1,0.1-0.3,0.1c-0.1,0.2-0.4,0.3-0.6,0.3
			h-0.1c-0.3,0.3-1,0.1-1.2,0.4c-0.2,0-0.3,0.3-0.7,0.2c0,0.1-0.1,0.2-0.3,0.2h-0.1c-0.3,0.1-0.5,0.4-0.9,0.4h-0.1
			c0,0.1-0.1,0.1-0.1,0c-0.2,0-0.3,0.1-0.4,0.2h-0.1c-0.1,0.2-0.2,0.3-0.5,0.2h-0.1c-0.1,0.1-0.2,0.2-0.4,0.2
			c-0.3,0-0.4,0.2-0.7,0.2c0,0.1-0.3,0-0.3,0.2H213c-0.3,0.2-0.8,0.2-1.1,0.4h-0.1v0.1c-0.3-0.1-0.6,0.3-0.8,0.1h-0.1
			c-0.1,0.1-0.2,0.1-0.3,0.2c0-0.2,0.1-0.2,0.1-0.3h0.1v-0.1c0-0.2,0.2,0.1,0.4,0h0.1c0-0.1,0.1-0.2,0.2-0.3c0.1-0.2,0.6,0,0.7-0.2
			c0.2-0.1,0.4-0.2,0.7-0.2c-0.1-0.1,0.4-0.1,0.3,0c0.3,0,0.2-0.2,0.4-0.2c0.1-0.1,0.2-0.2,0.3-0.3c0.1,0,0.1-0.1,0.2-0.1
			c0.1-0.1,0.2-0.2,0.4-0.2c0.2-0.1,0.1-0.4,0.5-0.2c0-0.2,0.3-0.2,0.5-0.2v-0.1c0.1-0.1,0.5-0.4,0.6-0.2c0.7-0.7,1.4-0.9,2.2-1.4
			c0-0.1,0.2-0.1,0.2-0.2h0.1c0.2,0,0.2-0.1,0.3-0.1c0.1-0.3,0.4-0.4,0.7-0.5h0.1c0.3-0.1,0.4-0.3,0.8-0.3c0.1-0.2,0.2-0.2,0.4-0.2
			c0.6,0,0.6-0.6,1-0.7c0.1,0,0.3-0.2,0.3,0c0.2-0.1,0.3-0.2,0.4-0.3h0.3c0.1-0.1,0.2-0.3,0.3-0.3v-0.1c0.3,0.3,0.7-0.4,1-0.3h0.1
			h0.1c0.2-0.3,0.8-0.3,0.8-0.8c0.1-0.1,0.2-0.3,0.3-0.3c0.1-0.1,0.1-0.2,0.2-0.3v-0.1c0-0.1-0.1-0.1-0.1-0.3
			C225.6,137.8,225.5,137.8,225.4,137.9z M165,148.3L165,148.3C165,147.6,165.8,148.6,165,148.3z M166,148.4c-0.1-0.1-0.1-0.3,0-0.4
			c0.2,0,0.1,0.2,0.3,0.2C166.3,148.2,166.2,148.4,166,148.4z M172.7,165.5c0-0.1,0.1-0.1,0.1-0.2h0.2
			C173,165.5,172.8,165.5,172.7,165.5z M178.1,156.4L178.1,156.4c0.3,0,0.3-0.2,0.5,0c0,0.1-0.1,0.1-0.1,0.2
			C178.5,156.7,177.9,156.7,178.1,156.4z M177.8,156.6C178.2,156.2,177.7,157,177.8,156.6C177.7,156.5,177.7,156.6,177.8,156.6z
			 M187.6,161.1L187.6,161.1c-0.2,0.2-0.5,0.2-0.7,0.3c-0.1,0.1-0.2,0.1-0.4,0.1c-0.3,0.2-0.7,0.3-1,0.5c-0.1,0-0.1,0.1-0.2,0.1
			c-0.2,0.2-0.5,0.2-0.7,0.4c-0.1,0.1-0.2,0.1-0.4,0.1c0,0.1-0.2,0.1-0.3,0.1h-0.2c-0.1,0.2-0.4,0.1-0.5,0.2h-0.1
			c0,0.1-0.1,0.2-0.3,0.2c-0.2,0-0.1,0.2-0.4,0.2c-0.1,0.1-0.4,0.1-0.5,0.2c-0.1,0.1-0.2,0.1-0.3,0.1c-0.3-0.1-0.2,0.2-0.4,0.2
			c-0.1,0.1-0.1,0.1-0.3,0.1c-0.1,0.1-0.2,0.2-0.5,0.2c-0.1,0-0.1,0.1-0.2,0.1c-0.1,0.1-0.3,0.1-0.4,0.2h-0.1
			c-0.4,0.2-0.9,0.4-1.4,0.4c-0.1,0-0.2,0.1-0.3,0.1c0,0.2-0.3,0-0.4,0.1h-0.2c0,0.2-0.4,0-0.5,0.1h-0.2c-0.8,0.2-1.6,0.4-2.4,0.5
			c-0.1-0.4,0.3-0.2,0.4-0.4h0.1c0.1-0.1,0.1,0,0.2,0c0.7,0,0.9,0,1.4-0.2c0.4-0.1,1.1-0.3,1.5-0.3c0.1-0.1,0.3-0.1,0.4-0.2
			c0-0.1,0.1-0.1,0.2-0.1c0.2,0,0.2-0.2,0.4-0.2h0.2c0-0.1,0.5-0.1,0.5,0c0.2-0.1,0.1-0.4,0.5-0.3c0.1-0.3,0.4,0.2,0.5-0.1
			c0.1-0.4,0.4,0.1,0.6-0.2c0.1,0,0.1-0.1,0.2-0.1c0.5,0,0.5-0.4,0.9-0.4c0-0.2,0.4,0,0.5-0.1c0.1-0.1,0.1-0.1,0.2-0.1
			c0.1-0.1,0.4-0.1,0.5-0.2c0.1,0,0.1-0.1,0.2-0.1c0.4-0.1,0.5-0.4,1-0.4h0.1c0.1-0.1,0.3-0.5,0.4-0.2c0.1,0,0.1-0.1,0.2-0.1
			c0-0.1,0.1-0.1,0.2-0.1h0.2c0.1-0.1,0.2-0.2,0.3-0.2c0.4-0.1,0.6-0.3,1.2-0.4c0.1-0.2,0.4-0.2,0.5-0.3c0.2,0.1,0.2-0.1,0.4-0.1
			C188.6,160.8,187.9,160.9,187.6,161.1z M204.3,147.2c-0.1,0.1-0.3,0.1-0.2-0.2h0.2V147.2z M205.7,146.6L205.7,146.6
			c-0.2,0.2-0.5,0-0.7,0c-0.1,0-0.1-0.1-0.2-0.2c-0.1,0-0.1,0.1-0.2,0.1v-0.4c0.2-0.2,0.4,0,0.6-0.2c0.2,0,0.1,0.3,0.2,0.4
			c0.1,0,0.1-0.1,0.2-0.1v-0.1c0.2-0.1,0.4-0.2,0.6-0.2h0.2c0.1-0.2,0.4,0,0.5,0.1C206.6,146.3,206.1,146.4,205.7,146.6z
			 M207.2,150.6c0-0.2,0-0.3,0.2-0.3c0.1,0,0.1-0.1,0.2-0.1h0.3C207.7,150.5,207.4,150.6,207.2,150.6z M208.1,150.2
			c0.1-0.2,0.2-0.3,0.5-0.2C208.4,150.1,208.4,150.2,208.1,150.2z M208.2,147.6c0.1-0.2,0.2-0.2,0.4-0.3
			C208.6,147.5,208.5,147.7,208.2,147.6z M208.9,147.4c0-0.2,0.1-0.1,0.2-0.2C209.1,147.3,209.1,147.4,208.9,147.4z M209.2,147.3
			c0.1-0.3,0.5-0.5,1-0.4C210,147.1,209.7,147.2,209.2,147.3z M220.1,141.1C220.6,141.2,219.8,141.5,220.1,141.1L220.1,141.1z
			 M222.7,139.5c-0.1-0.3,0.2-0.4,0.3-0.2c0.2,0,0.1-0.2,0.3-0.2C223.2,139.3,222.9,139.7,222.7,139.5z"/>
		<path class="st2" d="M298.9,137.5c-0.2-0.4-0.3-0.7-0.2-1c-0.1-0.1-0.2-0.1-0.3-0.2v0c0-0.2-0.9-1-0.3-1.3
			c-0.8-0.2-0.7-1.4-0.5-2.2c0.1,0,0.2-0.1,0.3-0.1c0,0,0,0,0,0c-0.1-0.4-0.3-0.7-0.7-0.9c0-0.1-0.1-0.2-0.1-0.4
			c0-0.3,0.1-0.7,0.3-0.5c-0.5-1.1-0.5-1.9-0.3-2.4c-0.4-0.3-0.4-0.8,0-0.6c0-0.2,0-0.3,0-0.4c-0.1-0.1-0.2-0.2-0.2-0.3
			c0.1-0.2,0.1-0.4,0.2-0.6c-0.3-0.4-0.6-0.8-1-1.3h0c-0.3-0.6-0.8-1.1-1.2-1.6c0-0.1,0-0.2-0.1-0.3c-0.5-0.7-1.2-1-1.5-1.9
			c0,0,0-0.1,0-0.2c-0.2,0-0.2-0.4-0.3-0.6c0-0.1,0-0.1,0-0.2c-0.6-0.9-1.9-0.7-2.4-1.7c-0.2-0.1-0.2-0.3-0.3-0.6
			c-0.3-0.1-0.4-0.5-0.6-0.7c0-0.1,0-0.1,0-0.2c-0.2-0.3-1.1-1-1.2-2.2c-0.2-0.2-0.3-0.4-0.3-0.8c-0.3-0.2-0.4-0.5-0.9-0.4h-0.2
			c0,0,0-0.1,0-0.1c0-0.1,0-0.1,0-0.2c-0.3,0-0.6-0.2-0.9-0.3c0,0,0,0.1-0.1,0.1c-0.3,0-0.3,0.2-0.7,0.2c0.1-0.5-0.4-0.4-0.5-0.8
			c-2.2-0.3-3.7-0.6-4.8-1.8c-1.5,0.1-3.9-1.2-5-1.2l0,0c0.2,0,0.3,0,0.5,0c0-0.2,0.2-0.4,0.6-0.4c0-0.2-0.6-0.7-0.2-0.6
			c0,0-0.1-0.1-0.1-0.1c0.1-0.1,0-0.4-0.2-0.6c0.1-0.2,0.2-0.5,0.3-0.7c0.2,0,0.3-0.1,0.5-0.1c0.4-0.1-0.2-0.7,0-0.7c0,0,0,0,0-0.1
			c0.1-0.3,0.2-0.6,0.2-0.8c0,0,0-0.1,0-0.1h0.1c0-0.2,0.2-0.3,0.5-0.5c0.1-0.3,0.2-0.6,0.3-0.9c0,0-0.1,0-0.1,0
			c0.1-0.2,0.2-0.3,0.3-0.5c-0.1-0.1-0.1-0.2-0.1-0.5c0.3-0.9,0.6-1.7,0.9-2.6c0.4-1,0.6-1.8,1.1-3c-0.4-0.3,0.3-0.6,0.2-1.1
			c0-0.5,0.4-0.5,0.4-1.1c0-0.1,0-0.2,0.1-0.2c0.3-0.1,0.5-0.4,0.5-0.8c0,0,0,0,0.1,0c0-0.3,0.1-0.6,0.1-0.8c0-0.6,0.1-0.9,0.2-1.3
			c0.1-0.1,0.1-0.2,0.3-0.3c-0.1-0.1-0.1-0.1-0.1-0.2c0,0,0,0,0-0.1h0c-0.3-0.7,0.4-1.5,0.6-2.2c-0.6,0,0-1.5,0.7-1.3
			c-0.1-0.5,0.2-0.6,0.2-1c-0.4,0-0.5-0.2-0.7-0.5c0.5,0,0.4-0.7,1-0.5c-0.3-0.7,0.2-1.4,1.1-1.3c0.2-0.8-0.2-1.7-0.5-2.5
			c0.3-0.4,0.9-1.3,0.7-1.8c0,0.2-0.5,0.6-0.5,0.2c0.3-0.4,0.2-2.1,0.7-1.3c0.1-1.4,0.4-2.5,1.2-3.3c-0.5-0.1-0.6-0.6-0.7-1.2
			c1.1-2.9-0.5-5.2-0.5-8.9c0-3.8-0.2-8.3-3.8-7.4c-1.3-1.2-2.9,0-4.5-0.2c-1.1-0.1-2.3-1.4-3.5-0.7c-1.4-0.9-3.4,1.2-4.6,0.2
			c-0.7,0.9-1.4,0.7-3,0.7c-0.6,0.8-1.7,1.1-2.3,2h-1.6c-0.6,0.5-0.7,1.6-1.5,1.8c-0.1-0.3-0.4-0.6-1-0.5c-0.6,0.6-0.9,0.8-1.7,1.5
			c-0.4-0.6-0.7-0.1-1.3,0v1.2c-1.4,0.1-1.6,1.4-2.6,1.3c-0.5,0.2,0.3,0.7-0.2,0.8c-0.5,0.1-0.4-0.2-0.8-0.2c-0.9,0.7-1.6,1.5-2.6,2
			c-1,0.6-2.1,1.1-3.1,1.7c-0.2,0.7-0.6,1-1.5,1c-0.1,0.4-0.1,0.9-0.5,1c-0.8-0.5-0.8,1.1-2,0.8c-0.6,0.9-2.1,2.4-3.3,2.7
			c-0.6,0.2-1.4,0.6-2.1,1c-0.2,0.1-0.3,0.2-0.5,0.2c-0.4,0.2-0.6,0.5-1.1,0.6c0,0.2-0.1,0.2-0.2,0.3c0,0-0.1,0.1-0.1,0.1
			c-0.1,0.1-0.2,0.1-0.4,0.2c-0.1,0-0.2,0-0.3,0c0,0.2-0.4,0.2-0.6,0.2c-0.5,0.6-0.9,0.2-1.8,0.6c-0.3,0.2-1.1,0.6-1.7,0.8
			c0,0,0,0,0,0c-0.2,0.1-0.5,0.2-0.7,0.3c-0.1,1.8,1.4,3.2,2.8,3.9c0.1,0.5-0.2,0.7-0.5,0.8c-0.9-0.3-1.4,0.3-2.3,0.3
			c-0.1,1.8,0.7,2.6,1.3,3.6c1.2,0.6,3.2,1.1,4.5,2c0-0.4,0.6-0.1,0.8-0.2c2.2,1.9,6.4,0,8.9-1c0,0.4,0.6,0.1,0.8,0.2
			c0.9-0.9,2.2-0.9,3.5-1.7c1.5,0.5,3.1-1.8,5.5-1c0.3-0.2,0.6-0.5,0.8-0.8c0.3,0.5,1,0.6,1.3,1c-0.5,0.9-0.1,1.7-0.3,2.8
			c-0.5-0.1-1.2,0.6-0.5,0.7c-0.3,0.2-0.6-0.1-0.8,0.5c0.4,0.2,0.6-0.4,0.7,0c-0.1,0.8-1.1,1.1-0.2,1.2c-0.7,0.8-0.3,2.2-0.3,2.8
			c-0.5-1-1.8,0.2-1.3,1c0.2-0.3,0.4-0.6,0.8-0.6c0.1,1.7-1.6,2-1,4c-0.2,0-0.4-0.1-0.5-0.2c0,2.1-0.9,2.3-0.8,4.5h-0.7
			c0.1,3-1.7,4.4-2.3,7.3c0.4-0.2,0.4,0.2,0.8,0.2c0.3-0.1,0-0.8,0.5-0.6c-0.2,0.9-0.3,0.9-0.3,1.8c-1,0.4-2.4,0.3-2.8,1.3
			c0.1,0.1,0.2,0.2,0.2,0.3c0.5,0.1,0.6-0.2,1-0.2c-0.3,0.4-0.2,1.2-0.7,1.3c-0.4-0.3-0.8,0.2-1.1-0.3c0.8,2.9-1.1,4.9-2.5,6.9
			c0.3,0.2-0.2,1-0.3,1.3c0.2,0,0.4-0.1,0.5-0.2c-0.3,0.9-0.6,3.5-2.3,3c1.9,1.3-0.9,2.9-1.3,3.3c0.1,0,0.9-0.2,1,0
			c-0.1,0.3-0.1,0.7-0.3,0.8c-1.9,0.1-0.6,2.8-1.6,3.8c-0.6-0.3-0.3,0.1-0.8,0.1c-0.1-0.8,0.3-0.9,0.7-0.5c-0.2-0.3-0.3-0.8-0.5-1.2
			c-0.1,0.3-0.5,0.4-0.3,1c-2,1.4-1.6,4.4-2.8,6.3c0.4,0.5,0.2,0.7,0,1.3c0.6,0.3,0.1-0.6,0.5-0.5c0.2,0.4,0.4,0.8,0.8,1
			c0-0.1,0.1-0.2,0.3-0.1c0.6-0.3-0.4-0.9,0-1c0.9,0.1,0.9-1.5,1.8-0.8c-0.7-0.1-0.6,0.6-1,0.8c0.4,0.3,0.6-0.5,1.2-0.5
			c0-1.6,1.3-1.5,2.1-1.6c-0.5,0.2-0.6,1.2-0.4,1.4c0.6-1.2,1-1.3,1.8-1.3c-0.1-0.1,0.4-0.9,0.2-1.6c0.5-0.2,0.9-0.4,1.3-0.7
			c-0.8-1.3,1.6-1.3,2-2.3c0,0.3-0.1,0.6,0.2,0.7c0.1-0.6,1.4-0.1,1.8-0.3c0.1-0.8-0.6,0.2-0.7-0.3c1-0.5,1-1.9,2-2.5
			c-0.6-0.5-0.5,0.6-0.8,0.2c0.7-0.3,1.3-1.6,2.1-1.5c-0.5,0.3-0.1,1.6-0.8,1.7c0.1-0.1,0.4-0.8,0-0.8c0,0.5-0.5,0.6-0.1,1
			c0.4,0.2,0.3,0,0.8,0.1c0.4-0.2,0.5-0.6,0.8-0.8c-0.2,1-0.6,2-1.5,2.3c0,0.9-0.5,1-0.1,1.8c1.6-1.2,2.2-3.2,3.3-4.5
			c0,0.1,0,0.3,0.2,0.3c0-0.6,0.3-0.9,0.7-1.2c0,0.2-0.7,0.5-0.2,0.7c0.4-0.7,0.9-1.2,1.5-1.5c0.2-0.5-0.4-0.3-0.5-0.7
			c0.4-0.3,0.9-0.6,1.5-0.6c0.3-1.1,0.8-2.9,2.5-3.5c-0.3,1.1-0.8,1.8,0.3,2.3c0.5-0.6,2.1-1.5,2.5-1.2c0.1-0.6,0.1-0.8,0.7-1.2v0.3
			c1.2-0.7,1.6-1.3,3.5-1.3c1,0.7,2.7,1.4,3.8,1c0.7,1,1.7,1.8,3,1.7c0.8,1.7,3.2,2.7,2.7,5.1c0.5,0.2,0.9,0.5,1.1,0.5
			c-0.1,0.3-0.1,0.8-0.3,1c-0.4-0.1-0.5-0.5-0.8-0.7c0,0.7,0.5,0.7,0.1,1.3c1.2-0.6,1.9,0.8,0.8,1.3c-0.1-0.8,0,0.2-0.5,0
			c0-0.2,0.1-0.2,0.2-0.3c-0.6-0.2-0.3,0.6-0.6,0.6c-0.1-0.5,0.2-0.6,0.3-1c-0.3,0-0.8-0.6-1-0.2c0.5,0.5-0.2,0.9-0.3,0.2
			c0.2,0.9,0.2,0.9,0.2,1.5c0.7,0.2,1-0.1,1.5-0.6c-0.1,0.9,0.5,1.1,1.3,1c0.1,0.4,0.1,0.7,0.5,1.2c-0.7,0.5-1,0.3-1.8,0.7
			c0.9,0.2,3.3-0.8,2.6,1.7c0,0-0.1,0-0.1,0c0,0.2-0.1,0.5,0.1,0.6c0.1,0.1,0.3,0.1,0.3,0.3c0.4,0.2,0.6,0.5,0.8,0.8h0.2
			c0.4,0,0.5,0.1,0.5,0.5c0.2,0.1,0.6,0.1,0.7,0.5c0.1,0.1,0.2,0.1,0.2,0.3c0.2,0.6,0.7,0.8,1.2,1.1c0.1,0,0.2,0.1,0.3,0.1
			c0.1,0.2,0.3,0.4,0.4,0.6c0.7-0.1,0.6,0.2,1.1,0c0.4,1.1,0.9,2.1,2.2,2.3c0.1-0.6,0.9-0.3,0.8-1c-0.2,0-0.5,0-0.5-0.2
			c0.2-0.2,0.3-0.5,0.4-0.8c0.2-0.3,0.5-0.7,0.8-1.1c0.2,0.1,0.4-0.1,0.7-0.3c0.3,0.6,0.9,0.7,0.6,1.8c0.9,0.4,1-0.8,1.5-1.2
			c1.1,0.5,2.4-0.2,3.5-0.5c-0.2,1,0.4,1.5,1,1.6c0,0,0.1,0,0.2,0c0,0,0.1,0,0.1,0c0.1,0,0.1-0.1,0.2-0.1c0.2-0.1,0.5-0.2,0.9-0.4
			c0,0,0.1-0.1,0.1-0.1c0-0.4,0.1-0.8,0.2-1.2c0,0,0.1-0.1,0.1-0.1c-0.2-1.2,0.6-2.1,0.6-3.2c-0.1-0.1-0.1-0.2-0.2-0.3
			c-0.1-0.3,0.2-0.5-0.2-0.9c0.2-0.3,0.4-0.6,0.4-0.9C299,137.6,298.9,137.6,298.9,137.5z M248.8,133.1c-0.4,0.1-0.8,0.3-1.2,0.5
			c0.4-0.4,0.2-1.4,1.2-1.3C248.5,132.6,248.9,132.6,248.8,133.1z M252.9,131c-0.5-0.2,0.2-0.6,0-1.2
			C254,130.1,252.7,130.6,252.9,131z M272.1,120.7c0.4-0.5-0.1-0.2-0.5-0.2c-0.1-0.3,0.1-0.4,0.2-0.7c0.3,0.6,1.5,0.3,1.5,1.2
			C272.9,121,272.4,120.9,272.1,120.7z"/>
		<path class="st2" d="M332.8,128.7c-0.1,0.4-0.3,0.7-0.6,1v0.1c-0.1,0.2-0.1,0.5-0.2,0.6v0.1c0,0.3,0,0.5,0.2,0.6
			c0-0.3,0-0.6,0.2-0.6c0.3,0.3-0.1,0.4-0.2,0.7v0.1c0.3,0.1,0,0.7-0.1,0.8c-0.1-0.1,0-0.4-0.3-0.3v0.2v0.2c0.3-0.1,0.7,0.3,0.3,0.7
			v0.1c0,0.1-0.1,0.1-0.2,0.1c0.2,0.4,0.3,0.9,0.1,1.4v0.1c0.1,0.3-0.2,0.9,0.2,0.8c0-0.2,0.1-0.2,0.1-0.3c0-0.2,0-0.4,0.1-0.4v-0.1
			c0-0.2,0-0.4,0.1-0.4c-0.1-0.7,0.2-1.1,0.2-1.7v-0.6v-0.1c0-0.2,0-0.4,0.1-0.4c-0.1-1-0.1-1.4,0.1-2.2
			C332.8,129,333,128.7,332.8,128.7z"/>
		<polygon class="st2" points="329.2,129.3 329.2,129 329,129 329,129.4 329.2,129.4 		"/>
		<path class="st2" d="M329,130.2c0,0.1,0,0.2-0.1,0.2v0.6h0.2v-0.1C329.1,130.7,329.2,130.2,329,130.2z"/>
		<path class="st2" d="M328.8,131.7c0.1,0.3-0.1,1,0.1,1.1c0-0.1,0-0.2,0.1-0.2v-0.1C328.9,132.2,329.2,131.6,328.8,131.7z"/>
		<path class="st2" d="M328.5,134.3c-0.2,0-0.3,0.1-0.3,0.2c0,0.2,0,0.4,0.1,0.4c0-0.4,0.1,0,0.3-0.1
			C328.8,134.8,328.9,134,328.5,134.3z"/>
		<path class="st2" d="M328.2,136.2c0.1-0.1,0.2-0.2,0.3-0.2v-0.2c-0.2,0-0.2-0.1-0.3-0.1C328.4,135.9,327.9,136.1,328.2,136.2z"/>
		<path class="st2" d="M326.7,139.4c0-0.2,0.3-0.6,0-0.8c-0.2,0.3-0.4,0.5-0.3,1c0.2,0,0.2-0.1,0.3-0.1V139.4z"/>
		<path class="st2" d="M324.9,143.4v0.2c0,0.1,0,0.3,0.1,0.3c-0.1-0.3,0.1-0.3,0.1-0.6c0-0.2,0.1-0.2,0.1-0.4c0-0.3,0-0.6,0.1-0.8
			c0-0.2,0-0.4,0.1-0.4c0.1,0,0.1-0.1,0.1-0.2c-0.3,0-0.4,0-0.4,0.2c-0.1,0.3,0,0.8-0.2,1v0.1C325.2,143,324.8,143.2,324.9,143.4z"
			/>
		<path class="st2" d="M327.1,143.4c0,0.1-0.1,0.2-0.1,0.3c0,0.2,0,0.4-0.1,0.4v0.1c0,0.3-0.2,0.3-0.1,0.7v0.7
			c0.1,0,0.2-0.1,0.3-0.1v-0.4c-0.2-0.4,0-0.7,0.2-1c0-0.1,0-0.1,0.1-0.1c0-0.4,0-0.6,0.1-0.9C327.1,143.1,327.2,143.3,327.1,143.4z
			"/>
		<path class="st2" d="M324.8,146.5v-0.3c0.1-0.2-0.1-0.7,0.1-0.8c0-0.1,0-0.2,0.1-0.2c0.1-0.2-0.1-0.6,0.1-0.7v-0.2
			c-0.2-0.1-0.3-0.1-0.4,0v0.1c-0.4,0.4,0.1,0.8-0.1,1.1v0.1c0,0.4-0.1,0.5-0.5,0.4c0.1-0.4-0.2-0.4-0.1-0.8v-0.2v-0.4h-0.1
			c-0.2,0,0,0.5-0.2,0.6v0.1c0.1,0.4-0.2,0.5-0.1,1v0.3c0.4,0.4,0.3-0.3,0.8-0.2c0.3,0.1-0.1,1.2,0.3,0.8
			C324.7,147,324.5,146.6,324.8,146.5z"/>
		<path class="st2" d="M324,147c-0.3-0.1-0.2,0.2-0.4,0.2v0.1c0.1,0-0.2,0.4-0.2,0.6c0.1,0.3,0,0.3,0,0.8c0.2,0.4-0.3,0.2-0.2,0.6
			c0,0.2,0.1,0.2,0.1,0.3h0.2c0-0.2,0.3-0.2,0.3-0.4v-0.8c-0.3-0.1,0.1-0.4,0.2-0.6c0-0.1,0-0.1,0.1-0.1v-0.2
			C323.8,147.3,324,147.3,324,147z"/>
		<path class="st2" d="M336,55.6h0.1c0-0.2,0.2-0.3,0.2-0.6c-0.1,0-0.1-0.1-0.1-0.2c-0.2,0.1-0.2-0.6,0-0.5v-0.5
			c-0.2-0.2-0.3-0.5-0.7-0.5c0-0.2,0.2-0.2,0.1-0.4c-0.2,0-0.2-0.2-0.2-0.5c0-0.1,0-0.1-0.1-0.1c-0.2,0.1-0.2-0.5,0-0.5v-0.1
			c0-0.2,0.1-0.2,0.1-0.4c0.2-0.1,0-0.4,0.2-0.4c0-0.3-0.2-0.2-0.1-0.6c-0.2,0.1-0.4-0.5-0.1-0.5v-0.1c0.1-0.4,0.1-0.6,0-1v-0.1
			c-0.1,0-0.1-0.2-0.1-0.3c-0.2-0.1-0.2-0.4-0.2-0.6v-0.2c-0.3,0-0.5-0.2-0.7-0.3c-0.3,0-0.4-0.2-0.3-0.4c-0.1,0-0.1,0-0.1-0.1
			c0-0.2,0-0.2-0.1-0.3c-0.1-0.1-0.3-0.2-0.5-0.1c-0.3,0.3-0.7-0.4-0.9-0.6c-0.1,0-0.1,0-0.1-0.1c-0.1-0.2-0.5,0-0.6-0.2
			c-0.1,0-0.3,0-0.3-0.1h-0.1c-0.2,0-0.4,0-0.4-0.1c0-0.1-0.1-0.1-0.1-0.2h-0.1c-0.5-0.1-1,0.3-1.2-0.1h-0.1c-0.2,0-0.1-0.3-0.4-0.2
			h-0.1c0,0.2-0.3,0.1-0.4,0.1h-0.1c-0.3,0.3-0.9,0-1.1-0.1v-0.1c-0.2,0-0.3,0-0.3-0.1h-0.4c0,0.2-0.4,0-0.5,0.1
			c0,0.1,0,0.1-0.1,0.1c-0.4,0.2-0.6,0.4-1,0.5c-0.1,0-0.1,0-0.1,0.1c-1.2,0.4-1.8,1.4-2.7,2.1c0,0.1,0,0.2-0.1,0.2
			c-0.1,0.2-0.1,0.4-0.3,0.4c0,0.3-0.3,0.4-0.5,0.6c-0.4,0-0.4,0.4-0.6,0.7v0.2c-0.2,0.3-0.3,0.6-0.7,0.8c-0.1,0-0.2,0-0.2-0.1
			c-0.3,0.2-0.5,0.4-0.5,0.8c-0.1,0.4,0.2,0.4,0.1,0.8c0.1,0.2,0.2,0.9,0.1,1V53v0.6c-0.2,0-0.2,0.3-0.5,0.3h-0.1
			c-0.1,0.2-0.2,0.2-0.4,0.2c0,0.1-0.2,0.1-0.3,0.1c0.4,0.3,0.1,0.7,0.5,0.9v0.1c-0.2,0.4,0.2,1,0.1,1.3v0.2c0,0.3,0,0.5-0.2,0.6
			c0,0.2-0.1,0.2-0.1,0.4c0.2,0.2-0.1,0.9-0.3,1v0.1c0.1,0.4-0.2,0.4-0.2,0.8v0.1c-0.1,0.2,0.3,0.5,0,0.5v0.1
			c-0.6,0.5,0,1.3-0.3,1.8v0.1c0,0.3,0.3,0.6-0.1,0.7c0,0.1-0.1,0.2-0.2,0.2c0,0.1-0.1,0.1-0.2,0.1v0.1c0.2-0.1,0.5,0.2,0.2,0.2v0.4
			c0,0.3-0.1,0.4-0.4,0.6v0.2c0.2,0.3,0.8,0.7,0.6,1c0,0.1,0.1,0.2,0.1,0.3c-0.1,0.2,0.1,0.6-0.1,0.6v0.1c0.1,0,0.2,0.1,0.2,0.2
			c0.2-0.1,0.2,0.5,0,0.4c0,0.1-0.1,0.1-0.1,0.2c-0.3,0.2,0.3,0.4,0,0.7c-0.1,0.2-0.2,0.4-0.4,0.3c-0.1,0.3-0.5,0.3-0.5,0.8v0.4
			c0.2-0.1,0.2,0.5,0,0.4v0.2c0,0.2-0.1,0.4-0.2,0.4v0.2c0.2,0.4,0.3,1.1,0,1.4v0.1c-0.2,0.3-0.4,0.6-0.8,0.8
			c-0.1,0.3,0.1,0.9-0.1,1c0,0.3,0,0.5-0.2,0.6c-0.2,0.2,0,0.7-0.2,0.9c-0.1,0-0.1,0-0.1,0.1c0.1,0.1,0.2,0.6,0,0.7v0.3
			c0.2-0.1,0.2,0.5,0,0.4v0.1c-0.2,0.2-0.2,0.5-0.4,0.6c0,0.2-0.1,0.2-0.1,0.4v0.1c-0.2,0.4-0.3,0.9-0.8,1c-0.2,0.1,0,0.4-0.2,0.4
			c0,0.1,0,0.3-0.1,0.3c0,0.3-0.1,0.5-0.2,0.6c0,0.3,0,0.4-0.1,0.6h-0.4c-0.5,0.5-0.6,1.5-1.2,1.9v0.1c0.1,0.7-0.9,0.3-0.9,1
			c-0.2,0.1-0.3,0.4-0.5,0.6c-0.1,0.1-0.1,0.2-0.2,0.3c-0.2,0.2-0.4,0.4-0.5,0.6c-0.2,0-0.4,0-0.5,0.1c-0.2,0.1-0.2,0.4-0.4,0.4v0.6
			c-0.4,0-0.5,0.1-0.8,0.2c0,0.2,0,0.4-0.1,0.4v0.3c-0.1,0-0.1,0.1-0.2,0.1c-0.4,0-0.6,0.3-0.8,0.6c0,0.1,0,0.1-0.1,0.1
			c-0.2,0.2-0.5,0.2-0.7,0.4c0,0.4-0.4,0.3-0.5,0.6c-0.3-0.1-0.2,0.2-0.5,0.2c-0.3,0.2-0.5,0.4-0.7,0.7c-0.1,0.2-0.2,0.3-0.5,0.4
			v0.2c-0.4-0.1-0.4,0.2-0.5,0.4h-0.1h-0.1c-0.1,0.3-0.1,0.5-0.4,0.6c-0.3,0.3-0.7,0.5-1.1,0.8h-0.1c-0.3,0.1-0.6,0.2-0.8,0.4
			c-0.2,0.1-0.1,0.3-0.5,0.2c-0.1,0.2-0.3,0.4-0.7,0.3h-0.5c-0.4,0.3-1.2,0.2-1.9,0.2c0,0.1-0.1,0.1-0.2,0.1c0,0.2-0.5,0.1-0.7,0.1
			c-0.3,0.1-0.5,0.2-0.9,0.2h-0.2c-0.2,0.2-0.8,0.1-1.1,0.2h-0.1c-0.7,0.1-1.3,0.4-2.1,0.3c-0.1,0.2-0.3,0.3-0.5,0.4
			c0,0.2,0,0.2-0.1,0.3c0,0.1-0.1,0.1-0.1,0.2c0.2,0.1,0.4,0.2,0.3,0.4c0,0.1,0,0.1,0.1,0.1h0.4c0-0.1,0-0.1,0.1-0.1h0.2
			c0.3-0.2,0.4-0.6,0.8-0.7h0.2c0-0.1,0.2-0.1,0.3-0.1c0-0.2,0.3-0.1,0.4-0.1c0.1-0.1,0.4-0.1,0.6,0h0.8c0.4-0.1,0.3,0.2,0.5,0.2
			c0,0.2-0.5,0.1-0.8,0.1h-0.1c0,0.1,0.1,0.1,0.1,0.2h0.4c0.3,0,0.5,0,0.6,0.2h0.3c0.3,0,0.3,0.2,0.7,0.1h0.4c0.2,0,0.4,0,0.5,0.1
			c-0.2,0.2-0.3-0.1-0.6,0.1h-0.1c-0.3-0.1-0.3-0.1-0.7,0h-0.1c0,0.3-0.5,0.2-0.9,0.2c-0.1,0-0.2,0.2-0.3,0h-0.2
			c0,0.2-0.3,0.1-0.5,0.1h-0.3c-0.2,0-0.2,0.1-0.5,0.1c-0.1,0-0.2,0.2-0.5,0.1c-0.6-0.1-0.7,0.2-1.2,0.2h-0.2c0,0.2-0.4,0.1-0.5,0.1
			h-0.7c0,0.2-0.4,0.1-0.6,0.1c-0.1,0-0.2,0.2-0.4,0.1c-0.6,0.2-1,0.5-1.5,0.8c0,0.1-0.1,0.1-0.2,0.1c-0.2,0.2-0.4,0.5-0.6,0.8
			c-0.1,0.4-0.4,0.7-0.5,1c-0.3,0.5-0.4,1.2-0.7,1.8v0.3c-0.2,0.2,0,0.7-0.2,0.9c-0.1,0.3-0.1,0.8-0.1,1.2v0.2
			c-0.1,0.6,0.2,0.9,0.1,1.6c-0.1,0.1-0.1,0.2-0.1,0.3c0.6,0.1,1.2,0.1,1.8,0c0-0.1,0-0.2,0.1-0.2v-0.7c0.1-0.2-0.1-0.6,0.1-0.6
			c0-0.2,0.1-0.2,0.1-0.3c-0.3-0.1,0.1-0.4,0-0.6c-0.2-0.1-0.2-0.1-0.3,0v0.2c-0.1,0.2-0.1,0.5-0.2,0.6v0.1c0,0.2,0,0.4-0.1,0.4
			c0,0.2-0.1,0.4-0.2,0.4c-0.1,0.8-1-0.2-0.7-0.9v-0.1c-0.1-0.3-0.4-0.9-0.1-1.2c0.1-0.3-0.1-0.8,0.1-0.9c0-0.1,0-0.2,0.1-0.2
			c0-0.3,0-0.5,0.2-0.6c0-0.1,0-0.2,0.1-0.2c0-0.2,0-0.4,0.1-0.4c0-0.1,0-0.2,0.1-0.2c0-0.6,0.5-0.8,0.9-1.1
			c0.1-0.2,0.3-0.3,0.5-0.3c0.1-0.4,0.9-0.1,1.1-0.3c0.2,0,0.2-0.3,0.4-0.3c-0.1-0.2,0.5-0.2,0.5,0c0.6,0.2,0.7-0.2,1.3,0
			c0.2-0.1,1.3-0.1,1.4,0.2c0.3,0.1,0.4-0.1,0.7-0.1c-0.1-0.2,0.5-0.2,0.5,0h0.2c0.2,0,0.4,0,0.5,0.2c-0.2,0-0.1,0.3-0.5,0.2h-0.4
			c-0.1,0.2-0.5,0.1-0.8,0.1c-0.5,0-0.7,0.3-1.1,0.3c0,0.2-0.3,0.1-0.5,0.1h-0.1c-0.1,0.2-0.4,0.2-0.5,0.2c0,0.2-0.5,0-0.5,0.2
			c-0.2,0.1-0.5,0.2-0.7,0.3c-0.1,0.2-0.3,0.3-0.6,0.4c-0.1,0.2-0.2,0.3-0.4,0.4h-0.1c-0.2,0.2-0.3,0.7-0.5,0.9v0.1
			c-0.1,0.3,0.2,0.2,0.3,0.3h0.1c0.2-0.3,0.5-0.6,0.8-0.8c0.6-0.6,2.1-0.9,3-0.9c0.1-0.2,0.6-0.1,0.8-0.2h0.3c0-0.1,0.2-0.1,0.3-0.1
			c0-0.2,0.8-0.2,0.8,0h0.1c-0.1-0.2,0.5-0.2,0.5,0h0.2c0.5-0.2,1.7-0.2,2,0.1c0.9-0.1,1.5,0.1,2.2,0.2c0.2,0,0.4,0,0.5,0.1
			c0.3-0.1,0.4,0.1,0.5,0.3c0.1,0,0.2,0.1,0.3,0.1c0.1-0.2,0.8-0.2,0.8,0.1c0.1,0,0.3,0,0.3,0.1c0.1,0,0.2-0.2,0.4-0.1
			c0.3-0.2,0.9,0.3,1.5,0.3c1.7,0.1,2.5-0.4,3.8-0.6c0.4-0.4,0.6-0.3,1.3-0.3c0.6-0.2,1.2-0.3,1.9-0.3c0.5-0.1,0.8-0.4,1.1-0.7h0.2
			c0.4,0.1,0.5-0.1,0.7-0.2h0.2c0.1,0,0.1,0,0.1-0.1c0.1-0.2,0.2-0.4,0.5-0.4c0-0.2,0.4-0.1,0.6-0.1c0.1,0,0.1-0.1,0.2-0.1
			c0.1-0.2,0.3-0.4,0.7-0.3h0.1c0.7-0.2,1.2-0.6,1.8-1c0-0.2,0.3-0.1,0.4-0.1c0-0.1,0.1-0.1,0.2-0.1c0-0.3,0.5-0.2,0.8-0.2v-0.1
			c0-0.2,0.3-0.1,0.4-0.1c0.2,0.3,0.7,0.4,0.5,0.9c0.1,0,0.1,0.2,0.1,0.3c0.3,0.2,0,0.7-0.2,0.8c-0.1,0.4,0.1,0.5,0.1,0.8v0.1
			c0.2,0.1,0.2,0.4,0.2,0.6c0.2-0.1,0.2,0.6,0,0.6v0.1c0,0.2-0.1,0.2-0.1,0.4c0.1,0.1,0.6,0.4,0.2,0.6v0.1c0.2-0.1,0.2,0.5,0,0.4
			c-0.1,0.2,0.1,0.6-0.1,0.6c0,0.2,0,0.2,0.1,0.3c0.2,0.1,0.4,0.8,0.1,1v0.2c0.1,0.3,0.4,1.1,0.1,1.3v0.3c0.2,0,0,0.4,0.1,0.6
			c-0.1,0.5,0.2,0.7,0.1,1.2v0.7c0.3,0.3,0.1,0.4,0.2,0.8c0.2,0.2,0,0.2-0.1,0.4c0.3,0.2,0.3,0.7-0.1,0.8v0.2
			c0.2,0.1,0.4,0.4,0.2,0.7c-0.2,0.5,0.2,1.2,0,1.6v0.1c0.2,0,0,0.5,0.1,0.7v0.3v0.2c0.1,0.8-0.1,1.4,0,2.4c0,0.5,0.1,0.5,0,1v0.1
			c0.2-0.1,0.2,0.6,0,0.6c-0.1,0.2,0.1,0.6-0.1,0.6v0.4c0.3,0,0.1,0.5,0,0.6v0.1c0.2,0,0,0.4,0.1,0.6v0.1c0.1,0,0.1,0.2,0.1,0.3
			c-0.2,0.2-0.4-0.3-0.4,0c0.1,0.2,0.3,0.3,0.3,0.6v0.2v0.4v0.2v0.4c0.1,1.4-0.1,2.3,0,3.3c-0.1,0.4,0.3,0.8-0.1,0.9v0.1v0.1
			c0.4,0.1,0,0.3,0.2,0.7v0.1c0,0.2,0.1,0.6-0.1,0.6c0,0.2,0,0.3,0.1,0.4c0.2,0.1,0.2,0.9,0,1v0.1c-0.1,0.8,0.3,1.5,0,2
			c0,0.3,0,0.5-0.1,0.7c0.2-0.1,0.2,0.5,0,0.4c-0.1,0.4,0.1,1,0,1.7c0,0.2,0,0.4-0.1,0.4c0.2,0.5,0.2,1.8,0,2.3v0.1
			c0,0.4,0.3,1,0,1.3c0.1,0.1,0.1,0.4,0,0.6v0.6v0.3c-0.1,0.3,0,0.9-0.2,1.1v0.7c-0.1,0.2,0.1,0.7-0.1,0.7c0,0.3,0.1,0.7-0.1,0.9
			c0.2,0.1,0,0.6,0.1,0.8c0.1,0.4-0.1,0.5-0.1,0.9c0,0.2,0,0.4,0.1,0.4c0.1-0.3,0.3,0.2,0.4-0.1c0-0.1,0-0.3,0.2-0.2h0.1
			c0-0.1,0.1-0.2,0.1-0.3c0.1-0.2,0.4-0.4,0-0.2h-0.1c-0.1,0.3-0.6,0-0.4-0.3c-0.1-0.4,0.3-0.4,0.3-0.7c0-0.4,0.1-0.8,0.2-1
			c0,0.2,0.1,0.3,0.2,0.3v-0.3v-0.2c-0.1-0.4,0.4-0.2,0.3-0.6c0-0.1-0.2-0.1-0.2-0.2v-0.1c-0.1-0.6,0.8-0.6,0.6-0.9h-0.1
			c-0.1,0.1-0.4,0.1-0.4,0.3v0.1c-0.1,0.2-0.2,0.2-0.3,0.1c0-0.1,0-0.2,0.1-0.2c-0.1-0.4,0.1-0.5,0.2-0.8c0.4-0.5,0.2-1.2,0.4-1.8
			v-0.2c0-0.1,0.1-0.2,0.3-0.2c0.2,1.1-0.8,1.2-0.1,1.9h0.1h0.1c0-0.1,0.4-0.5,0.5-0.2v0.1c0.1,0.1,0.1,0.9-0.2,1v0.3
			c-0.1,0.1-0.1,0.3-0.1,0.6v0.1c0,0.2,0,0.4-0.1,0.4v0.2c0.2,0,0.3,0.1,0.2,0.3c-0.1,0-0.1-0.1-0.3-0.1c-0.1,0.2,0.3,0.4,0,0.4v0.1
			c-0.3,0.1,0.1,0.7-0.1,0.7c0,0.3,0,0.5-0.1,0.7c0.4,0.1,0.2,0.6,0.1,0.8c-0.2,0-0.1-0.3-0.2-0.3c-0.2,0.6,0.2,0.5,0.4,0.7
			c-0.1,0.8-0.6,0.8-1.2,0.9h-0.1c-0.1,0-0.2,0.1-0.3,0.1h-0.2H320c-0.1-0.3,0.3-0.4,0-0.4c-0.4,0.2-0.3,0.8-0.4,1.1
			c0,0.2,0,0.3-0.1,0.4c-0.1,0.3-0.1,0.3,0,0.7v0.3c-0.2,0.1-0.2,0.5-0.6,0.4c-0.1,0.1-0.4,0.1-0.7,0.1c0,1.2-0.2,2.4-0.6,3.5
			c0,0.1-0.1,0.2-0.1,0.2c0.1,0.1,0.2,0.2,0.2,0.4c-0.2,0-0.3,0-0.4-0.1c-0.1,0.1-0.1,0.2-0.2,0.3c0,0,0.1,0,0.1,0
			c0,0.5,0.4,0.6,0.5,1.1h-0.1c-0.4,0.1-0.4-0.2-0.8-0.1c-0.2,0-0.2,0.1-0.3,0.1h-0.2c-0.4,0.1,0.5,0.4,0.1,0.6
			c-0.1,0-0.2,0.2-0.3,0c-0.1,0-0.3,0-0.3-0.1c-0.1,0-0.2,0-0.2,0c-0.1,0.1-0.2,0.1-0.3,0.2c0,0,0,0,0,0c0.3,0.1,0.5,0.2,0.7,0.4
			c0.3,0,0.4,0.2,0.5,0.3c0.4,0.1,0.7,0.4,0.8,0.8c0.1,0,0.1,0.1,0.1,0.2c0.2,0,0,0.4,0.1,0.6c0.1,0,0.1,0.1,0.1,0.2
			c0.4,0,0.1,0.7,0.7,0.6c0.2-0.1,0.3-0.4,0.5-0.6v-0.1c-0.3-0.1,0.1-0.9,0.2-0.6c0.6-0.1,0.6,0,1.1,0.1c0.1-0.1,0.1-0.4,0-0.6V159
			c0.1-0.2-0.1-0.7,0.1-0.8c0-0.1,0-0.3,0.1-0.3c0-0.3,0.1-0.5,0.2-0.7c0.1-0.2-0.1-0.6,0.1-0.7v-0.1c0.1-0.5-0.3-1,0-1.3
			c0.1,0,0.1,0,0.1-0.1c-0.1-0.1-0.2-0.7,0.1-0.7v-0.1c-0.1-0.3-0.1-0.5-0.1-0.9c0.2,0,0.4,0,0.4-0.1v-0.1c-0.2-0.5,0.3-1,0.1-1.2
			c0.6,0.1,0.1,0.5,0.5,0.8h0.1c0.3,0,0.1-0.4,0.5-0.3c0-0.1,0.2-0.1,0.2-0.2c-0.3,0-0.4-0.1-0.3-0.4c0.5,0.1,0.5-0.2,0.7-0.3
			c0-0.2,0.1-0.4,0.2-0.4v-0.2c-0.1-0.2,0.3-0.4,0-0.4c-0.4,0.6-0.8,1.4-1.4,0.9v-0.1c0.1-0.5,0.4,0.3,0.7-0.1
			c0-0.2,0.1-0.4,0.2-0.4v-0.3c-0.2,0-0.1-0.3-0.1-0.4c-0.4-0.1-0.1,0.5-0.5,0.6c0,0.1,0,0.1-0.1,0.1c0,0.3-0.5,0.2-0.4-0.1
			c-0.6,0.1-1-0.1-1.3,0c-0.2,0.4-0.3-0.2-0.2-0.4h0.1c0-0.1,0-0.3,0.2-0.2c0.4,0.3,0.4-0.4,0.7-0.4h0.1c0.3,0,0.1,0.4,0.5,0.3
			c0.2-0.1,0-0.5,0.3-0.6h0.1c0.4,0,0.4-0.4,0.8-0.4c0-0.2,0-0.3,0.1-0.4c0-0.6-0.4,0.4-0.5-0.2c0.5-0.1,0.5-0.4,0.6-0.7
			c0-0.3,0.2-0.2,0.1-0.6c0-0.2,0.3-0.1,0.2-0.4c-0.2-0.2,0-0.6,0.1-0.9c0.3-0.6,0.5-0.7,0.3-1.6c0.1-0.1,0.4,0,0.4-0.2
			c-0.3-0.2-0.1-0.5-0.1-0.8c0-0.2,0-0.4,0.1-0.6c0-0.2,0.1-0.4,0.2-0.4c0.2,0,0.2,0.1,0.3,0.2c0-0.2,0-0.4,0.1-0.4
			c0-0.3,0-0.6,0.1-0.8c0-0.3-0.1-0.7,0.3-0.7v0.1v0.1c0.1,0.2-0.1,0.7,0.1,0.8c0.1,0,0.2-0.2,0.4-0.1c0.1-0.3-0.4-0.8,0.1-0.8V140
			c-0.1-0.4,0.2-0.4,0.1-0.8v-0.4c0.1-0.5,0.1-1.6,0.7-1c0-0.1-0.2-0.2,0-0.2c0-0.1,0.1-0.2,0.1-0.3c-0.2,0-0.1-0.3-0.1-0.4
			c-0.1,0-0.1,0.1-0.3,0.1c0.1-0.1,0.1-0.4,0.1-0.7v-0.1c0-0.4,0.3-0.4,0.2-0.8v-0.1c-0.2-0.1,0-0.6,0.2-0.6
			c0.3-0.3-0.1-0.5-0.1-0.8c0-0.3,0-0.5,0.2-0.6v-0.1c0-0.1,0.1-0.2,0.1-0.4c-0.1-1-0.1-2.2,0.4-2.9v-0.2c-0.1,0-0.1-0.2-0.1-0.3
			v-0.2c0.2-0.1,0.5-0.1,0.6-0.3c0.1,0,0.2-0.1,0.2-0.2c-0.1,0.1-0.9,0.3-0.8-0.1v-0.1c-0.2,0-0.1-0.3-0.1-0.4
			c0.1-0.2,0.1-0.5,0.2-0.6v-0.1c0-0.3-0.2-0.3,0.1-0.4c0-0.3,0-0.4,0.1-0.6c0.1-0.2,0.2-0.3,0.2-0.4c0-0.1,0.2-0.1,0.3-0.1
			c-0.1-0.3-0.5-0.3-0.5-0.7h0.1c0-0.1,0-0.3,0.1-0.3c0-0.3,0.2-0.2,0.1-0.6c0.1-0.1,0.2-0.4-0.1-0.3c-0.4,0.1-0.2-0.6-0.1-0.7
			c0-0.2,0-0.4,0.1-0.4v-0.6c0-0.2,0.3-0.1,0.3-0.2c0-0.2-0.6,0.1-0.2-0.2c-0.1-0.5,0-0.9,0.3-1.2c0-0.3,0-0.5,0.2-0.6v-0.1
			c-0.2,0-0.1-0.4-0.2-0.4c-0.1-0.3,0.3-0.2,0.2-0.6c0-0.2,0-0.4,0.2-0.4v-0.4c0.1-0.3,0.5,0,0.5-0.6c0.2,0.1,0.1,0.3,0.3,0.1
			c0-0.1,0-0.3,0.2-0.2c0.1-0.1,0.1-0.2,0.3-0.2c0.1,0.1,0.1,0.3,0.1,0.6c0,0.2,0.4,0.1,0.5,0.3c-0.1,0.2-0.2,0.5-0.3,0.7
			c-0.1,0.5,0,0.7,0.3,0.8h0.1c0.4,0.2-0.1,0.4-0.1,0.7v0.2c0.1,0,0.1,0.2,0.1,0.3c0.2,0,0.1-0.4,0.2-0.4c0.1,0,0.1,0.2,0.2,0.2
			c0,0.1,0,0.1-0.1,0.1v0.4c0,0.3-0.5,0.1-0.7,0.3h-0.1c0,0.1,0,0.1-0.1,0.1c0.1,0.2,0.2,0.2,0.3,0.1c0.4,0,0.4,1,0.1,1.6v0.4v0.4
			c-0.1,0.2,0,0.6-0.2,0.7v0.1c0.2,0,0.1,0.3,0.1,0.4c0,0.4-0.4,0.4-0.2,1c-0.1,0.4,0.3,0.8,0,1c0.1,0.3-0.2,0.4-0.1,0.8
			c0.1,0.1,0.1,0.3,0.1,0.6c0,0.7,0.2,1.2-0.1,1.8v0.1c-0.1,0.6,0.3,0.6,0.2,1h-0.1v0.1c0.3,0.2,0.2,0.8,0,1.1c0,0.1,0,0.2-0.1,0.2
			c-0.1,0.2-0.3,0.3-0.3,0.6c0,0.6,0,1.1-0.2,1.6c-0.1,0.4-0.2,0.7-0.4,0.9c0.3,0.1,0.2,0.6,0.5,0.7c0.2-0.1,0-0.5,0.2-0.6
			c0.1-0.2,0.1-0.5,0.2-0.6c-0.1-0.4,0.2-0.4,0.3-0.4c-0.1-0.3,0.4-0.5-0.1-0.4v-0.1v-0.7c0.1-0.1,0.1-0.4,0.1-0.7h0.1
			c0-0.2,0-0.3,0.1-0.4c0.1-0.2-0.1-0.6,0.1-0.6c0.2-0.5-0.3-0.3-0.2-0.8c0.2-0.2,0.4-0.4,0.4-0.7c0.1-0.6,0.1-1.3,0.3-1.8
			c-0.2-0.3,0-0.5,0.1-0.8c0.4-0.6,0-1.3,0.6-1.8v-0.1c-0.2-0.3,0-0.6,0.1-1.1c0.2,0.2,0,0.8,0.1,1.1v0.1c-0.1,0.4,0,0.8-0.2,1.1
			c0.3,0.2,0,0.4,0,0.8c0,0.2,0.2,0.2,0.2,0.3c0.2,0,0.2-0.1,0.4-0.1c0-0.3,0-0.5,0.1-0.7c-0.1-0.4,0.1-0.5,0.1-0.8
			c-0.1-0.4,0.1-0.6,0.2-0.8c0.1-0.4-0.4-0.2-0.2-0.7h0.1v-0.2c-0.2,0,0-0.2,0.2-0.1v-0.3h0.1V124c0-0.5-0.2,0-0.2,0.1
			c-0.2,0,0-0.4-0.1-0.6h0.1v-0.2c0.1,0,0.3,0,0.3-0.1c0.1-0.4-0.1-1.1,0.1-1.3v-0.1c-0.3-0.2,0.1-0.4,0-0.8c-0.1,0-0.1-0.2-0.1-0.3
			h0.1c0.1-0.2-0.1-0.7,0.1-0.8v-0.1v-0.4V119v-0.6V118c0.1-0.2-0.1-0.7,0.1-0.8v-0.3c-0.2-0.2,0-0.9-0.1-1.3v-0.1
			c-0.2-0.1,0-0.6-0.1-0.8c0.1-0.6,0.3-0.7,0.1-1.3c-0.2-0.1-0.2-0.9,0-1c-0.1-0.5-0.1-0.6,0-1.1c0.1-0.2-0.1-0.6,0.1-0.6v-0.4
			c-0.3-0.2,0.1-0.4,0-0.8c-0.2,0.1-0.2-0.5,0-0.4v-0.1c0.1-0.2-0.1-0.6,0.1-0.6v-0.2c-0.2-0.3-0.2-1.4,0-1.7v-0.2
			c-0.2-0.1-0.2-0.8,0-0.9V105v-0.4v-0.1c-0.2-0.2-0.2-1.2,0-1.4v-0.9c0-0.7-0.1-1.2,0-1.7v-1.9c0.1-0.2-0.1-0.7,0.1-0.7
			c0-0.1,0-0.2,0.1-0.2c0.1-0.3-0.1-0.4-0.1-0.7v-0.1c-0.2-0.1-0.2-0.9,0-1v-0.7c-0.2,0.1-0.2-0.6,0-0.6v-0.2
			c-0.2-0.3-0.2-1.4,0-1.7v-0.1c-0.1-0.6-0.1-1.5,0-2v-0.2c-0.2-0.5-0.3-1.4,0.1-1.9v-0.1c-0.2,0.1-0.3-0.6-0.1-0.7v-0.3
			c-0.2,0.1-0.2-0.5,0-0.4c-0.1-0.4-0.1-0.6,0-1c-0.2,0,0-0.4-0.1-0.6c-0.2,0.1-0.2-0.6,0-0.6v-0.4c0.1-0.2-0.3-0.5,0-0.6
			c0-0.2,0.1-0.2,0.1-0.4c-0.3-0.4,0.1-0.9,0-1.4v-0.3c-0.1,0-0.1-0.2-0.1-0.3c-0.2,0-0.2-0.7,0-0.7v-0.1c0-0.2,0.1-0.2,0.1-0.4
			c-0.1-0.3,0.2-0.2,0.2-0.4c0-0.3,0-0.4-0.1-0.6c-0.2-0.1,0-0.6-0.1-0.9v-0.1c-0.2-0.5,0-1.5,0.1-2.1c0.1-0.2-0.1-0.7,0.1-0.7
			c0-0.7,0.7-1,0.4-1.7c-0.5-0.1,0-0.5,0-0.8h0.1c0.1-0.3-0.1-0.5-0.3-0.6c-0.2-0.1,0-0.6-0.1-0.9c0-0.2-0.2-0.2-0.1-0.4
			c0-0.3,0.2-0.4,0.4-0.4c0.5-0.5,0.2-1.2,0.3-2.1c-0.3-0.1,0-0.6,0-0.8v-0.3c0.2-0.8-0.3-0.9-0.3-1.4c0-0.2,0-0.4,0.2-0.4h0.1
			c0-0.3,0.4-0.1,0.3-0.4h0.1c-0.3-0.6-0.7-1-0.9-1.7c0.2-0.2,0.3-0.7,0.7-0.8c0-0.3-0.2-0.2,0-0.5c-0.2,0,0-0.4-0.1-0.5
			c-0.2-0.5-0.2-1.2,0-1.6v-0.3c0-0.2,0-0.3-0.1-0.4v-0.1c-0.2,0-0.1-0.3-0.1-0.5c0-0.3-0.1-0.6,0.2-0.7c0-0.5,0.4-0.6,0.5-1
			c0-0.2,0-0.4,0.1-0.4c0.1-0.1,0.1-0.2,0.2-0.3v-0.2c-0.1,0-0.1-0.1-0.3-0.1v-0.2C336,55.7,336,55.7,336,55.6z M296,96.3
			C295.8,96.6,295.3,96.1,296,96.3L296,96.3z M320.6,140.4c0-0.1,0.1-0.1,0.1-0.2c0.1,0.1,0.2,0.1,0.2,0.3
			C320.7,140.6,320.7,140.4,320.6,140.4z M321.8,140c-0.6-0.2,0.2-0.5,0.1-1C322.3,139.1,321.9,139.7,321.8,140z M320.1,156v0.1
			c-0.3,0.4,0.2,1-0.2,1.3c-0.4-0.1-0.1-0.3-0.1-0.6c0-0.3-0.2-0.2-0.1-0.6c0-0.4,0.2-0.6,0.1-1.1
			C320.2,155.1,320.4,155.8,320.1,156z M320,154.8c-0.3-0.6,0.7-1.2,0.4-0.7v0.1C320.8,154.4,320.4,154.9,320,154.8z M320.2,151h0.1
			v-0.1c0.1-0.3,0.7-0.6,0.7,0v0.1c-0.3,0.7-0.1,1.9-0.9,2.1c-0.1-0.1-0.1-0.4-0.1-0.7v-0.1c0.1-0.6-0.2-0.8-0.2-1.3
			C320,150.9,320.2,151.3,320.2,151z M322.2,141.9c0.1-0.3,0.1-0.4,0-0.7c0.1,0,0.2,0,0.2-0.1C322.7,141.2,322.6,142,322.2,141.9z
			 M322.5,139.7c-0.3-0.6,0-1.4,0.1-2C323.1,138.2,322.5,138.9,322.5,139.7z M322.7,135c-0.1,0-0.1-0.3-0.1-0.4h0.3
			C323,134.9,322.7,134.8,322.7,135z M322.8,133.7v-0.3C323.1,133.2,323.1,133.8,322.8,133.7z M325.5,130c0.4-0.2,0.4,0.7,0,0.6V130
			z M325.7,138c0,0.4-0.2,0.5-0.2,0.9c-0.1,0.2,0.1,0.6-0.1,0.6c0,0.2,0,0.4-0.1,0.4c0,0.4-0.6-0.2-0.2-0.2c0.1-0.6,0.2-1.1,0.2-1.6
			V138c0-0.3,0.2-0.2,0.1-0.6c0.2-0.4-0.5-0.4-0.1-0.6v-0.3c0.1-0.1,0.4-0.8,0.5-0.3c0.1,0.1,0.1,0.3,0.1,0.6
			c-0.1,0.1-0.1,0.2-0.1,0.4v0.1C325.9,137.3,325.9,138,325.7,138z M326,132.4c0.1,0.4-0.3,0.3-0.3,0.6c-0.2,0-0.2-0.2-0.2-0.4
			c-0.1-0.6,0.1-0.9,0.6-0.9L326,132.4L326,132.4z M330.7,116.6c0-0.2,0.1-0.3,0.1-0.4c0.2,0,0.2,0.2,0.2,0.4H330.7z M332.7,123
			c-0.2-0.1-0.1-0.8,0-0.9C333,122.3,332.5,122.6,332.7,123z"/>
		<path class="st2" d="M327.5,140.7v0.2c0,0.2,0,0.4-0.1,0.4v0.1c0,0.2-0.2,0.3,0,0.3c0-0.2,0.5-0.2,0.3,0.1c0.1,0,0.1-0.2,0.2-0.2
			v-0.1c0.1-0.5-0.2-0.7-0.1-1.2C327.5,140.2,327.6,140.6,327.5,140.7z"/>
		<path class="st2" d="M329.2,138.9v0.4c0.1,0.2-0.1,0.7,0.1,0.7c0-0.2,0-0.3,0.1-0.3c-0.1-0.4,0.2-0.3,0.2-0.6v-0.9v-0.1
			C329.3,138.1,329.6,138.8,329.2,138.9z"/>
		<path class="st2" d="M326.6,146.3v0.1c-0.2,0.2,0,0.8-0.2,1c0,0.1,0,0.3-0.1,0.3c-0.1,0.8-0.3,1.5-0.5,2.1c0,0.1,0,0.2-0.1,0.2
			v0.3c-0.1,0.1,0,0.4-0.2,0.4c0.1,0.6-0.2,0.7-0.2,1.2H325c0,0.4-0.3,0.6-0.2,1c0,0.5-0.3,0.7-0.2,1.2c0.1,0.6,0.1-0.5,0.3-0.4
			v-0.1c0.2-0.1,0-0.5,0.2-0.6c0.4-0.7,0.3-1.2,0.8-1.9c0.1-0.1,0.1-0.3,0.1-0.6c0-0.2,0-0.4,0.1-0.4c0-0.2,0-0.4,0.1-0.4v-0.1
			c0.2-0.2,0-0.3,0-0.6c-0.3-0.1,0.1-0.3,0.1-0.4h0.1v-0.3c0-0.3,0-0.4,0.2-0.4c0-0.2,0-0.4,0.1-0.4v-0.2
			C326.7,147,326.9,146.4,326.6,146.3z"/>
		<path class="st2" d="M344,164.6c-0.2,0.4-0.4,0.2-0.7,0.3v0.4h0.1c0.1-0.1,0.2-0.1,0.4-0.1h0.1C344,165.1,344.4,164.7,344,164.6z"
			/>
		<path class="st2" d="M343,166.1v0.1c-0.1,0.2,0.2,0.6-0.1,0.7v0.1c-0.1,0.5-0.4,0.7-0.1,1.2c0.2,0,0.2-0.1,0.4-0.1
			c0-0.3,0.1-0.5,0.3-0.7c0-0.2-0.1-0.4,0.1-0.4v-0.3c-0.3-0.2-0.1-0.9-0.4-1.1C343,165.7,343.3,166.1,343,166.1z"/>
		<path class="st2" d="M340.5,166.8c-1,2.1-1.6,3.6-2.6,5.7c0.3,0.1,0.3,0.4,0.6,0.6c0-0.2,0.1-0.3,0.3-0.3v-0.3
			c0.2-0.3,0.2-0.7,0.6-0.9c0-0.1,0.1-0.1,0.1-0.2c0-0.2-0.1-0.4,0.1-0.4c0-0.3,0.2-0.3,0.1-0.7c0.2-0.1,0-0.4,0.3-0.4
			c0-0.1,0-0.2,0.1-0.2v-0.2v-0.4v-0.1c0-0.2,0.4-0.2,0.4-0.4c0.1-0.2,0.1-0.6,0.3-0.7v-0.2C340.2,167.4,340.9,166.9,340.5,166.8z"
			/>
		<path class="st2" d="M364,34.7c-0.1,0-0.2-0.1-0.1-0.2c-0.3-0.2-0.6-0.3-1-0.4h-0.7h-0.4c-0.4-0.1-0.4,0.2-0.9,0.1
			c-0.1,0.2-0.4,0.3-0.9,0.3c-0.3-0.1-0.4-0.4-0.6-0.6h-0.1c-0.7-0.2-1.2-0.5-2-0.5h-0.6c-0.1-0.2-0.8,0-0.9-0.2
			c-0.3,0-0.4-0.2-0.5-0.3c0,0,0,0,0.1-0.1c0.2-0.3-0.2-0.6,0.4-0.9c0-0.1,0-0.2,0-0.2c0.1-0.1,0.2-0.2,0.3-0.3
			c0.2-0.1,0.5-0.2,0.7-0.3c0,0,0.1,0,0.1-0.1c0.2-0.1,0.2-0.3,0.2-0.5c0-0.1,0.1-0.1,0.2-0.2c0.1,0,0.1-0.1,0.3,0
			c0.1-0.1,0.2-0.2,0.3-0.1c0.3-0.3,0.4-0.7,0.6-1c0,0,0,0,0.1,0c0,0-0.1-0.1-0.1-0.1c-0.2-0.1-0.3-0.2-0.3-0.3
			c-0.1,0-0.1-0.1-0.2-0.1c-0.1-0.2-0.2-0.3-0.4-0.3c0,0,0,0,0,0l0,0c0,0,0-0.1,0.1-0.1c0,0-0.1,0.1-0.1,0.1h0
			c-0.1,0.1-0.8,0.4-1,0.1c-0.4-0.1-1,0.1-1.2-0.1c-0.1,0-0.3-0.1-0.3-0.2c-0.1-0.1-0.6,0-0.6-0.2c-0.3,0.1-0.2-0.2-0.4-0.2
			c-0.7-0.2-0.8,0.9-1.5,1c-0.3,0-0.2,0.3-0.6,0.2c-0.1,0.2-0.5,0.3-0.7,0.4c-0.1,0.4,0.8,0.1,0.6,0.5c-0.1,0-0.2,0.1-0.3,0.1h-0.3
			c-0.1,0-0.1,0.1-0.3,0.1c0,0.2-0.6,0-0.9,0.1c-0.4-0.2-0.6-0.4-0.9-0.7c-0.3,0-0.3-0.1-0.6-0.1v0.4c-0.5,0.2-0.3,0.8-0.6,1.1
			c0,0.1,0,0.2-0.1,0.2c0,0.2,0,0.4-0.3,0.4v0.2c-0.3,0.3-0.5,0.7-0.9,0.9v0.1c0,0.2-0.1,0.2-0.1,0.3c0,0.2-0.1,0.4-0.3,0.4v0.1
			c-0.2,0.1-0.2,0.4-0.4,0.5v0.1c-0.1,0.2-0.1,0.5-0.3,0.5v0.1c-0.1,0.2-0.3,0.3-0.3,0.5H345v0.1c0,0.2,0,0.4-0.3,0.5v0.1
			c-0.2,0.2,0,0.7-0.3,0.8c0,0.2,0,0.4-0.1,0.4v0.1c-0.3,0.4-0.2,1.1-0.6,1.4c-0.1,0.2,0.2,0.6-0.1,0.5v0.1c-0.2,0.4-0.1,1-0.4,1.3
			v0.1c0.2,0.1,0,0.7-0.1,0.9c0,0.1,0,0.3-0.1,0.3v0.1c0,0.2,0,0.4-0.1,0.4c0.1,0.3-0.3,0.4-0.1,0.8c0.4,0.2-0.2,0.5-0.3,0.7v0.1
			c0.2-0.1,0.2,0.5,0,0.5v0.2c-0.3,0.3,0.1,0.4-0.1,0.8v0.4v0.5c-0.1,0.3,0.2,0.8-0.1,0.9c-0.2,0.6,0.4,1-0.1,1.2v0.1v0.6v0.1
			c0.2,0,0.2,0.8,0,0.8v0.3c0.2,0,0.1,0.3,0.1,0.4c-0.1,0.6-0.1,0.7,0,1.3c-0.1,0.2,0.2,0.7-0.1,0.8v0.2c0.1,0.3,0.4,1.1,0.1,1.4
			c-0.1,0.3,0.3,0.4,0,0.7c0,0.4,0.4,0.5,0.3,1v0.1c0.1,0,0.1,0.1,0.2,0.2c0,0-0.1,0.1-0.2,0.1c0,0.1,0,0.2,0,0.3
			c0.3,0.2-0.1,0.2,0,0.6c0.1,0,0.1,0,0.1,0.1c0,0.1,0,0.2,0,0.2c0,0.1-0.1,0.2-0.1,0.1c0,0.2,0.2,0.2,0.2,0.4c0,0,0,0,0,0
			c0,0.1,0,0.2,0,0.2c0,0-0.1,0.1-0.2,0.2c0,0,0,0.1,0,0.1c0.1,0,0.1,0.1,0.2,0.2h0v0.2c0.3,0.2,0,0.9,0.1,1.3
			c0.4,0.5,0.2,0.8,0.1,1.4v0.1c0.3,0-0.2,0.5,0.1,0.7c0.1,0.1,0.2,0.3,0.1,0.6c-0.2,0.3,0.4,0.5,0,0.5v0.2c0.3,0,0.1,0.5,0.1,0.7
			v0.1c0.3,0,0.1,0.5,0.1,0.7c0,0.4-0.2,0.4,0,0.8c-0.1,0.3,0.2,0.3,0.1,0.6v0.1c0.2,0,0.1,0.3,0.1,0.4c0.3,0.1,0.1,0.6,0.1,0.9v0.1
			c0.3,0,0.1,0.4,0.1,0.6v0.7v0.1c0.4,0.1,0.3,0.6,0.3,1v0.8c0.2,0.3,0,0.3,0,0.8v0.1c0.2,0.4,0.3,0.9,0.3,1.6v0.6
			c0.2-0.1,0.2,0.6,0,0.6c-0.1,0.9,0.5,1.2,0.4,2.1c0.3,0.1,0.1,0.6,0.1,0.8v0.4c-0.1,0.7,0.1,1.2,0.1,1.9v0.1
			c0.2,0.2,0.2,1.1,0,1.2v0.4c0,0.1,0.2,0.2,0.1,0.3c0.5,0.3-0.5,0.5,0,0.9v0.1c0.3,0,0.1,0.5,0.1,0.7v0.1c0.3,0.3,0,1,0.1,1.4
			c0,0.4,0.2,0.6,0.1,1c0.2,0,0.2,0.8,0,0.8v0.2l0,0c0,0,0,0.1,0,0.1c0.3,0,0,0.5,0.1,0.7c0,0,0,0,0,0.1c0,0.1,0,0.1,0,0.1
			c0,0.2-0.1,0.4-0.1,0.6c0.1,0,0.1,0.1,0.1,0.2c0,0.1,0,0.2,0,0.2c0,0.2-0.1,0.3-0.2,0.3c0.1,0.3,0.1,0.6-0.1,0.8
			c0,0.3,0,0.5,0.3,0.6v0.1c0,0.1,0,0.2,0,0.2c0,0,0.1,0,0.1,0c0,0.2,0,0.3,0,0.5c0,0-0.1,0.1-0.1,0.1c-0.1,0.2,0,0.4,0.1,0.6
			c0,0.1,0,0.2,0,0.3v0.1c0.3,0.1,0.1,0.6,0.1,0.8v0.4v0.4c0.2,0.1,0,0.9-0.1,1.1c0.1,0.6,0.3,1,0.1,1.6c0.3,0.2,0.2,1.1,0,1.3v0.1
			c0.2,0.1,0.2,0.9,0,1v0.4c0.2,0.2,0.2,1.1,0,1.2v0.1c0.2-0.1,0.2,0.5,0,0.4c0.1,0.5,0.1,0.8,0,1.1c0,0,0,0-0.1,0
			c0,0.1,0,0.1,0.1,0.1c0,0.1,0,0.2,0,0.2v0c0,0,0,0-0.1,0c0.2,0.4,0.3,0.7,0.1,1.1c0,0.2,0,0.2-0.1,0.3c0,0-0.1,0-0.1,0
			c0,0,0,0.1,0,0.1c0,0.1,0.1,0.3,0.1,0.4c0.2-0.1,0.4,0.6,0.1,0.6c0,0.1,0,0.1,0.1,0.2c0,0,0.1,0,0.1,0c0,0.3,0,0.7-0.1,0.9
			c0.2,0,0.2,0.8,0,0.8c-0.1,0.5,0.2,1.3-0.1,1.7v0.2c0.2,0.1,0.2,0.9,0,1v0.1c0.2,0.1,0.2,0.8,0,0.9v0.1v0c-0.1,0-0.3,0-0.4,0
			c0,0.1,0.1,0.2,0.2,0.3c0.3,0.2,0.1,0.7-0.1,0.9c0,0,0,0.1,0,0.1c0.1,0,0.2,0.1,0.3,0.1c0,0.2,0,0.4-0.2,0.5
			c0.1,0.3,0.1,0.5,0.2,0.8c0,0.1,0,0.2,0,0.2c0,0.1,0,0.2,0,0.3c0,0,0,0-0.1,0c0.2,0.4-0.3,0.3-0.1,0.7c0,0-0.1,0-0.1,0
			c0.4,0.5,0.5,0.8,0.1,1.2c0,0.1,0,0.2,0.1,0.3c0.1-0.1,0.2,0.1,0.2,0.3c0,0.1,0,0.1,0,0.2c0,0.1,0,0.1-0.1,0.1c0,0.1,0,0.1,0,0.2
			h0c0,0.2,0,0.4-0.1,0.5v0.2c0.2-0.1,0.2,0.5,0,0.4v0.2c0.3,0.2,0,0.8,0.1,1.1v0.1c0.3,0.1,0,0.7-0.1,0.9v0.2v0.2
			c0.2-0.1,0.2,0.5,0,0.5v0c0,0,0,0,0,0c0,0.1,0,0.2,0,0.2c0,0.1-0.1,0.2-0.2,0.2c0,0.1,0,0.3-0.2,0.3c0.1,0.2,0.4,0.9-0.1,1.1
			c0,0.1,0,0.1,0,0.2c0.2,0.1,0.3,0.2,0.2,0.4c0.1,0.1,0.1,0.4,0,0.6c0,0,0,0,0,0v0c-0.1,0.1-0.2,0.2-0.3,0.2c0,0.2-0.2,0.2-0.2,0.4
			c0.2,0.1,0.2,0.3,0.2,0.5c0.2,0.1,0.3,0.2,0.2,0.4c0.1,0,0.1,0,0.1,0.1c0,0,0,0,0,0.1c0,0.1,0,0.2,0,0.3l0,0c0,0,0.1,0,0.1,0
			c0,0.1,0,0.3,0.1,0.4v0.1c0,0.5,0.8,1,0.6,1.3v0.1c-0.1,0.2-0.2,0.5-0.2,0.9c-0.1,0-0.1,0-0.2,0c0,0.1,0,0.1,0,0.1
			c0.4,0.7-0.1,1.1,0.2,1.7c0,0-0.1,0-0.1,0c0.1,0.3,0.2,0.5-0.1,0.6c0,0.2,0.2,0.4,0,0.4c0,0.2,0.4,0.6,0.1,0.7
			c-0.1,0.3,0.1,0.8,0,1.1h0c0,0.1,0,0.2-0.1,0.3c0.3-0.1,0.5,0.3,0.4,0.9v0.6c-0.1,0.2,0.2,0.6-0.1,0.6c0.2,0.2,0.2,0.3,0,0.4
			c0,0.2,0,0.4-0.1,0.4v0.3c0,0.6,0,1.2-0.3,1.7v0.2v0.3c0,0.2,0.1,0.4-0.1,0.4v0.4c-0.1,0.2,0.2,0.6-0.1,0.6v0.1
			c-0.1,0.2,0.2,0.7-0.1,0.7c0,0.3,0,0.6-0.1,0.8c-0.1,0.3,0.2,0.9-0.1,1.1c0.1,0.3-0.2,0.3-0.1,0.6c0.1-0.1,0.1,0.7-0.1,0.8v0.1
			c0,0.2,0,0.4-0.1,0.4v0.4c0,0.2,0.1,0.4-0.1,0.4v0.1c0.2-0.1,0.2,0.5,0,0.4v0.1c0,0.2,0,0.4-0.1,0.4v0.1c-0.1,0.2,0.2,0.6-0.1,0.6
			v0.1c0,0.4,0,0.7-0.3,0.8v0.3c0.1,1-0.5,2-0.4,2.7c0.7-0.5,0.3-1.1,1-1.7c0,1.4-0.7,1.9-0.9,3.6v0.1c-0.2,0.3-0.1,0.8-0.3,1
			c0,0.1,0.2,0.2,0,0.3c0,0.4-0.5,1.1,0.1,1.2c-0.1-0.4,0.2-0.5,0.4-0.7v-0.1c-0.2-0.3,0.5-0.8,0.4-1.3v-0.1c0.4-0.6,0.4-1.6,1-1.8
			c0.1,0.5-0.2,0.8-0.1,1.2h0.9h0.1c0.2,0,0.2,0.8,0,0.8v0.1c-0.1,0.4-0.5,0.5-1,0.3c0,0.5-0.6,1.2-0.1,1.8c0-0.1,0-0.2,0.1-0.2
			v-0.1c0.2-0.8,1.2-1,1.5-1.8V157c0-0.2-0.1-0.4,0.1-0.4c0-0.1,0-0.2,0.1-0.2v-0.1c0.1-0.1,0.2-0.3,0.1-0.6c0-0.2,0-0.4,0.1-0.4
			v-0.1c0-0.1,0-0.1-0.1-0.1c-0.1,0.2-0.5,0.8-0.7,0.6c0-0.2-0.1-0.4,0.1-0.4c0.1-0.3,0.2-0.5,0.1-0.9c-0.4-0.1,0.2-0.4,0.3-0.6
			c0-0.2,0-0.4,0.1-0.4c-0.3-0.1-0.1-0.6,0.1-0.6v-0.2c0-0.2,0.1-0.2,0.1-0.3c0.2-0.3,0.2-0.8,0.7-0.8v-0.4c0.1-0.3,0.1-0.8,0.6-0.9
			c0-0.3,0.3-0.4,0.3-0.7c-0.5-0.3,0.2-0.6,0.4-0.7v-0.1c-0.5-0.5-0.4-1,0.4-1.2v-0.1c-0.1-0.3,0.2-0.3,0.1-0.6
			c-0.7-0.2,0.1-0.6,0.3-0.8v-0.3c0.1-0.5-0.2-0.9,0.3-1.4c0-0.1,0-0.3,0.1-0.3c0-0.1,0-0.2,0.1-0.2c0-0.1,0.1-0.2,0.1-0.3
			c0.1-0.2,0.2-0.5,0.6-0.6c-0.1-0.3,0.1-0.4,0.1-0.7c0.5-0.4-0.4-0.9,0-1.2c-0.1-0.3,0.2-0.3,0.1-0.6c0.2-0.1,0-0.7,0.4-0.7
			c-0.1,0.6,0.4,1.1,0,1.6v0.1c0,0.3,0,0.4,0.3,0.2v-0.2c0.1-0.2-0.2-0.6,0.1-0.7v-0.1c0.3-0.5,0.2-1.4,0.3-1.8
			c0-0.6-0.2-0.8,0.1-1.2c0-0.4,0.1-0.9,0.3-1.2c0.1-0.3-0.2-0.8,0.1-0.9c0-0.4-0.3-0.5,0-0.8c-0.1-0.3,0.2-0.3,0.1-0.6
			c0-0.2,0-0.3,0.1-0.4c-0.3,0-0.1-0.4-0.1-0.6c0-0.4,0.1-0.8,0.3-1v-0.2c0.1,0,0.2-0.1,0.3-0.2c-0.4-0.1,0-0.4,0.1-0.4
			c-0.2,0-0.1-0.6,0.1-0.4c0.2-0.3-0.3-0.3-0.1-0.6c0,0-0.1-0.1-0.1-0.1c0-0.1,0-0.3,0-0.4c0.1-0.2,0.3-0.4,0.2-0.8
			c-0.1-0.1-0.1-0.1-0.1-0.2v-0.1c0-0.1,0-0.2,0.1-0.2c0-0.2,0.1-0.3,0.3-0.3c0.1-0.2-0.2-0.7,0.1-0.8c0,0,0-0.1,0-0.1
			c0,0,0-0.1,0-0.1c-0.1,0-0.2-0.3-0.2-0.5c0,0,0,0-0.1,0v-0.3v-0.4h0c0-0.3,0.5-0.3,0.3-0.8c-0.2-0.1-0.3-0.3-0.4-0.4v-0.1
			c0-0.1,0-0.1,0.1-0.2v-0.6v0c0.1,0,0.1-0.1,0.2-0.1v-0.1c-0.1-0.4,0.1-0.5,0.5-0.6v-0.1c0.1-0.6-0.5-0.8-0.5-1.3v0
			c0-0.2,0-0.4,0.1-0.7c0.1-0.1,0.2-0.1,0.2-0.1c0,0,0-0.1,0-0.1c0.2-0.4-0.4-0.9,0-1.1c0-0.1,0-0.2,0-0.3c-0.3-0.4,0-1,0.3-1.4h0.1
			c-0.1-0.9-0.6-1.2,0.2-1.8c0-0.1,0-0.2,0-0.3c-0.2,0-0.5-0.5-0.1-0.6c0,0,0-0.1,0-0.1c-0.1,0-0.2-0.1-0.3-0.2c0-0.1,0-0.1,0.1-0.2
			c0,0,0-0.1,0.1-0.1c0-0.2,0-0.4,0.2-0.6c0.1-0.4,0.1-0.4-0.1-0.7v-0.2c0,0,0,0,0,0c0.1-0.2,0.2-0.4,0.1-0.8c0,0,0,0,0,0
			c0.3-0.6,0.4-1.3,0.3-2c0.1-0.2,0.3-0.3,0.4-0.4c0-0.4,0-0.7-0.1-1c0.3-0.1,0.5-0.2,0.5-0.6c0-0.1,0-0.2,0-0.2
			c-0.2,0-0.1-0.3-0.1-0.4c-0.2-0.1-0.2-0.9,0-1c0-0.2,0-0.3,0-0.4l0,0h-0.2v-0.1c-0.1-0.2-0.3-0.7-0.4-1c0-0.1,0.1-0.1,0.1-0.2
			c0,0,0-0.1,0-0.1c0,0,0.1,0.1,0.1,0.1c0.1-0.3,0-0.4-0.1-0.4c0.1-0.2,0.2-0.3,0.2-0.5c-0.2-0.2-0.2-0.4,0-0.5
			c-0.2-0.3,0.1-0.6,0-0.9l0,0v-0.1c0,0,0.1,0,0.1,0c-0.1-0.1,0-0.2,0-0.2c0-0.2,0-0.4,0.1-0.6c-0.1-0.2-0.1-0.3,0.1-0.4
			c-0.2-0.2-0.2-0.4,0-0.5c-0.2-0.2-0.2-0.4,0-0.5c0-0.1,0-0.1,0.1-0.2c-0.2-0.2-0.2-0.4-0.1-0.6c-0.3-0.3-0.1-0.5,0.1-0.7
			c0-0.1-0.1-0.2,0-0.3c-0.2-0.3,0-0.6-0.1-0.8c0-0.3-0.2-0.7-0.1-0.9c0,0,0,0,0,0c0,0-0.1,0-0.1-0.1c0-0.2,0-0.5,0-0.7
			c-0.3,0-0.1-0.5-0.1-0.7c0-0.3,0-0.4,0.1-0.6c-0.2-0.1-0.2-0.4-0.1-0.7v-0.2v-0.6c-0.3-0.2,0.1-0.3,0.1-0.6
			c-0.3,0-0.1-0.5-0.1-0.7c0-0.1,0-0.2,0-0.2h0c0-0.3,0.1-0.6-0.2-1c0,0,0.1,0,0.1-0.1c-0.1-0.2-0.2-0.3-0.2-0.4c0-0.1,0-0.2,0-0.4
			l0,0c0-0.1,0-0.2,0-0.4c0.1-0.2,0.2-0.3,0-0.5v0c-0.1-0.1-0.1-0.1-0.1-0.1c0,0,0-0.1,0-0.1s0-0.1,0.1-0.1c0,0,0,0,0-0.1
			c0-0.1,0-0.1-0.1-0.2c0,0,0,0,0-0.1c0-0.2,0.1-0.5,0.1-0.7c0-0.1-0.1-0.2,0-0.2c0-0.5-0.1-1-0.1-1.5c0.1,0,0.1,0,0.1-0.1
			c-0.1-0.2-0.1-0.3,0-0.4c0.1,0.2,0,0.3,0.1,0.4c0.2,0.2,0,0.4-0.1,0.6c0,0,0,0.1,0.1,0.1c0.2,0.3,0.2,0.5,0.2,0.7v0.1
			c0,0-0.1,0-0.1,0.1c0.1,0.2,0.1,0.4,0,0.5c-0.1,0.2,0.3,0.5,0,0.6c0,0.1,0.1,0.1,0.1,0.2c0,0.5,0.3,0.6,0.1,1.1
			c0.1,0.1,0.1,0.1,0.1,0.1c0,0,0,0,0,0.1c0,0.1-0.2,0.2,0,0.4c0,0,0,0,0,0v0.1c0.1,0,0.1,0,0.1,0.1c0,0.1,0,0.2,0,0.3
			c0,0.1,0,0.2,0,0.3v0.1c0.3,0.1,0.1,0.6,0.1,0.8v0.1c0,0.1,0.1,0.3,0.1,0.4c0,0,0,0,0,0.1l0,0c0.2,0.2,0,0.3,0.1,0.5
			c0,0,0,0.1,0,0.1c0,0,0,0-0.1,0c0,0,0,0.1,0,0.1c0,0,0,0,0,0c0,0.1-0.1,0.3-0.2,0.4v0.3c0.2-0.1,0.5,0.4,0.1,0.4v0.1
			c-0.3,0.6,0.6,0.9,0,1.1V96c0.2-0.1,0.2,0.5,0,0.4v0.1c0.4,0.6,0.2,1.4,0.3,1.8c-0.2,0-0.2,0.1-0.3,0.2c0.7,0.3,0,1,0.1,1.7
			c0.1,0.6,0.5,0.7,0,1.1c0,0,0,0,0,0c0,0,0,0,0,0l0,0c0,0,0,0,0,0c0,0.1-0.1,0.2,0,0.3c-0.1,0.1,0,0.2,0,0.2
			c0.2,0.1-0.2,0.4-0.1,0.6c0.3,0.2,0,0.5,0,0.7c0.1,0,0.1,0.1,0,0.2c0.1,0.1,0.2,0.2,0.3,0.3c0,0,0,0.1,0,0.1c0,0-0.1,0.1-0.1,0.1
			v0.1c0,0.1,0,0.1,0,0.2c0,0.1,0,0.1-0.1,0.2c0,0.5-0.1,1,0.1,1.4c-0.1,0.1-0.2,0.3-0.1,0.3c0.1,0.1,0.1,0.2,0.2,0.3
			c0,0.2,0,0.4,0,0.6c0,0.2-0.1,0.4,0,0.6c-0.1,0.2,0.3,0.4,0.1,0.6c0.2,0.1-0.1,0.4,0,0.5c0,0.1,0.1,0.1,0.1,0.2v0
			c0.1,0.2,0.2,0.2,0,0.3c0,0,0,0.1,0,0.1c0,0-0.1,0-0.1,0c0,0.1,0.1,0.1,0.1,0.1c0,0.6-0.1,0.9-0.4,1.2c0.4,0.3,0.5,0.8,0.4,1.5
			v0.1c0.1,0.4-0.2,0.8,0,1v0.1c-0.5,0.6,0.2,1.2,0,2.2v0.3c0.3,0.1,0.1,0.7,0.1,1c0,0.3,0.1,0.6-0.1,0.8c0,0.1,0,0.2,0,0.3
			c-0.1,0.2-0.2,0.4-0.3,0.6c0.1,0.1,0.4,0.4,0.1,0.4c0,0.1,0,0.2-0.1,0.2c0.3,0.8-0.3,1.3-0.1,1.7c0,0,0,0,0.1,0
			c0,0.4,0,0.8,0.2,1.1v0.2c-0.2,0.2,0,0.3-0.1,0.5c0.1,0.1,0.2,0.2,0,0.3c0.2,0.2-0.2,0.3,0.1,0.5c0,0-0.1,0.1-0.1,0.1
			c0,0.1,0.2,0.2,0.1,0.2c-0.1,0.2,0,0.5,0.1,0.7v0.4c0,0.1-0.1,0.1-0.1,0.1c0.3,0.2-0.1,0.4,0.1,0.6c0,0-0.1,0-0.1,0.1
			c0.2,0.1,0.1,0.2,0.1,0.3c0,0,0,0.1-0.1,0.1c0.3,0.4-0.1,0.6,0,1.1c-0.2,0.5,0.4,1-0.1,1.1v0.1v1c-0.1,0.3,0.2,0.9-0.1,1.1v0.1
			c-0.1,0.3,0.2,0.9-0.1,1v0.4c-0.1,0.4,0.2,1.2-0.1,1.4v0.1c0,0.3,0.1,0.6,0.1,0.9c0-0.1,0-0.1-0.1-0.2c0,0.1,0,0.3,0,0.4
			c0.2,0.4-0.1,0.8,0,1.3c0,0.1,0,0.2,0,0.3c0,0.1-0.1,0.2-0.1,0.3c0,0-0.1,0.1-0.2,0.1c0,0,0,0.1,0,0.1c0,0,0,0.1,0.1,0.2
			c0,0.1-0.1,0.1-0.1,0.2v0.1c0.1,0.4-0.2,1.1,0.3,1.1c0.3-0.1-0.1-0.9,0.6-0.7c0.2,0.8-0.6,1.1-1.2,1.6v0.1
			c-0.1,0.3,0.2,0.8-0.1,0.9v0.1v0.2c0.3,0,0-0.5,0.4-0.4v-0.1c0.1-0.3-0.2-0.3-0.1-0.7h0.1h0.1c0-0.2,0.1-0.4,0.4-0.3
			c-0.3,0.5,0.7,1,0,1.6v0.1c-0.2,0.5,0,0.4,0.1,0.8c-0.9,0.4-0.7,1.2-1,1.9c0.1,0.2,0.5,0.2,0.7,0.2c0-0.1,0-0.2,0.1-0.2
			c0-0.3,0.3-0.2,0.1-0.6c0-0.3,0-0.5,0.1-0.7c0.1-0.2-0.2-0.6,0.1-0.6v-0.2c-0.2-0.8,0-1.2,0.3-1.9c0.1-0.2-0.2-0.6,0.1-0.6
			c-0.1-0.5,0.1-0.8,0.1-1.2c-0.2,0-0.1-0.2-0.1-0.3c-0.6-0.1-0.5,0.2-0.9,0.2c-0.2-0.3,0.6-0.7,1-1v-0.1c0.1-0.4-0.6-0.7,0-0.8v0.1
			c0,0,0.1,0.1,0.1,0.1c0,0,0-0.1,0-0.1c-0.1,0-0.1-0.1,0-0.1h0c0,0,0-0.1,0-0.1c0-0.1,0.1-0.1,0.1-0.2c-0.1-0.1-0.1-0.1,0-0.2
			c0-0.1,0-0.3,0-0.4c0-0.2,0.1-0.5,0.1-0.8c0.1-0.2,0.3-0.3,0.2-0.4c0-0.1,0.1-0.1,0-0.1c-0.2-0.4,0.3-0.6,0-1c0,0,0,0,0,0
			c0-0.1,0-0.1,0.1-0.1c0,0,0,0,0,0l0,0c0-0.1,0.1-0.1,0.1-0.2c0.1-0.3,0-0.5,0.2-0.8c0,0,0,0-0.1-0.1c0-0.1,0-0.1,0-0.2
			c-0.2,0.1-0.2-0.5,0-0.4v-0.2c-0.2,0-0.2-0.5,0-0.6c0,0,0.1,0.1,0.1,0.1c0-0.2,0-0.4,0.1-0.6c-0.1-0.1-0.1-0.1,0-0.2
			c-0.1-0.2-0.3-0.3-0.1-0.6c0-0.1,0-0.2,0-0.2c0,0-0.1,0-0.1,0.1v0v-0.1c-0.4-0.1,0.2-0.4,0.3-0.6c0-0.1,0-0.1,0-0.2h0.1
			c-0.1-0.1-0.2-0.3-0.1-0.4c0,0,0,0,0,0c0,0,0-0.1,0-0.1c0,0,0,0,0.1-0.1c0-0.2,0-0.4,0-0.5c0-0.1,0-0.1,0-0.1
			c0-0.2,0.1-0.4,0.2-0.6c-0.2-0.3-0.3-0.5-0.1-0.8c-0.1-0.1-0.1-0.2-0.2-0.2v-0.1c0-0.1,0-0.1-0.1-0.2c0.1-0.2,0.2-0.4,0.4-0.6
			c-0.1-0.2-0.2-0.3-0.4-0.5c0-0.1,0-0.2,0.1-0.2V123c0-0.1,0.1-0.2,0.1-0.3c0-0.1-0.1-0.1-0.1-0.2v-0.3V122
			c0.1-0.2,0.2-0.3,0.2-0.5c0,0,0-0.1-0.1-0.1c-0.1-0.1-0.1-0.2-0.1-0.3c0-0.1,0-0.3,0-0.4c-0.1-0.2-0.1-0.3,0-0.4
			c0.1-0.1,0.1-0.1,0.1-0.2c0-0.1,0.1-0.2,0.1-0.2c0.3-0.2,0.3-0.4-0.1-0.7c-0.2-0.3-0.1-0.6,0.1-0.8c0,0,0-0.1,0-0.1c0,0,0,0,0.1,0
			c0,0,0,0,0,0l0,0c0,0,0-0.1,0-0.1c0-0.1,0-0.2-0.1-0.2c0,0,0.1,0,0.1-0.1c-0.1-0.2-0.2-0.4,0-0.5c-0.1-0.1-0.1-0.2-0.2-0.3v-0.2
			c0-0.1,0.1-0.1,0.2-0.2c0,0,0-0.1,0-0.1c-0.1,0-0.1,0-0.2,0.1c0-0.4-0.2-0.9,0.1-1.1c-0.2-0.3,0.1-0.8,0-1.3v-0.3
			c0.1-0.2,0-0.6,0-0.8c0,0,0,0,0-0.1l0,0c0,0,0,0,0-0.1c0-0.1,0.1-0.2,0.1-0.2c0-0.2,0-0.4,0-0.6c0.1-0.2,0.3-0.3,0.2-0.5
			c-0.1-0.1,0.1-0.3,0-0.4c-0.1-0.1-0.1-0.2-0.1-0.3c0,0,0-0.1,0-0.1c-0.1,0-0.1,0-0.1-0.1c0-0.1,0-0.1,0-0.2h0c0,0,0-0.1-0.1-0.1v0
			c0,0,0,0,0-0.1c0,0,0-0.1,0.1-0.1c0-0.1,0-0.1-0.1-0.2c0-0.1,0.1-0.2,0.2-0.3c-0.1-0.1-0.1-0.2-0.1-0.3c0,0,0-0.1,0-0.1v-0.8
			c0-0.1,0-0.2,0.1-0.2c-0.3-0.2,0-0.3,0-0.4c0,0,0-0.1,0-0.1c0,0,0-0.1,0-0.1c0.1-0.2-0.2-0.6,0.1-0.6c0-0.1,0-0.1,0-0.2
			c-0.5-0.4,0.1-1,0-1.6c0-0.1,0-0.2,0-0.3c0-0.1,0-0.3,0-0.4c-0.1,0-0.1-0.1-0.2-0.2c0,0,0,0-0.1,0c0,0,0-0.1,0.1,0
			c-0.1-0.3,0.3-0.4,0.2-0.8c-0.3-0.2,0-0.8-0.1-1.1c-0.1-0.1-0.1-0.2-0.1-0.2v-0.2c0.1-0.2,0.2-0.4,0.3-0.7c-0.3-0.2,0-0.8-0.3-1
			c0.1-0.3,0.3-0.4,0.5-0.7c0-0.1,0-0.2,0-0.2c0.1-0.3-0.4-0.2-0.3-0.6c0,0,0.1,0,0.1,0c0-0.1,0-0.2,0-0.2c-0.1,0-0.2-0.1-0.4-0.1v0
			c-0.2,0.1-0.2-0.5,0-0.4c0-0.2,0-0.4,0.1-0.6c0-0.2-0.2-0.2-0.1-0.4c-0.3-0.2,0-0.4,0-0.7v-0.9v-0.1c-0.4-0.2,0-0.7,0-1
			c0.1,0.1,0.6,0.6,0.3,0.7v0.2c0.2,0,0.1,0.3,0.1,0.4v0.4c0.2,0.1,0.2,0.9,0,1v0.1c0.3,0,0.1,0.4,0.1,0.6v0.1
			c0.5,0.4,0.5,1.8,0.4,2.2c0,0.3,0.3,0.3,0,0.6c0.4,0.8,0.1,2.5,0.1,3.3v0.1v0.7c0.1,0.4,0.1,0.4,0,0.9v0.4v0.1
			c0.2-0.1,0.2,0.5,0,0.4v0.1c0,0.2-0.1,0.2-0.1,0.3c0,0.2,0.5,0.6,0.1,0.8v0.1c0.2,0.2,0.3,1,0,1.1v0.2v0.4c0.3,0.3-0.2,0.8,0,1.3
			c0.1,0.5,0.1,2-0.1,2.7v0.3c0.2-0.1,0.2,0.5,0,0.4v0.2c0.3,0.9-0.2,1.7,0,2.9v0.6c0.3,0.2,0,0.9-0.1,1.2v0.1
			c0.3,0.5-0.4,4.3,0.3,4.1c0-0.3-0.3-0.5,0-0.7c0.1-0.3-0.2-0.8,0.1-0.9v-0.7c0-1-0.2-1.8,0-2.4c0.1-0.3-0.2-0.8,0.1-0.9v-2.2
			c0-0.5-0.1-1,0.3-1.2v-0.2c-0.2,0-0.1-0.3-0.1-0.4c0.2-0.7,0.1-1.7,0.1-2.6c-0.4-0.1,0.1-0.3,0-0.6V111c0.1-0.2-0.2-0.6,0.1-0.6
			v-0.1c-0.1-0.3,0.1-0.4,0.1-0.7v-0.1c-0.4-0.1-0.1-0.8,0.1-0.8c-0.1-0.1-0.7-0.4-0.3-0.6c0-0.2-0.2-0.2-0.1-0.4v-0.9v-0.1
			c-0.3,0-0.1-0.5,0-0.6V106c0.4-0.2-0.4-0.8,0-1v-0.2c0.1-0.3,0.1-0.6,0-1.1v-0.1c-0.4,0,0.2-0.2,0-0.4v-0.2c0-0.2-0.4-0.7,0-0.9
			v-0.1c-0.2,0.1-0.2-0.6,0-0.6v-0.4c-0.2,0.1-0.2-0.6,0-0.6c0-0.7-0.4-1.4,0-1.9v-0.3V98c-0.4-0.4,0.1-1.1,0-1.6h-0.1
			c-0.3-0.3,0.3-0.6,0-1c0.2,0,0.2,0.2,0.4,0.2v-0.2h0.1v-0.2c-0.3,0-0.1-0.4-0.1-0.6c-0.3,0,0,0.5-0.3,0.6
			c-0.3-0.3-0.3-1.5,0.3-1.2v-0.1c-0.3-0.4,0-1.3-0.1-1.9v-0.3c-0.2,0-0.2-0.2-0.1-0.3c-0.3-0.4-0.2-0.4,0-0.9c-0.2,0-0.2-0.7,0-0.7
			c-0.1-0.3-0.1-0.3-0.1-0.8c-0.5-0.2-0.4-0.4-0.3-0.8h0.1v-1c-0.3-0.1-0.1-0.6-0.1-0.9v-0.6c-0.3-0.4-0.2-0.7-0.1-1.1v-0.6
			c-0.3,0-0.1-0.4-0.1-0.6v-1.2c-0.3-0.1,0-0.7-0.1-1v-1v-0.1c-0.3,0-0.1-0.6-0.1-0.8v-0.4v-0.4c-0.2,0-0.1-0.3-0.1-0.4V78
			c-0.3-0.1-0.1-0.6-0.1-0.8c0-0.3-0.3-0.5-0.1-0.9c-0.2,0.1-0.2-0.5,0-0.4c0.1-0.9-0.4-1.3-0.3-2.2c-0.3,0-0.1-0.4-0.1-0.6v-0.8
			c-0.3-0.1-0.1-0.7-0.1-1c-0.4-0.8-0.4-1.4-0.4-2.2c-0.3-0.2-0.1-0.8-0.1-1.2v-0.1c-0.2,0-0.1-0.3-0.1-0.4c0.1-0.5-0.4-0.8,0-1.1
			c-0.3-0.1-0.1-0.7-0.1-1c0.1-0.4-0.4-0.6,0-0.9c0-0.4-0.4-0.4-0.3-0.9c-0.2-0.6,0-0.7-0.1-1.3c0.1-0.3-0.2-0.3-0.1-0.6v-0.4
			c0.1-0.7-0.1-1.2-0.1-1.8c0-0.1-0.2-0.2-0.1-0.3v-0.8c0.2-0.3,0-0.2,0-0.7c-0.3-0.3-0.1-1,0-1.3V56c-0.1,0-0.1,0-0.1-0.1
			c0,0,0,0,0-0.1h0c0-0.1,0.1-0.3,0-0.4c0,0,0,0,0,0c0,0,0.1-0.1,0.1-0.1c-0.1-0.3,0.1-0.4,0.1-0.7c0.1-0.2-0.3-0.7,0-0.8
			c0-0.2-0.1-0.4,0.1-0.5c0-0.1,0-0.2,0-0.3c-0.2,0-0.2-0.3-0.2-0.5c0,0,0.1-0.1,0.1,0v-1.3c0.1-0.3-0.2-0.8,0.1-0.9
			c-0.1-0.4,0-0.8,0.1-1.3c0,0,0,0,0,0c0.1-0.2,0.1-0.4,0.3-0.4c0,0,0-0.1,0-0.1c-0.2,0-0.1-0.2,0-0.3c-0.4-0.2,0.2-0.3,0.2-0.5
			c-0.2-0.1-0.2-0.2-0.1-0.5c0,0,0-0.1,0-0.1c-0.3-0.2,0.2-0.8,0.3-1.1c0.1-0.2,0.1-0.3,0-0.5h0c0,0,0-0.1,0.1-0.2
			c0-0.2,0-0.3,0.1-0.3v-0.5c0-0.2,0.1-0.4,0.3-0.4c0.1-0.1,0.1-0.2,0.1-0.3c0-0.2,0.1-0.3,0.3-0.3c-0.1-0.3,0.2-0.3,0.3-0.5
			c0-0.2,0.1-0.4,0.3-0.4c0-0.1,0-0.2,0.1-0.2c0.3-0.2,0.2-0.7,0.6-0.8c0-0.1,0-0.2,0.1-0.3l0,0c0.1-0.2,0.2-0.3,0.5-0.4
			c0-0.1,0.1-0.2,0.1-0.3c-0.1-0.1-0.2-0.2-0.1-0.3c0-0.1,0.1-0.2,0.1-0.2c0,0,0.1-0.1,0.1-0.1c0.1-0.2,0.2-0.5,0.3-0.7
			c0,0,0-0.1,0-0.1c0-0.1,0.1-0.2,0.1-0.2c0.1,0,0.2-0.2,0.3-0.2c0.1-0.2,0.1-0.6,0.4-0.6c0,0-0.1,0-0.1,0c0-0.2,0-0.4,0.1-0.5
			c0-0.4,0-0.8,0.3-1c-0.1-0.3,0.2-0.4,0.3-0.7c0-0.2,0-0.4,0.1-0.4C363.9,35,363.9,35.1,364,34.7z M344.9,151.2
			c-0.6-0.4,0-1.4,0.4-1.4C345,150.3,345.3,150.7,344.9,151.2z M345.7,154.1c-0.6-0.2,0-0.7,0-1
			C346.1,153.2,345.7,153.7,345.7,154.1z M346.2,151.2c-0.5-0.3,0.1-0.7,0.1-1C346.7,150.6,346.6,150.9,346.2,151.2z M346.6,149.6
			c-0.4,0.1-0.6-0.4-0.3-0.4c0-0.1,0-0.1,0.1-0.1C346.7,148.7,346.9,149.5,346.6,149.6z M350.8,142C351.5,142,350.7,142.6,350.8,142
			L350.8,142z M352.4,139.3c-0.3-0.1-0.2-0.8,0.3-0.7C352.5,138.8,352.6,139.2,352.4,139.3z M354.3,71v-0.1c-0.4-0.1,0.2-0.4,0-0.7
			c0.3,0.2,0.5,0.6,0.4,1.1C354.4,71.4,354.3,71.3,354.3,71z M354.7,73.5C355.1,73.1,355.1,74.1,354.7,73.5L354.7,73.5z M356.2,85.6
			C356.2,85.6,356.2,85.6,356.2,85.6C356.2,85.6,356.2,85.6,356.2,85.6C356.2,85.6,356.2,85.6,356.2,85.6z M357.5,136.5h-0.3
			c0-0.2,0.1-0.2,0.1-0.3C357.6,136.3,357.6,136.4,357.5,136.5z M359.8,92.9c0.4,0,0.2,0.6,0.3,0.9
			C359.5,93.9,359.9,93.2,359.8,92.9z M357.6,134.2v-0.6C358.2,133.6,358.1,134.2,357.6,134.2z"/>
		<path class="st2" d="M211.7,84.5c0,0.2,0.3,0.2,0.5,0.2c0.3-0.1,0.2-0.5,0.5-0.5c0.1-0.3,0.4-0.4,0.5-0.7
			C212.9,83.2,212,84.1,211.7,84.5z"/>
		<path class="st2" d="M229.3,48v-1c0-0.5,0.8-0.2,1-0.5c-0.1-0.5,0.2-0.8,0.7-0.7c-0.2,0.9,0,1.1-0.2,1.7c0.1,0.8-0.9,0.6-0.7,1.5
			c0.2,0,0.3,0.2,0.5,0.2h0.5c0.3-0.3,0.3-0.8,0.2-1.5c0.1-0.3-0.3-1.2,0.2-1.2c-0.1-0.5,0.2-0.6,0.2-1c0.4-0.4,0.5-1.1,1-1.5
			c0-0.3,0.1-0.4,0.2-0.5c0-0.4,0.2-0.7,0.4-0.9c0.2-0.2,0.4-0.3,0.6-0.5c0.8-0.8,1.2-2.1,1.7-3.1c0-0.4,0.8-0.2,1-0.5
			c0.1-0.6,0.6-0.8,0.7-1.4c-0.3-0.1-1.6,0.6-2.2,0.5c-0.3,0.4-0.6,0.8-1,1.2c0,0.5-0.3,0.8-0.7,1c-0.1,0.1-0.2,0.1-0.3,0.2
			c0.1,0.5-0.5,0.3-0.5,0.7c-0.2,0.3-0.4,0.7-0.7,1c0.1,0.5-0.2,0.6-0.2,1h-0.2h-0.2c0,0.3-0.4,0.3-0.7,0.2c-0.2,0.3-0.6,0.5-1,0.7
			c-0.2,0.5-0.6,0.8-1,1.2c0.2,0.8-0.5,0.8-0.7,1.2c0,0.3,0.1,0.7-0.2,0.7c0,0.5-0.2,0.8-0.5,1c-0.3,0.6-0.9,0.9-0.7,1.9
			c-0.1,0.5-0.9,0.2-1,0.7h-0.2v0.2c-0.2,0.5,0.7,0.8,0,1c0.3,0.3,0.9,0.5,1.2,0.2h0.2c0.5-0.8,1.5-1.1,1.9-1.9c0-0.5,0.2-0.8,0.5-1
			h0.2C229.6,48.6,228.6,48.2,229.3,48z"/>
		<path class="st2" d="M194.8,98h0.2h0.2c0.5-0.6,1.6-0.6,1.7-1.7C196.1,95.9,195.1,97.1,194.8,98z"/>
		<path class="st2" d="M208.1,85.4c0.1-0.3,0-0.4-0.2-0.5c-0.1,0.5-0.6,0.5-0.9,0.7c-0.4,0.4-0.6,1.1-1,1.4
			c-0.3,0.5-0.7,0.9-1.2,1.2c-0.2,0.1-0.4,0.2-0.7,0.2c-0.2,0.4-1,0.3-0.7,1.2c0.4,0,0.5-0.3,1-0.2c0,0.3-0.1,0.4-0.2,0.5
			c0.1,0.2,0.2,0.2,0.2,0.5c1,0.1,0.8-1.1,1.7-1.2c0.3-0.3,0.9-0.4,1.2-0.7c0.2,0.1,0.2-0.1,0.2-0.2c-0.5-0.9-1.6,1.1-1.9-0.2
			c0.8-0.1,1.4-0.4,1.7-1C207,86.1,208.1,86.4,208.1,85.4z"/>
		<path class="st2" d="M210.3,88.1v-0.2c0.3-0.3,0.2-0.5-0.2-0.5c-0.3,0.2-0.1,0.9-0.7,0.7c-0.1,0.8-0.7,1-1.2,1.4v0.2
			c1.2,0,1.5-0.9,2.4-1.2C210.2,88.5,209.9,88.2,210.3,88.1z"/>
		<path class="st2" d="M192.2,101c0-0.1-0.1-0.1-0.1-0.1C192,101,192.1,101,192.2,101z"/>
		<path class="st2" d="M193.8,102.3c0.2,0.1,0.2-0.2,0.4-0.2c0,0.2,0.2,0.4,0.4,0.3c0,0,0,0.1,0,0.1c0,0,0,0,0.1,0
			c0.1,0.2,0.1,0.6,0.1,0.9c0,0.1,0,0.2,0.1,0.4c0.9-0.7,1.8-1.4,2.6-2.2c0-0.2,0-0.3,0.2-0.2c0.1-0.4,0.4-0.6,1-0.5
			c0.7-0.8,1.5-1.3,2.4-1.9c0.1-0.4,0.4-0.6,0.7-0.7c1-1.3,2.4-2.3,3.9-3.1c0.2-0.3,0.2-0.9,0.7-1c0.4,0,0.2-0.6,0.7-0.5
			c0.1-0.2,0.2-0.4,0.5-0.5c0.5-0.9,1.6-1.3,2.2-2.2c-0.1-0.2,0.1-0.2,0.2-0.2c0.8-0.4,1.1-1.4,1.9-1.7c0.6-0.5,1.2-1,1.7-1.7
			c0-0.3,0.3-0.3,0.2-0.7c-0.8-0.2-0.3,0.8-1.2,0.5c-1.4,1.5-3,3-4.8,4.1c-0.3,0-0.5-0.1-0.7-0.2v0.5c-0.1,1.3-2,2.8-3.9,3.1H203
			c-0.5,1-1.5,1.4-1.9,2.4c-0.3,0-0.3-0.4-0.2-0.7c-0.2,0-0.3,0.2-0.5,0.2c-1-0.3-0.8,0.5-1.4,0.5c-0.4,0.9-0.3-0.1-1,0v0.2
			c0.4,0.3-0.5,1.4-1.2,1.4v-0.2v-0.2c-0.6-0.6-0.9,0.2-1.2,0.5c0.1,0.8-0.3,1-0.7,1.2c-0.1,0.4-0.6,0.2-1,0.2v-0.5
			c0.1,0,0.3,0,0.2-0.2h0.2c0-0.2,0-0.5-0.2-0.5c-1.3,0.4-0.6,2-1.4,2.5C193.1,101.7,193.6,101.8,193.8,102.3z"/>
		<path class="st2" d="M201.8,93.2c-0.2,0.7-1.2,0.8-1.2,1.7c0.4,0.1,0.4-0.2,0.7-0.2C201.8,94.4,202.8,93.5,201.8,93.2z"/>
		<path class="st2" d="M181.3,111.1c0-0.2,0.1-0.2,0.1-0.3c0.1-0.1,0.1-0.4,0.1-0.7c0-0.1,0.1-0.3-0.1-0.3v-0.2
			c0.2-0.1,0.5-0.1,0.7-0.2v-0.2c0-0.2,0.1-0.2,0.1-0.3c0.1,0.1,0.1-0.4,0-0.3v-0.1v-0.2c0.5,0.1,0.3-0.6,0.5-0.8
			c0.1-0.1,0.1-0.2,0-0.2c-0.3-0.3,0.5-0.7,0-0.9V106c0.1-0.1,0.1-0.1,0.1-0.2c-0.5,0.3-0.8,0.7-1.4,1.3v0.2c-0.2,0.6-2.2,1.3-2.2,0
			c0.2,0,0.3-0.2,0.5-0.2c0.8,0,0.7-0.9,1.4-1c0.2-0.3,0.5-0.5,0.8-0.7c0.2-0.3,0.3-0.5,0.5-0.8c0,0.1,0.1,0.3,0.2,0.3v-0.2h0.1
			c0-0.2,0.1-0.2,0.2-0.1c0.1,0,0.1,0.1,0.2,0.2c0-0.2,0.3-0.2,0.3-0.5c0.1-0.1,0.1-0.3,0.2-0.4c-0.2-0.1-0.1,0.2-0.2,0.2H183
			c-0.1,0.1-0.3,0.2-0.4,0.3c0,0-0.1,0-0.1,0h0h0l0,0c-0.1,0-0.2-0.1-0.4-0.5c0,0,0-0.1,0-0.1c0.4-0.1,0.3-0.5,0.8-0.4
			c0.2-0.3,0.1-0.7,0.6-0.9c0.2,0.1,0.3,0.1,0.5,0.2c0.1,0,0.1,0,0.1-0.1c0,0,0.1-0.1,0.1-0.1c0-0.1,0-0.2-0.1-0.3
			c0.3-0.1,0.4-0.3,0.6-0.2c0.1-0.1,0.2-0.2,0.3-0.2c0-0.2,0-0.3,0-0.5c0.4,0.1,0.5-0.3,0.5-0.6c0.4,0.1,0.6-0.1,0.6-0.4
			c0.6,0.3,0.6-0.4,1.1-0.4c0.2-0.1-0.1-0.3-0.1-0.5c0.5,0.1,1,0,1.4,0c0,0,0,0.1-0.1,0.2c-0.4,0.2,0,0.7,0.4,0.5
			c0.1,0,0.3,0,0.3-0.1c0.4,0.3,1.1-0.1,1.4,0.2c0,0.1,0.1,0.1,0.2,0.1h0.3c0.1,0.1,0.2,0.2,0.2,0.2c0.9-0.5,1.4-1.6,2.3-2.1v-0.2
			c0.2-0.3,0.4-0.7,0.7-1V97c1.8-1.2,3-2.9,5.3-3.6c0.2-0.4,0.6-0.7,0.7-1.2c0-0.5,0.2-0.8,0.7-0.7c-0.3,0.3-0.3,0.6,0.2,0.7
			c0.5,0,0.8-0.2,1-0.5c0.3-0.9,0.1-1.5,0-2.4c0.4-0.2,0.8-0.5,1-1h0.2c0.5-0.8,0.9-1.7,1.4-2.4c0.1-0.5,1.3,0,1.2-0.7h0.2
			c0-0.3,0.1-0.5,0.2-0.7c0.1-0.3,0.3-0.5,0.7-0.5c0-0.4,0.1-0.8,0.2-1h0.2h0.2c0.7-0.7,1.5-1.2,2.4-1.7c-0.2-0.7,0.3-0.6,0.2-1.2
			c-0.2-0.1-0.3-0.2-0.2-0.5h0.5v0.2h0.2c0.7-0.2,1-0.8,1.2-1.4V78c0-0.6,0.4-0.8,0.7-1.2v-0.5c0.4-0.5,0.3-1.5,1-1.7
			c0.7-0.3,1-1.1,1.4-1.7c0.2-0.3,0.5-0.4,1-0.5c0-0.3,0.1-0.6,0.5-0.5v-0.2c0-0.6-0.1-1.4,0.5-1.4V70c0-0.4,0.2-0.8,0.5-1
			c-0.1-0.8,0.8-0.8,1-1.4c0.2-0.4,0.1-1.2,0.5-1.4h0.5c0.2,0.1,0.3,0.2,0.2,0.5c0.6,0.1,0.2-0.9,0.7-1c0-0.4-0.8-0.2-1-0.5v-0.2
			v-0.2c-0.4-0.1-0.2-0.6-0.2-1c-0.1-0.8,0.4-0.9,0.5-1.5c-0.1-0.5,0.3-0.5,0.2-1h0.2c0-0.3,0.1-0.5,0.2-0.7
			c-0.2-0.8,0.4-0.9,0.3-1.7c-0.1-1,0.9-0.3,0.9,0c-0.1-0.5,0.3-0.5,0.2-1c-0.4-0.3-0.6-0.3-0.7,0.2c-0.8,0.1-0.6-0.6-1.2-0.7
			c-0.2,0-0.3,0.2-0.5,0.2c0.1,0.6-0.4,0.8-0.7,1v0.2c-0.1,0.3-0.3,0.5-0.7,0.5c-0.1,0.3,0.3,1.2-0.2,1.2c-0.1,0.2,0,0.5-0.2,0.5
			c0.1,0.5-0.3,0.5-0.2,1c0.8,0.2,0.3,0.6,0.2,1.2c0,0.5-0.2,0.8-0.5,1v0.7c-0.6,0.3-0.7,1.1-1.7,1v-0.2v-0.7c0.4-0.4,0.5-1.1,1-1.5
			V63c-0.1-0.9,1.1-0.5,0.7-1.7v-0.5c-0.6-0.5-0.3,0-0.7,0.2c0.1,0.6-0.4,0.5-0.2,1.2c0,0.3-0.1,0.5-0.2,0.7c0,0.6-0.7,1.7-1.2,1
			v-0.2c-0.6,0.1-0.5,0.9-0.7,1.5v0.5c-0.2,0.4-0.6,0.7-1,1c-0.4,1-1.3,0.7-1.9,1c-0.1,0.3-0.3,0.5-0.7,0.5c0.2,0.5,1.3,1.1,0,1.2
			c0,0.4,0.1,0.9-0.2,1c-1.1-0.1,0.1-1.1-0.2-1.9v-0.7v-0.2c-0.4-0.2-0.8-0.4-0.7-1c-0.3,0-0.2,0.4-0.5,0.5c0,0.4,0,0.8-0.2,1h-0.2
			c-0.3,0.1-0.5,0.3-1,0.2c-0.7-0.2-0.5,0.7-1.2,0.5c-1.2,0.2,0.3,2.2-0.7,2.2c-0.5,0.5-0.1,1.1,0,1.7c0.6,0.7-0.2,1.2,0.2,1.9
			c-0.3,0.9-1,1.4-1.4,2.2h-0.2H204c-0.3-0.2-1.4,1.1-1.4-0.2c0-0.4,0-0.8,0-1.2h1.2c0-0.6-0.1-1.2-0.5-1.4
			c-1.3-0.1-1.5-0.5-2.7,0.7c-0.2-0.1-0.2,0.1-0.2,0.2c-0.1,0.3,0.3,1.2-0.2,1.2c0,0.4-0.1,0.8-0.5,1c0,0.2-0.1,0.2-0.2,0.2
			c-0.2,0.8-1.5,0.4-1.9,1c-0.2,0-0.2,0.1-0.2,0.2c-0.6,0.8-1.8,1.1-2.4,1.9c-0.3,0.1-0.6,0.4-0.7,0.7c-0.8,0.5-1.1,1.5-2.4,1.4
			c-0.3,0-0.5,0.1-0.7,0.2c-0.4,0.5-1,0.8-1.2,1.4h-0.2c-0.9,0.3-1.6,0.7-2.7,0.7c0,0.6-0.9,0.3-1,1h-0.2h-0.2
			c-0.2,0.8-1,1.1-1.7,1.4c-0.4,0-0.8-0.1-1-0.2c-0.2,0.3-0.6,0.5-1,0.7h-0.2c0,0.5-1,0.1-1.4,0.2c0,0.3-0.6,0.2-1,0.2h-0.2
			c-0.2,0.2-0.5,0.5-0.7,0.7c-1.4,0.3-2.3,1.1-3.9,1.2c0,0.4-0.6,0.2-1,0.2c0,0.4-0.8,0.1-1,0.5c-0.2,0.5-0.9,0.5-1.7,0.5
			c-0.2,0.4-0.6,0.5-1.2,0.5c-0.6,0.2-1.1,0.3-1.9,0.2c0.1,0.4-1.3,0.4-1.2,0c-0.6,0-1.4,0.1-1.4-0.5h-0.2c-0.8,0.1-1-0.3-1.2-0.7
			c-0.2-0.1-0.2-0.2-0.5-0.2c-0.7-0.5-2-0.4-2.2-1.4c-0.5,0-0.5-0.6-0.5-1.2c-0.2-1.4-1.1-2.1-1.2-3.6c-0.6-0.6-0.1-2.2-0.2-3.2
			c-0.6-0.5-0.1-2-0.2-2.9c0-0.6-0.4-0.8,0-1.2c-0.5-0.2-0.1-1.3-0.2-1.9c0-0.4,0.1-0.8,0.2-1V72v-0.5c0.1-0.8,0.4-1.4,0.2-2.4
			c0.1-0.4-0.3-1.4,0.2-1.4v-1.4c0.1-0.5-0.3-1.6,0.2-1.7V64v-0.7c-0.2-0.7,0.3-0.6,0.2-1.2c0-0.4-0.1-0.9,0.2-1v-0.2
			c0.1-0.5-0.3-1.6,0.2-1.7v-0.5c0-0.4-0.1-0.9,0.2-1v-1.2c0.6-0.2-0.1-1.7,0.5-1.9c-0.4-0.8,0-1.6,0.5-2.2c-0.2-0.7,0.5-0.5,0.5-1
			c-0.4,0.1-0.4-1.3,0-1.2V50c0.1-1.5,0.5-2.7,1.2-3.6c0.1-0.4,0.4-0.6,0.5-1c0-0.6,0.1-1,0.5-1.2v-0.5c0.4-0.7,0.5-1.6,1.2-1.9
			c0.3-0.4,0.5-0.9,1.2-1c0.9-0.9,1.4-2.1,3.1-2.2c0.1-0.1,0.9-0.6,1,0h0.2c0.1-0.7,0.5,0.2,1,0c0.6,0.1,0.9-0.1,1-0.5
			c-0.2-0.8,0.5-0.4,0.7-0.2v0.2h0.2c0.9,0.8,0.9-0.8,1.9-0.5c0.1-0.2,0.2-0.3,0.5-0.2h1c0.4,0,0.8,0,1,0.2h1c0.3-0.1,0.5-0.3,1-0.2
			c0.6,0.8,2.2-0.3,2.7,0.2h0.7h1.2h0.2c0-0.5,0.8-0.1,1.2-0.2c0.3-0.1,0.4-0.3,0.7,0c0.1-0.5,1.2-0.1,1.7-0.2h0.7
			c0.4-0.4,2.5-0.4,2.9,0h0.2c0-0.5,0.9-0.1,1.2-0.2c0.1-0.2,0.2-0.3,0.5-0.2c0.2-0.5,1.1,0.3,1.9,0c0-0.4,0.6-0.2,1-0.2h1.2
			c0.3-0.5,1.3-1.5,1.7-1h0.2c0.4-0.3,0.8-0.6,1.7-0.5c0.4-0.1,0.4-0.4,0.7-0.5c0.4-1.1,1-2,2.4-2.2c0.6-0.3,1.3-0.5,1.7-1
			c0.6,0.2,0.5-0.5,1-0.5c0.3-0.7,1.2-0.7,1.5-1.5h0.2h0.2c0.2-0.4,0.5-0.8,1-1c-0.2-0.8,1-0.3,0.7-1.2c0.3-0.7,0.8-1.3,1.4-1.7
			c0.1,0,0.3,0,0.2-0.2c-0.1-1,0.8-1.8,0.2-2.4c-0.2-0.5-0.4-0.9-0.5-1.5c-0.5-0.1-0.2-0.9-0.7-1v-0.2c-0.8-0.1-1.5-0.5-1.9-1
			c-0.4,0-0.8,0-0.7-0.5c-0.2,0-0.2-0.3-0.2-0.6c0-0.1,0.1-0.2,0.1-0.3c-0.1-1-1.3-1.4-2.3-1.6c-0.3-0.4-0.6-0.9-1.4-1
			c0-0.1,0.1-0.1,0.1-0.2c-0.8-0.1-0.3-0.9-1.2-0.9c-0.6-0.2-0.7-0.7-0.9-1.1c-0.3-0.1-0.5-0.1-0.8-0.2c0,0-0.1-0.1-0.1-0.1
			c-0.3-0.1-0.4-0.4-0.7-0.5v-0.2h-1c-0.2,0.1-0.2-0.1-0.2-0.2c-1.9-1-3.2-2.6-5.3-3.4c-0.3-0.1-1.2,0.3-1.2-0.2
			c-0.6,0.2-2.1,0.1-2.9-0.2c-0.1,0.6-1.1,0.1-1-0.2h-0.7c0.2,0.4-1.1,0.4-0.9,0c-0.6-0.1-1.1-0.3-1.5-0.7c-0.8-0.4-1.2,0.3-1.7-0.5
			c-0.8-0.3-1.6-0.5-2.4-0.7c-0.2,0-0.3-0.2-0.5-0.2c-0.8,0.1-1.4-0.1-1.9-0.2c-0.6,0.6-2.2,0.1-3.1,0.2h-0.5
			c-0.1-0.4-1.1,0-1.2-0.5c-0.7-0.3-1.4-0.8-2.2-1c-0.4-0.1-1.2,0.3-1.2-0.2h-0.2c-0.5,0.5,0.3,0.7,0.2,1.5
			c-0.8,0.2-1.1,0.9-1.7,1.2c-0.3,0-0.5,0.1-0.7,0.2h-1c-0.2,0.4-1,0.3-1.5,0.5c-0.5,0.2-1,0.4-1.5,0.5c-0.5-0.3-1.1-0.1-1.4,0.4
			c0,0.1,0,0.1,0,0.1c-0.2,0.1-0.4,0.2-0.6,0.4c-0.1,0-0.2,0-0.4,0c0,0.3-0.4,0.2-0.7,0.2c-0.1,0.1-0.2,0.1-0.3,0.1
			c-0.1,0-0.2,0-0.3,0h-0.7h-0.2l0,0c-0.4-0.1-0.8-0.1-1.1-0.1c-0.8,0.4-1.3,0.8-1.8,1.1c-0.6,0.2-1.1,0.4-1.9,0.4
			c0,0.1-0.1,0.2-0.3,0.2c-0.4-0.2-0.8-0.4-1.4-0.4c-0.1,0.6-0.7,0.5-1,0.2c-0.5,0.5-1.1,0.4-1.7,0.1c-0.1,0-0.2,0-0.2,0
			c-0.1,0.2-0.2,0.3-0.5,0.2c-0.2,0.3-0.4,0.7-1,0.7c-0.1,0-0.3,0-0.5,0c-0.3,0.4-0.8,0.5-1.5,0.4c-0.2,0-0.2,0.1-0.3,0.2
			c-0.1,0-0.2,0-0.3,0.1c-0.1,0.3-0.4,0.3-0.7,0.2c0,0.2-0.1,0.2-0.3,0.2c-0.2-0.1-0.3-0.1-0.4-0.2c0,0.1-0.1,0.1-0.1,0.2
			c-0.3,0-0.6-0.1-0.7,0c0,0.1-0.1,0.1-0.1,0.1c-0.2-0.1-0.3-0.4-0.5-0.4c-0.2,0-0.3,0.2-0.5,0.2c0,0.1-0.1,0.2-0.1,0.3
			c-0.1,0-0.2,0-0.2,0h-0.7c-0.6,0.4-1.3,0.5-1.9,0.2c-0.7,0.7-2.1,0-2.4-0.5c-0.2-0.2-0.7-0.2-1.1-0.2c-0.1,0-0.1-0.1-0.1-0.1
			c-0.4-0.2-0.7-0.3-1.1-0.5c-0.4,0.4-0.9,0.4-1.6,0.1c0,0.1-0.1,0.1-0.1,0.2c0,0.1-0.1,0.2-0.2,0.3c-0.3,0-0.5,0-0.8,0.1
			c-0.1,0-0.1-0.1-0.2-0.1c-0.4-0.2-0.5,0.5-1.1,0c-0.3-0.1-0.5,0.1-0.6,0.2c-0.1,0.3-0.2,0.5-0.3,0.7c0.2,0,0.5,0.1,0.7,0.1v0.1
			v0.2c0.4,0.2,0.7,0.5,1,1h1.2c0.6-0.1,0.9,0.1,1,0.5h1.2c0.2,0,0.3,0.2,0.5,0.2v0.5h-0.7c0,0.3,0.4,0.2,0.5,0.5
			c0.2,0.3,0.9,0.1,0.7,0.7c0.4,0.7,1-0.4,1.2,0.2c0.2,0,0.3,0.2,0.5,0.2c0.5,0.1,1.6-0.3,1.7,0.2h0.2c0.7,0.1-0.2,0.5,0,1
			c0.8,0,0.8-0.6,1.7-0.5h0.2c1.7,0,2.1,1.2,3.6,1.5c0,0.3-0.4,0.3-0.7,0.2h-0.2c-0.7,0.4-2.4-0.3-3.4-0.5h-0.2
			c-0.8,0.1-0.6-0.7-1.4-0.5c-0.2,0-0.3,0-0.2,0.2c-0.7,0.6,2.3,2.3,0.7,2.2c-1-0.1-1.1,0.4-1.9,0c-0.4,0.4-2.5,0.4-2.9,0h-0.2
			c-0.7-0.1-2.1,0.3-2.4-0.2h-0.5c0,0.6-0.8,0.1-1,0c-0.2,0.6,0.5,0.5,0.5,1c0.3,0,0.4,0,0.5,0.2c0.2,0.1,0.5,0,0.5,0.2
			c1.2,1,2.1,1,3.1,2.4c0.6,0,1.2,0,1.2,0.5c1-0.2,0.7,0.7,1.7,0.5c0.4,0,0.8,0,1,0.2c0.1,0.4,1.1,0,1.2,0.5c0.4,0,0.5,0.3,1,0.2
			c0.7,0.6,2.5,0.3,2.4,1.7c1,0.2,1.6,0.8,2.4,1.2c0.6-0.1,0.9,0.1,1,0.5c0,0.1,0,0.3,0.2,0.2h0.7c0.3,0.3,0.1,1.1,0.5,1.5
			c0.6-0.1,0.5,0.4,1.2,0.2c-0.2,0.7,0.3,0.6,0.2,1.2c0.5-0.1,1.3,0.7,0.7,1c-0.1,0.3,0.3,1.2-0.2,1.2c-0.1,0.3,0.3,1.2-0.2,1.2
			c-0.3,0.9-0.6,1.8-1,2.7v0.2c0.6,0.1,0.1,1.1-0.2,1c0,0.3,0,0.7-0.2,0.7c0,0.4,0.1,0.9-0.2,1c0,0.4,0.1,0.9-0.2,1
			c0,0.6,0,1.2-0.2,1.5c-0.3,0.2,0,0.9-0.5,1c0.1,0.2-0.1,0.2-0.2,0.2v1c-0.3,0.6,1.1,0.6,0.2,1v0.5c-0.2,0.1-0.5,0-0.5,0.2h-0.2
			c0,0.4,0.1,0.9-0.2,1c-0.1,0.4,0.3,1.4-0.2,1.5v0.5c0.7,0.3-0.1,1.2-0.5,1.2v0.5c0.6,1.9-0.8,2.8-1,4.6c-0.1,0.4,0.3,1.4-0.3,1.5
			v0.5c-0.1,0.4,0.3,1.4-0.2,1.5c0,0.3,0,0.7-0.2,0.7c0,0.3,0,0.7-0.2,0.7v0.5c-0.9,1.6-0.5,4.5-1.2,6.3c0,0.3,0.1,0.9-0.2,1
			c-0.1,0.3,0.3,1.2-0.2,1.2v0.5v0.7c0,0.6,0.1,1.2-0.5,1.2c0.1,0.4-0.3,0.5-0.2,1c-0.2,0.6-0.1,1.5-0.5,1.9c0,1.1,0.4,1.6,0,1.9
			v0.2c-0.1,0.7,0.3,2.1-0.2,2.4v0.2c-0.3,1.1-0.1,2.6-0.7,3.4c0.5,0.4,0,0.6,0,1.2c0,0.4,0.1,0.9-0.2,1v0.5
			c-0.3,0.6-0.1,1.4-0.5,1.9h-0.2v0.2c0.6,1-0.4,2.4,0,3.9c-0.1,0.4,0.1,0.9-0.2,1c0,0.7,0.1,1.4-0.5,1.4c0.4,1-0.2,2,0.2,3.1
			c0.2,0.3,0.8,1.6,0.2,1.9v1c0.1,0.6,0.8,0.4,0.7,1.2c0.2,1.7,1.1,2.8,1,4.8v2.4c0.1,1.3,1,1.9,1.2,3.1c0.4,0,0.1,0.8,0.5,1v0.2
			c0.4,0.2,0.8,0.5,1,1v0.2c0.3,0.2,0.8,0.4,0.7,1v0.2c0.4,0.2,0.8,0.5,1,1c0.1,0.3,0.4,0.4,0.5,0.7c0.8-0.1,0.6,0.7,1.4,0.5v0.2
			c0.7,0.2,1,0.7,1.7,1v0.2c1-0.1,1.6,0.1,2.2,0.5c-0.2-0.4,1.1-0.4,0.9,0h0.7h1.7c0-0.2,0-0.3,0.2-0.2c0.3-0.5,1.5-0.1,1.9-0.5h0.5
			c0.1-0.4,0.4-0.6,1-0.5h0.7c0-0.2,0.3-0.2,0.5-0.2c0-0.5,0.9-0.1,1.2-0.2h0.2c0.8-0.4,1.9-0.4,2.7-0.7c0.4-0.4,1.1-0.4,1.7-0.5
			c0.3-0.5,1.2-0.4,1.7-0.7c0.2-0.1,0.4-0.2,0.7-0.2c0.1-0.2,0.2-0.3,0.5-0.2c0-0.4,0.6-0.2,1-0.2c0.4-0.1,0.6-0.4,1-0.5
			c0.3-0.4,1.2-0.2,1.7-0.5c0.6-0.2,1.1-0.6,1.7-1c1.2-0.2,1.6-1.3,3.1-1.2c0.1-0.2,0.2-0.3,0.5-0.2c0.2-0.5,0.6-0.7,1.2-0.7
			c0.5-0.7,1.2-1.2,2-1.6c0-0.1-0.1-0.2-0.1-0.3L181.3,111.1L181.3,111.1z M208.3,69.3c0-1,1.6-0.2,0.7,0.2c0,0.4,0.1,0.9-0.2,1
			c0,0.4,0.1,0.9-0.2,1c0.6,0.5,0,1.2-0.2,1.7c-0.3,0.4-0.5,0.9-1.2,1c-0.1-0.5-0.6-0.5-0.7-1C206.8,71.6,207.8,70.7,208.3,69.3z
			 M153.8,47.8V48c-0.1,0.3,0.3,1.2-0.2,1.2c-0.1,2.5-1.1,3.5-1.4,5.3c-0.1,0.4,0.3,1.4-0.2,1.4v0.2c-0.2,0.6-0.1,1.5-1,1.5v0.2
			c-0.1,1.1-1,0.4-0.5,0c0.1-1.2,0.1-1.5,0.7-2.4v-0.2c-0.3-0.1-0.5-0.3-0.5-0.7c-0.6-0.3,0.2-1.3,0.2-1.7c0.4,0.2-0.4,1.5,0.7,0.7
			c-0.1-0.8,0.4-0.8,0.2-1.7c-0.5,0-1.1-1.1-0.5-1.5c-0.1-0.5,0.1-0.8,0.5-0.7c0-0.3,0.4-0.2,0.7-0.2V49h0.2v-0.7
			c-0.7-0.3,0.2-0.9,0.2-1.2C153.3,46.2,154.6,47.5,153.8,47.8z M155,38.6c-0.3,1.7-1.5,2.4-1.9,3.9c-0.2,0.5-0.7,0.7-0.7,1.5
			c-0.3-0.5-0.3-1.2,0-1.7V42c0-0.4-0.1-0.9,0.2-1c0-0.7,0.4-1,0.5-1.7c-0.1-0.5,0.2-0.6,0.2-1c0.1-0.3-0.3-1.2,0.2-1.2
			c-0.1-0.6,0.1-0.9,0.2-1.2h0.2c0-0.3,0.4-0.2,0.7-0.2c0.4-0.6,1,0.6,1.4,0.7C155.9,37.3,155.5,38,155,38.6z"/>
		<path class="st2" d="M220.6,62.8V63c-0.2,0.5,0.6,1.1,0.7,0.5v-0.2c0.4-0.6,0.5-1.2,1-1.2v-0.2C221.5,61.1,221.4,62.7,220.6,62.8z
			"/>
		<path class="st2" d="M215.1,79.4c-0.1,0.3-0.3,0.5-0.7,0.5c0.1,0.5-0.2,0.6-0.2,1c-0.3,0.7-0.7,1.3,0,1.9
			c-0.1-0.3,0.7-0.8,0.7-0.2h0.2c0.1-0.4-0.7-1,0-1.2c0-0.6,0-1.2,0.2-1.4C215.4,79.6,215.3,79.5,215.1,79.4z"/>
		<path class="st2" d="M223.3,56.5c0.2,0,0.2-0.1,0.2-0.2c0.1-0.5,0.5-0.8,1-1c0.1-0.4-0.2-0.4-0.2-0.7c-0.2,0-0.2-0.3-0.2-0.5
			c0.4-0.1,0-1.2,0.5-1.2v-0.2c0-0.3-0.1-0.4-0.2-0.5h-0.5c0,0.3-0.4,0.2-0.7,0.2c-0.2,0.7,0.3,0.6,0.2,1.2v0.7c0,0.4,0.3,0.5,0.2,1
			c-0.7,0.3-1.6,1.6-1.2,2.2C222.6,57,222.9,56.7,223.3,56.5z"/>
	</g>
</g>
</svg>
